<svg xmlns="http://www.w3.org/2000/svg" viewBox="0 0 500 500"><g id="freepik--Sauna--inject-33"><g id="freepik--sauna--inject-33"><g id="freepik--sauna--inject-33"><g id="freepik--Floor--inject-33"><polygon points="26.59 359.72 250 488.7 473.41 359.71 250 230.73 26.59 359.71 26.59 359.72" style="fill:#BA68C8"></polygon><polygon points="26.61 359.71 250.02 488.7 473.43 359.71 250.02 230.72 26.61 359.71 26.61 359.71" style="fill:#fff;opacity:0.45"></polygon><path d="M254.33,244.87l10.09-5.82-.9-.52-61.11,35.29-13.07-7.55L250.46,231l-.45-.26L26.6,359.72h0L27,360l59.35-34.27,13.07,7.55L40.11,367.52l.9.52,8.32-4.81,13.06,7.55-8.32,4.8.9.52,8.32-4.8h0l51-29.47,13.06,7.55L68,383.64l.89.52,8.32-4.8,13.07,7.54L82,391.7l.9.52L142.24,358l13.07,7.54L96,399.77l.9.51,8.32-4.8L118.25,403l-8.32,4.81.89.52,59.35-34.27,13.07,7.55-59.35,34.26.9.52,8.31-4.81,13.07,7.55-8.32,4.8.9.52L198.1,390.2l13.06,7.55L151.82,432l.89.52,8.32-4.8,13.07,7.54-8.32,4.8.9.52L226,406.33l13.07,7.54-59.35,34.27.9.51,8.32-4.8L202,451.4l-8.32,4.8.89.52L254,422.45,267,430l-59.35,34.26.9.52,8.32-4.81L230,467.52l-8.32,4.8.9.52,59.35-34.26,13.06,7.54L235.6,480.38l.89.52,8.32-4.8,13.52,7.8,205-118.36-13.51-7.8,10.09-5.83-.9-.51-61.12,35.28-13.06-7.54,61.11-35.29-.89-.52L435,349.16l-13.07-7.55L432,335.79l-.9-.52L370,370.56,356.9,363,418,327.73l-.9-.52L407,333,394,325.49l10.09-5.82-.89-.52L342,354.43,329,346.89l61.12-35.28-.9-.52-10.09,5.82L366,309.37l10.08-5.83-.89-.51-61.12,35.28-13.06-7.54,61.11-35.29-.89-.52-10.09,5.83-13.07-7.55,10.09-5.82-.9-.52-61.11,35.29-13.07-7.55,61.12-35.28-.9-.52-10.09,5.82-13.07-7.54,10.09-5.82-.89-.52-61.12,35.28-13.07-7.54,61.12-35.29-.9-.51-10.09,5.82L282.26,261l10.09-5.83-.9-.51-61.12,35.28-13.06-7.54,61.11-35.29-.89-.52-10.09,5.83Zm-167,80.32,101.15-58.4,13.07,7.54L100.35,332.74Zm-24,45.07-13.07-7.54,101.16-58.41,13.07,7.55Zm153.08-87.35,13.07,7.55-101.16,58.4-13.07-7.54ZM91.21,386.38l-13.06-7.54,101.16-58.4L192.37,328ZM244.3,299l13.06,7.54L156.21,365l-13.07-7.54ZM119.14,402.51,106.07,395l101.16-58.4,13.07,7.54Zm153.08-87.35,13.07,7.54L184.13,381.11l-13.06-7.55ZM147.07,418.63,134,411.09l101.16-58.41,13.07,7.55Zm153.08-87.35,13.07,7.55-101.16,58.4L199,389.69ZM175,434.75l-13.07-7.54,101.16-58.4,13.06,7.54Zm153.08-87.34L341.14,355,240,413.35l-13.07-7.54ZM202.92,450.88l-13.07-7.55L291,384.93l13.07,7.54ZM356,363.53l13.07,7.55-101.16,58.4-13.06-7.55ZM230.85,467l-13.07-7.54,101.16-58.41L332,408.6Zm153.08-87.35L397,387.2,295.84,445.6l-13.07-7.54Zm-24,45.07-101.16,58.4-13.06-7.54,101.16-58.4Zm89-66.46L462,365.8,360.83,424.2l-13.07-7.54ZM421,342.13l13.06,7.55L332.9,408.08l-13.06-7.54ZM393.07,326l13.07,7.54L305,392l-13.07-7.55Zm-27.93-16.13,13.07,7.55-101.16,58.4L264,368.29Zm-27.93-16.12,13.07,7.55-101.16,58.4-13.06-7.55Zm-27.92-16.12,13.07,7.54L221.2,343.59,208.13,336Zm-27.93-16.13,13.07,7.55-101.16,58.4-13.07-7.54Zm-14.86-8.58L165.34,311.34l-13.06-7.54,101.16-58.41Z" style="fill:#BA68C8;opacity:0.30000000000000004"></path></g><g id="freepik--Walls--inject-33"><polygon points="250 14.97 245.94 17.31 245.93 228.38 250 230.73 254.06 228.38 254.06 17.31 250 14.97" style="fill:#BA68C8"></polygon><polygon points="250 230.73 250 216.66 473.41 345.64 473.41 359.71 250 230.73" style="fill:#BA68C8"></polygon><polygon points="250 230.73 250 216.66 473.41 345.64 473.41 359.71 250 230.73" style="fill:#fff;opacity:0.7000000000000001"></polygon><polygon points="473.41 359.71 477.47 357.37 477.47 343.3 473.41 345.64 473.41 359.71" style="fill:#BA68C8"></polygon><polygon points="473.41 359.71 477.47 357.37 477.47 343.3 473.41 345.64 473.41 359.71" style="fill:#fff;opacity:0.55"></polygon><polygon points="250 216.66 254.06 214.31 477.47 343.3 473.41 345.64 250 216.66" style="fill:#BA68C8"></polygon><polygon points="250 216.66 254.06 214.31 477.47 343.3 473.41 345.64 250 216.66" style="fill:#fff;opacity:0.4"></polygon><polygon points="250 214.31 250 200.24 473.41 329.23 473.41 343.3 250 214.31" style="fill:#BA68C8"></polygon><polygon points="250 214.31 250 200.24 473.41 329.23 473.41 343.3 250 214.31" style="fill:#fff;opacity:0.7000000000000001"></polygon><polygon points="473.41 343.3 477.47 340.95 477.47 326.88 473.41 329.23 473.41 343.3" style="fill:#BA68C8"></polygon><polygon points="473.41 343.3 477.47 340.95 477.47 326.88 473.41 329.23 473.41 343.3" style="fill:#fff;opacity:0.55"></polygon><polygon points="250 200.24 254.06 197.89 477.47 326.88 473.41 329.23 250 200.24" style="fill:#BA68C8"></polygon><polygon points="250 200.24 254.06 197.89 477.47 326.88 473.41 329.23 250 200.24" style="fill:#fff;opacity:0.4"></polygon><polygon points="250 197.89 250 183.82 473.41 312.81 473.41 326.88 250 197.89" style="fill:#BA68C8"></polygon><polygon points="250 197.89 250 183.82 473.41 312.81 473.41 326.88 250 197.89" style="fill:#fff;opacity:0.7000000000000001"></polygon><polygon points="473.41 326.88 477.47 324.54 477.47 310.46 473.41 312.81 473.41 326.88" style="fill:#BA68C8"></polygon><polygon points="473.41 326.88 477.47 324.54 477.47 310.46 473.41 312.81 473.41 326.88" style="fill:#fff;opacity:0.55"></polygon><polygon points="250 183.82 254.06 181.48 477.47 310.46 473.41 312.81 250 183.82" style="fill:#BA68C8"></polygon><polygon points="250 183.82 254.06 181.48 477.47 310.46 473.41 312.81 250 183.82" style="fill:#fff;opacity:0.4"></polygon><polygon points="250 181.48 250 167.41 473.41 296.39 473.41 310.46 250 181.48" style="fill:#BA68C8"></polygon><polygon points="250 181.48 250 167.41 473.41 296.39 473.41 310.46 250 181.48" style="fill:#fff;opacity:0.7000000000000001"></polygon><polygon points="473.41 310.46 477.47 308.12 477.47 294.05 473.41 296.39 473.41 310.46" style="fill:#BA68C8"></polygon><polygon points="473.41 310.46 477.47 308.12 477.47 294.05 473.41 296.39 473.41 310.46" style="fill:#fff;opacity:0.55"></polygon><polygon points="250 167.41 254.06 165.06 477.47 294.05 473.41 296.39 250 167.41" style="fill:#BA68C8"></polygon><polygon points="250 167.41 254.06 165.06 477.47 294.05 473.41 296.39 250 167.41" style="fill:#fff;opacity:0.4"></polygon><polygon points="250 165.06 250 150.99 473.41 279.98 473.41 294.05 250 165.06" style="fill:#BA68C8"></polygon><polygon points="250 165.06 250 150.99 473.41 279.98 473.41 294.05 250 165.06" style="fill:#fff;opacity:0.7000000000000001"></polygon><polygon points="473.41 294.05 477.47 291.7 477.47 277.63 473.41 279.98 473.41 294.05" style="fill:#BA68C8"></polygon><polygon points="473.41 294.05 477.47 291.7 477.47 277.63 473.41 279.98 473.41 294.05" style="fill:#fff;opacity:0.55"></polygon><polygon points="250 150.99 254.06 148.64 477.47 277.63 473.41 279.98 250 150.99" style="fill:#BA68C8"></polygon><polygon points="250 150.99 254.06 148.64 477.47 277.63 473.41 279.98 250 150.99" style="fill:#fff;opacity:0.4"></polygon><polygon points="250 148.64 250 134.57 473.41 263.56 473.41 277.63 250 148.64" style="fill:#BA68C8"></polygon><polygon points="250 148.64 250 134.57 473.41 263.56 473.41 277.63 250 148.64" style="fill:#fff;opacity:0.7000000000000001"></polygon><polygon points="473.41 277.63 477.47 275.29 477.47 261.21 473.41 263.56 473.41 277.63" style="fill:#BA68C8"></polygon><polygon points="473.41 277.63 477.47 275.29 477.47 261.21 473.41 263.56 473.41 277.63" style="fill:#fff;opacity:0.55"></polygon><polygon points="250 134.57 254.06 132.23 477.47 261.21 473.41 263.56 250 134.57" style="fill:#BA68C8"></polygon><polygon points="250 134.57 254.06 132.23 477.47 261.21 473.41 263.56 250 134.57" style="fill:#fff;opacity:0.4"></polygon><polygon points="250 132.23 250 118.16 473.41 247.14 473.41 261.21 250 132.23" style="fill:#BA68C8"></polygon><polygon points="250 132.23 250 118.16 473.41 247.14 473.41 261.21 250 132.23" style="fill:#fff;opacity:0.7000000000000001"></polygon><polygon points="473.41 261.21 477.47 258.87 477.47 244.8 473.41 247.14 473.41 261.21" style="fill:#BA68C8"></polygon><polygon points="473.41 261.21 477.47 258.87 477.47 244.8 473.41 247.14 473.41 261.21" style="fill:#fff;opacity:0.55"></polygon><polygon points="250 118.16 254.06 115.81 477.47 244.8 473.41 247.14 250 118.16" style="fill:#BA68C8"></polygon><polygon points="250 118.16 254.06 115.81 477.47 244.8 473.41 247.14 250 118.16" style="fill:#fff;opacity:0.4"></polygon><polygon points="250 115.81 250 101.74 473.41 230.73 473.41 244.8 250 115.81" style="fill:#BA68C8"></polygon><polygon points="250 115.81 250 101.74 473.41 230.73 473.41 244.8 250 115.81" style="fill:#fff;opacity:0.7000000000000001"></polygon><polygon points="473.41 244.8 477.47 242.45 477.47 228.38 473.41 230.73 473.41 244.8" style="fill:#BA68C8"></polygon><polygon points="473.41 244.8 477.47 242.45 477.47 228.38 473.41 230.73 473.41 244.8" style="fill:#fff;opacity:0.55"></polygon><polygon points="250 101.74 254.06 99.39 477.47 228.38 473.41 230.73 250 101.74" style="fill:#BA68C8"></polygon><polygon points="250 101.74 254.06 99.39 477.47 228.38 473.41 230.73 250 101.74" style="fill:#fff;opacity:0.4"></polygon><polygon points="250 99.39 250 85.32 473.41 214.31 473.41 228.38 250 99.39" style="fill:#BA68C8"></polygon><polygon points="250 99.39 250 85.32 473.41 214.31 473.41 228.38 250 99.39" style="fill:#fff;opacity:0.7000000000000001"></polygon><polygon points="473.41 228.38 477.47 226.04 477.47 211.97 473.41 214.31 473.41 228.38" style="fill:#BA68C8"></polygon><polygon points="473.41 228.38 477.47 226.04 477.47 211.97 473.41 214.31 473.41 228.38" style="fill:#fff;opacity:0.55"></polygon><polygon points="250 85.32 254.06 82.98 477.47 211.97 473.41 214.31 250 85.32" style="fill:#BA68C8"></polygon><polygon points="250 85.32 254.06 82.98 477.47 211.97 473.41 214.31 250 85.32" style="fill:#fff;opacity:0.4"></polygon><polygon points="250 82.98 250 68.91 473.41 197.89 473.41 211.97 250 82.98" style="fill:#BA68C8"></polygon><polygon points="250 82.98 250 68.91 473.41 197.89 473.41 211.97 250 82.98" style="fill:#fff;opacity:0.7000000000000001"></polygon><polygon points="473.41 211.97 477.47 209.62 477.47 195.55 473.41 197.89 473.41 211.97" style="fill:#BA68C8"></polygon><polygon points="473.41 211.97 477.47 209.62 477.47 195.55 473.41 197.89 473.41 211.97" style="fill:#fff;opacity:0.55"></polygon><polygon points="250 68.91 254.06 66.56 477.47 195.55 473.41 197.89 250 68.91" style="fill:#BA68C8"></polygon><polygon points="250 68.91 254.06 66.56 477.47 195.55 473.41 197.89 250 68.91" style="fill:#fff;opacity:0.4"></polygon><polygon points="250 66.56 250 52.49 473.41 181.48 473.41 195.55 250 66.56" style="fill:#BA68C8"></polygon><polygon points="250 66.56 250 52.49 473.41 181.48 473.41 195.55 250 66.56" style="fill:#fff;opacity:0.7000000000000001"></polygon><polygon points="473.41 195.55 477.47 193.2 477.47 179.13 473.41 181.48 473.41 195.55" style="fill:#BA68C8"></polygon><polygon points="473.41 195.55 477.47 193.2 477.47 179.13 473.41 181.48 473.41 195.55" style="fill:#fff;opacity:0.55"></polygon><polygon points="250 52.49 254.06 50.14 477.47 179.13 473.41 181.48 250 52.49" style="fill:#BA68C8"></polygon><polygon points="250 52.49 254.06 50.14 477.47 179.13 473.41 181.48 250 52.49" style="fill:#fff;opacity:0.4"></polygon><polygon points="250 50.14 250 36.07 473.41 165.06 473.41 179.13 250 50.14" style="fill:#BA68C8"></polygon><polygon points="250 50.14 250 36.07 473.41 165.06 473.41 179.13 250 50.14" style="fill:#fff;opacity:0.7000000000000001"></polygon><polygon points="473.41 179.13 477.47 176.79 477.47 162.72 473.41 165.06 473.41 179.13" style="fill:#BA68C8"></polygon><polygon points="473.41 179.13 477.47 176.79 477.47 162.72 473.41 165.06 473.41 179.13" style="fill:#fff;opacity:0.55"></polygon><polygon points="250 36.07 254.06 33.73 477.47 162.72 473.41 165.06 250 36.07" style="fill:#BA68C8"></polygon><polygon points="250 36.07 254.06 33.73 477.47 162.72 473.41 165.06 250 36.07" style="fill:#fff;opacity:0.4"></polygon><polygon points="250 33.73 250 19.66 473.41 148.64 473.41 162.72 250 33.73" style="fill:#BA68C8"></polygon><polygon points="250 33.73 250 19.66 473.41 148.64 473.41 162.72 250 33.73" style="fill:#fff;opacity:0.7000000000000001"></polygon><polygon points="473.41 162.72 477.47 160.37 477.47 146.3 473.41 148.64 473.41 162.72" style="fill:#BA68C8"></polygon><polygon points="473.41 162.72 477.47 160.37 477.47 146.3 473.41 148.64 473.41 162.72" style="fill:#fff;opacity:0.55"></polygon><polygon points="250 19.66 254.06 17.31 477.47 146.3 473.41 148.64 250 19.66" style="fill:#BA68C8"></polygon><polygon points="250 19.66 254.06 17.31 477.47 146.3 473.41 148.64 250 19.66" style="fill:#fff;opacity:0.4"></polygon><polygon points="250 230.73 250 216.66 26.59 345.64 26.59 359.71 250 230.73" style="fill:#BA68C8"></polygon><polygon points="250 230.73 250 216.66 26.59 345.64 26.59 359.71 250 230.73" style="fill:#fff;opacity:0.55"></polygon><polygon points="26.59 359.71 22.52 357.37 22.52 343.3 26.59 345.64 26.59 359.71" style="fill:#BA68C8"></polygon><polygon points="26.59 359.71 22.52 357.37 22.52 343.3 26.59 345.64 26.59 359.71" style="fill:#fff;opacity:0.7000000000000001"></polygon><polygon points="250 216.66 245.94 214.31 22.52 343.3 26.59 345.64 250 216.66" style="fill:#BA68C8"></polygon><polygon points="250 216.66 245.94 214.31 22.52 343.3 26.59 345.64 250 216.66" style="fill:#fff;opacity:0.4"></polygon><polygon points="250 214.31 250 200.24 26.59 329.23 26.59 343.3 250 214.31" style="fill:#BA68C8"></polygon><polygon points="250 214.31 250 200.24 26.59 329.23 26.59 343.3 250 214.31" style="fill:#fff;opacity:0.55"></polygon><polygon points="26.59 343.3 22.52 340.95 22.52 326.88 26.59 329.23 26.59 343.3" style="fill:#BA68C8"></polygon><polygon points="26.59 343.3 22.52 340.95 22.52 326.88 26.59 329.23 26.59 343.3" style="fill:#fff;opacity:0.7000000000000001"></polygon><polygon points="250 200.24 245.94 197.89 22.52 326.88 26.59 329.23 250 200.24" style="fill:#BA68C8"></polygon><polygon points="250 200.24 245.94 197.89 22.52 326.88 26.59 329.23 250 200.24" style="fill:#fff;opacity:0.4"></polygon><polygon points="250 197.89 250 183.82 26.59 312.81 26.59 326.88 250 197.89" style="fill:#BA68C8"></polygon><polygon points="250 197.89 250 183.82 26.59 312.81 26.59 326.88 250 197.89" style="fill:#fff;opacity:0.55"></polygon><polygon points="26.59 326.88 22.52 324.54 22.52 310.46 26.59 312.81 26.59 326.88" style="fill:#BA68C8"></polygon><polygon points="26.59 326.88 22.52 324.54 22.52 310.46 26.59 312.81 26.59 326.88" style="fill:#fff;opacity:0.7000000000000001"></polygon><polygon points="250 183.82 245.94 181.48 22.52 310.46 26.59 312.81 250 183.82" style="fill:#BA68C8"></polygon><polygon points="250 183.82 245.94 181.48 22.52 310.46 26.59 312.81 250 183.82" style="fill:#fff;opacity:0.4"></polygon><polygon points="250 181.48 250 167.41 26.59 296.39 26.59 310.46 250 181.48" style="fill:#BA68C8"></polygon><polygon points="250 181.48 250 167.41 26.59 296.39 26.59 310.46 250 181.48" style="fill:#fff;opacity:0.55"></polygon><polygon points="26.59 310.46 22.52 308.12 22.52 294.05 26.59 296.39 26.59 310.46" style="fill:#BA68C8"></polygon><polygon points="26.59 310.46 22.52 308.12 22.52 294.05 26.59 296.39 26.59 310.46" style="fill:#fff;opacity:0.7000000000000001"></polygon><polygon points="250 167.41 245.94 165.06 22.52 294.05 26.59 296.39 250 167.41" style="fill:#BA68C8"></polygon><polygon points="250 167.41 245.94 165.06 22.52 294.05 26.59 296.39 250 167.41" style="fill:#fff;opacity:0.4"></polygon><polygon points="250 165.06 250 150.99 26.59 279.98 26.59 294.05 250 165.06" style="fill:#BA68C8"></polygon><polygon points="250 165.06 250 150.99 26.59 279.98 26.59 294.05 250 165.06" style="fill:#fff;opacity:0.55"></polygon><polygon points="26.59 294.05 22.52 291.7 22.52 277.63 26.59 279.98 26.59 294.05" style="fill:#BA68C8"></polygon><polygon points="26.59 294.05 22.52 291.7 22.52 277.63 26.59 279.98 26.59 294.05" style="fill:#fff;opacity:0.7000000000000001"></polygon><polygon points="250 150.99 245.94 148.64 22.52 277.63 26.59 279.98 250 150.99" style="fill:#BA68C8"></polygon><polygon points="250 150.99 245.94 148.64 22.52 277.63 26.59 279.98 250 150.99" style="fill:#fff;opacity:0.4"></polygon><polygon points="250 148.64 250 134.57 26.59 263.56 26.59 277.63 250 148.64" style="fill:#BA68C8"></polygon><polygon points="250 148.64 250 134.57 26.59 263.56 26.59 277.63 250 148.64" style="fill:#fff;opacity:0.55"></polygon><polygon points="26.59 277.63 22.52 275.29 22.52 261.21 26.59 263.56 26.59 277.63" style="fill:#BA68C8"></polygon><polygon points="26.59 277.63 22.52 275.29 22.52 261.21 26.59 263.56 26.59 277.63" style="fill:#fff;opacity:0.7000000000000001"></polygon><polygon points="250 134.57 245.94 132.23 22.52 261.21 26.59 263.56 250 134.57" style="fill:#BA68C8"></polygon><polygon points="250 134.57 245.94 132.23 22.52 261.21 26.59 263.56 250 134.57" style="fill:#fff;opacity:0.4"></polygon><polygon points="250 132.23 250 118.16 26.59 247.14 26.59 261.21 250 132.23" style="fill:#BA68C8"></polygon><polygon points="250 132.23 250 118.16 26.59 247.14 26.59 261.21 250 132.23" style="fill:#fff;opacity:0.55"></polygon><polygon points="26.59 261.21 22.52 258.87 22.52 244.8 26.59 247.14 26.59 261.21" style="fill:#BA68C8"></polygon><polygon points="26.59 261.21 22.52 258.87 22.52 244.8 26.59 247.14 26.59 261.21" style="fill:#fff;opacity:0.7000000000000001"></polygon><polygon points="250 118.16 245.94 115.81 22.52 244.8 26.59 247.14 250 118.16" style="fill:#BA68C8"></polygon><polygon points="250 118.16 245.94 115.81 22.52 244.8 26.59 247.14 250 118.16" style="fill:#fff;opacity:0.4"></polygon><polygon points="250 115.81 250 101.74 26.59 230.73 26.59 244.8 250 115.81" style="fill:#BA68C8"></polygon><polygon points="250 115.81 250 101.74 26.59 230.73 26.59 244.8 250 115.81" style="fill:#fff;opacity:0.55"></polygon><polygon points="26.59 244.8 22.52 242.45 22.52 228.38 26.59 230.73 26.59 244.8" style="fill:#BA68C8"></polygon><polygon points="26.59 244.8 22.52 242.45 22.52 228.38 26.59 230.73 26.59 244.8" style="fill:#fff;opacity:0.7000000000000001"></polygon><polygon points="250 101.74 245.94 99.39 22.52 228.38 26.59 230.73 250 101.74" style="fill:#BA68C8"></polygon><polygon points="250 101.74 245.94 99.39 22.52 228.38 26.59 230.73 250 101.74" style="fill:#fff;opacity:0.4"></polygon><polygon points="250 99.39 250 85.32 26.59 214.31 26.59 228.38 250 99.39" style="fill:#BA68C8"></polygon><polygon points="250 99.39 250 85.32 26.59 214.31 26.59 228.38 250 99.39" style="fill:#fff;opacity:0.55"></polygon><polygon points="26.59 228.38 22.52 226.04 22.52 211.96 26.59 214.31 26.59 228.38" style="fill:#BA68C8"></polygon><polygon points="26.59 228.38 22.52 226.04 22.52 211.96 26.59 214.31 26.59 228.38" style="fill:#fff;opacity:0.7000000000000001"></polygon><polygon points="250 85.32 245.94 82.98 22.52 211.96 26.59 214.31 250 85.32" style="fill:#BA68C8"></polygon><polygon points="250 85.32 245.94 82.98 22.52 211.96 26.59 214.31 250 85.32" style="fill:#fff;opacity:0.4"></polygon><polygon points="250 82.98 250 68.91 26.59 197.89 26.59 211.96 250 82.98" style="fill:#BA68C8"></polygon><polygon points="250 82.98 250 68.91 26.59 197.89 26.59 211.96 250 82.98" style="fill:#fff;opacity:0.55"></polygon><polygon points="26.59 211.96 22.52 209.62 22.52 195.55 26.59 197.89 26.59 211.96" style="fill:#BA68C8"></polygon><polygon points="26.59 211.96 22.52 209.62 22.52 195.55 26.59 197.89 26.59 211.96" style="fill:#fff;opacity:0.7000000000000001"></polygon><polygon points="250 68.91 245.94 66.56 22.52 195.55 26.59 197.89 250 68.91" style="fill:#BA68C8"></polygon><polygon points="250 68.91 245.94 66.56 22.52 195.55 26.59 197.89 250 68.91" style="fill:#fff;opacity:0.4"></polygon><polygon points="250 66.56 250 52.49 26.59 181.48 26.59 195.55 250 66.56" style="fill:#BA68C8"></polygon><polygon points="250 66.56 250 52.49 26.59 181.48 26.59 195.55 250 66.56" style="fill:#fff;opacity:0.55"></polygon><polygon points="26.59 195.55 22.52 193.2 22.52 179.13 26.59 181.48 26.59 195.55" style="fill:#BA68C8"></polygon><polygon points="26.59 195.55 22.52 193.2 22.52 179.13 26.59 181.48 26.59 195.55" style="fill:#fff;opacity:0.7000000000000001"></polygon><polygon points="250 52.49 245.94 50.14 22.52 179.13 26.59 181.48 250 52.49" style="fill:#BA68C8"></polygon><polygon points="250 52.49 245.94 50.14 22.52 179.13 26.59 181.48 250 52.49" style="fill:#fff;opacity:0.4"></polygon><polygon points="250 50.14 250 36.07 26.59 165.06 26.59 179.13 250 50.14" style="fill:#BA68C8"></polygon><polygon points="250 50.14 250 36.07 26.59 165.06 26.59 179.13 250 50.14" style="fill:#fff;opacity:0.55"></polygon><polygon points="26.59 179.13 22.52 176.78 22.52 162.71 26.59 165.06 26.59 179.13" style="fill:#BA68C8"></polygon><polygon points="26.59 179.13 22.52 176.78 22.52 162.71 26.59 165.06 26.59 179.13" style="fill:#fff;opacity:0.7000000000000001"></polygon><polygon points="250 36.07 245.94 33.73 22.52 162.71 26.59 165.06 250 36.07" style="fill:#BA68C8"></polygon><polygon points="250 36.07 245.94 33.73 22.52 162.71 26.59 165.06 250 36.07" style="fill:#fff;opacity:0.4"></polygon><polygon points="250 33.73 250 19.66 26.59 148.64 26.59 162.71 250 33.73" style="fill:#BA68C8"></polygon><polygon points="250 33.73 250 19.66 26.59 148.64 26.59 162.71 250 33.73" style="fill:#fff;opacity:0.55"></polygon><polygon points="26.59 162.71 22.52 160.37 22.52 146.3 26.59 148.64 26.59 162.71" style="fill:#BA68C8"></polygon><polygon points="26.59 162.71 22.52 160.37 22.52 146.3 26.59 148.64 26.59 162.71" style="fill:#fff;opacity:0.7000000000000001"></polygon><polygon points="250 19.66 245.94 17.31 22.52 146.3 26.59 148.64 250 19.66" style="fill:#BA68C8"></polygon><polygon points="250 19.66 245.94 17.31 22.52 146.3 26.59 148.64 250 19.66" style="fill:#fff;opacity:0.4"></polygon></g><g id="freepik--Light--inject-33"><polygon points="385.97 107.58 422.53 266.49 329.11 212.58 365.66 95.86 385.97 107.58" style="fill:#fff;opacity:0.1"></polygon><polygon points="385.97 107.58 410.35 259.46 341.29 219.61 365.66 95.86 385.97 107.58" style="fill:#fff;opacity:0.1"></polygon><polygon points="385.97 107.58 398.16 252.43 353.48 226.63 365.66 95.86 385.97 107.58" style="fill:#fff;opacity:0.1"></polygon><polygon points="365.66 86.48 385.97 98.2 379.88 101.72 359.57 90 365.66 86.48" style="fill:#455a64"></polygon><polygon points="379.88 101.72 379.88 111.1 359.57 99.38 359.57 90 379.88 101.72" style="fill:#263238"></polygon><polygon points="385.97 107.58 379.88 111.1 379.88 101.72 385.97 98.2 385.97 107.58" style="fill:#37474f"></polygon></g><g id="freepik--light--inject-33"><polygon points="156.57 82.98 120.01 241.88 213.44 187.98 176.88 71.25 156.57 82.98" style="fill:#fff;opacity:0.1"></polygon><polygon points="156.57 82.98 132.2 234.85 201.25 195.01 176.88 71.25 156.57 82.98" style="fill:#fff;opacity:0.1"></polygon><polygon points="156.57 82.98 144.38 227.82 189.07 202.02 176.88 71.25 156.57 82.98" style="fill:#fff;opacity:0.1"></polygon><polygon points="176.88 61.87 156.57 73.6 162.66 77.12 182.97 65.39 176.88 61.87" style="fill:#455a64"></polygon><polygon points="162.66 77.12 162.66 86.5 182.97 74.77 182.97 65.39 162.66 77.12" style="fill:#263238"></polygon><polygon points="156.57 82.98 162.66 86.5 162.66 77.12 156.57 73.6 156.57 82.98" style="fill:#37474f"></polygon></g><g id="freepik--Seats--inject-33"><polygon points="472.7 360.12 472.7 346.05 441.4 364.12 441.4 378.19 472.7 360.12" style="fill:#BA68C8"></polygon><polygon points="472.7 360.12 472.7 346.05 441.4 364.12 441.4 378.19 472.7 360.12" style="fill:#fff;opacity:0.7000000000000001"></polygon><polygon points="441.4 378.19 437.34 375.85 437.34 361.78 441.4 364.12 441.4 378.19" style="fill:#BA68C8"></polygon><polygon points="441.4 378.19 437.34 375.85 437.34 361.78 441.4 364.12 441.4 378.19" style="fill:#fff;opacity:0.55"></polygon><polygon points="472.7 346.05 468.64 343.71 437.34 361.78 441.4 364.12 472.7 346.05" style="fill:#BA68C8"></polygon><polygon points="472.7 346.05 468.64 343.71 437.34 361.78 441.4 364.12 472.7 346.05" style="fill:#fff;opacity:0.4"></polygon><polygon points="472.7 343.71 472.7 329.64 441.4 347.71 441.4 361.78 472.7 343.71" style="fill:#BA68C8"></polygon><polygon points="472.7 343.71 472.7 329.64 441.4 347.71 441.4 361.78 472.7 343.71" style="fill:#fff;opacity:0.7000000000000001"></polygon><polygon points="441.4 361.78 437.34 359.43 437.34 345.36 441.4 347.71 441.4 361.78" style="fill:#BA68C8"></polygon><polygon points="441.4 361.78 437.34 359.43 437.34 345.36 441.4 347.71 441.4 361.78" style="fill:#fff;opacity:0.55"></polygon><polygon points="472.7 329.64 468.64 327.29 437.34 345.36 441.4 347.71 472.7 329.64" style="fill:#BA68C8"></polygon><polygon points="472.7 329.64 468.64 327.29 437.34 345.36 441.4 347.71 472.7 329.64" style="fill:#fff;opacity:0.4"></polygon><polygon points="472.7 327.29 472.7 313.22 441.4 331.29 441.4 345.36 472.7 327.29" style="fill:#BA68C8"></polygon><polygon points="472.7 327.29 472.7 313.22 441.4 331.29 441.4 345.36 472.7 327.29" style="fill:#fff;opacity:0.7000000000000001"></polygon><polygon points="441.4 345.36 437.34 343.02 437.34 328.94 441.4 331.29 441.4 345.36" style="fill:#BA68C8"></polygon><polygon points="441.4 345.36 437.34 343.02 437.34 328.94 441.4 331.29 441.4 345.36" style="fill:#fff;opacity:0.55"></polygon><polygon points="472.7 313.22 468.64 310.87 437.34 328.94 441.4 331.29 472.7 313.22" style="fill:#BA68C8"></polygon><polygon points="472.7 313.22 468.64 310.87 437.34 328.94 441.4 331.29 472.7 313.22" style="fill:#fff;opacity:0.4"></polygon><polygon points="213.44 251.83 213.44 237.76 436.85 366.75 436.85 380.82 213.44 251.83" style="fill:#BA68C8"></polygon><polygon points="213.44 251.83 213.44 237.76 436.85 366.75 436.85 380.82 213.44 251.83" style="fill:#fff;opacity:0.7000000000000001"></polygon><polygon points="436.85 380.82 440.92 378.48 440.92 364.41 436.85 366.75 436.85 380.82" style="fill:#BA68C8"></polygon><polygon points="436.85 380.82 440.92 378.48 440.92 364.41 436.85 366.75 436.85 380.82" style="fill:#fff;opacity:0.55"></polygon><polygon points="213.44 237.76 217.5 235.42 440.92 364.41 436.85 366.75 213.44 237.76" style="fill:#BA68C8"></polygon><polygon points="213.44 237.76 217.5 235.42 440.92 364.41 436.85 366.75 213.44 237.76" style="fill:#fff;opacity:0.4"></polygon><polygon points="213.44 235.42 213.44 221.35 436.85 350.33 436.85 364.4 213.44 235.42" style="fill:#BA68C8"></polygon><polygon points="213.44 235.42 213.44 221.35 436.85 350.33 436.85 364.4 213.44 235.42" style="fill:#fff;opacity:0.7000000000000001"></polygon><polygon points="436.85 364.4 440.92 362.06 440.92 347.99 436.85 350.33 436.85 364.4" style="fill:#BA68C8"></polygon><polygon points="436.85 364.4 440.92 362.06 440.92 347.99 436.85 350.33 436.85 364.4" style="fill:#fff;opacity:0.55"></polygon><polygon points="213.44 221.35 217.5 219 440.92 347.99 436.85 350.33 213.44 221.35" style="fill:#BA68C8"></polygon><polygon points="213.44 221.35 217.5 219 440.92 347.99 436.85 350.33 213.44 221.35" style="fill:#fff;opacity:0.4"></polygon><polygon points="213.44 219 213.44 204.93 436.85 333.92 436.85 347.99 213.44 219" style="fill:#BA68C8"></polygon><polygon points="213.44 219 213.44 204.93 436.85 333.92 436.85 347.99 213.44 219" style="fill:#fff;opacity:0.7000000000000001"></polygon><polygon points="436.85 347.99 440.92 345.64 440.92 331.57 436.85 333.92 436.85 347.99" style="fill:#BA68C8"></polygon><polygon points="436.85 347.99 440.92 345.64 440.92 331.57 436.85 333.92 436.85 347.99" style="fill:#fff;opacity:0.55"></polygon><polygon points="213.44 204.93 217.5 202.58 440.92 331.57 436.85 333.92 213.44 204.93" style="fill:#BA68C8"></polygon><polygon points="213.44 204.93 217.5 202.58 440.92 331.57 436.85 333.92 213.44 204.93" style="fill:#fff;opacity:0.4"></polygon><polygon points="213.44 226 436.66 354.87 436.66 333.92 213.44 204.93 213.44 226" style="opacity:0.2"></polygon><path d="M472.7,296,249.78,167.28h0a1.61,1.61,0,0,0-1.45.2l-2,1.17a4.8,4.8,0,0,0-2.16,3.75V183.5a1.53,1.53,0,0,0,.64,1.41l.09.05L467.55,313.55l.08.05.15.09a1.64,1.64,0,0,0,1.43-.21l2-1.18a4.76,4.76,0,0,0,2.17-3.75v-11.1A1.51,1.51,0,0,0,472.7,296Z" style="fill:#BA68C8"></path><path d="M472.7,296,249.78,167.28h0a1.61,1.61,0,0,0-1.45.2l-2,1.17a4.8,4.8,0,0,0-2.16,3.75V183.5a1.53,1.53,0,0,0,.64,1.41l.09.05L467.55,313.55l.08.05.15.09a1.64,1.64,0,0,0,1.43-.21l2-1.18a4.76,4.76,0,0,0,2.17-3.75v-11.1A1.51,1.51,0,0,0,472.7,296Z" style="fill:#fff;opacity:0.4"></path><path d="M473.41,297.45v11.1a4.76,4.76,0,0,1-2.17,3.75l-2,1.18a1.64,1.64,0,0,1-1.43.21l-.15-.09-.08-.05a1.63,1.63,0,0,1-.51-1.32V301.12a4.8,4.8,0,0,1,2.17-3.75l2-1.17a1.63,1.63,0,0,1,1.46-.2A1.51,1.51,0,0,1,473.41,297.45Z" style="fill:#BA68C8"></path><path d="M473.41,297.45v11.1a4.76,4.76,0,0,1-2.17,3.75l-2,1.18a1.64,1.64,0,0,1-1.43.21l-.15-.09-.08-.05a1.63,1.63,0,0,1-.51-1.32V301.12a4.8,4.8,0,0,1,2.17-3.75l2-1.17a1.63,1.63,0,0,1,1.46-.2A1.51,1.51,0,0,1,473.41,297.45Z" style="fill:#fff;opacity:0.55"></path><path d="M472.7,296a1.63,1.63,0,0,0-1.46.2l-2,1.17a4.4,4.4,0,0,0-1.36,1.33L244.93,170a4.28,4.28,0,0,1,1.34-1.34l2-1.17a1.61,1.61,0,0,1,1.45-.2h0Z" style="fill:#BA68C8"></path><path d="M472.7,296a1.63,1.63,0,0,0-1.46.2l-2,1.17a4.4,4.4,0,0,0-1.36,1.33L244.93,170a4.28,4.28,0,0,1,1.34-1.34l2-1.17a1.61,1.61,0,0,1,1.45-.2h0Z" style="fill:#fff;opacity:0.8"></path><path d="M465.49,300.15,242.57,171.43h0a1.61,1.61,0,0,0-1.45.2l-2,1.17a4.8,4.8,0,0,0-2.16,3.75v11.11a1.53,1.53,0,0,0,.64,1.41l.09.05L460.34,317.7l.08.05.15.09a1.64,1.64,0,0,0,1.43-.21l2-1.18a4.76,4.76,0,0,0,2.17-3.75V301.6A1.51,1.51,0,0,0,465.49,300.15Z" style="fill:#BA68C8"></path><path d="M465.49,300.15,242.57,171.43h0a1.61,1.61,0,0,0-1.45.2l-2,1.17a4.8,4.8,0,0,0-2.16,3.75v11.11a1.53,1.53,0,0,0,.64,1.41l.09.05L460.34,317.7l.08.05.15.09a1.64,1.64,0,0,0,1.43-.21l2-1.18a4.76,4.76,0,0,0,2.17-3.75V301.6A1.51,1.51,0,0,0,465.49,300.15Z" style="fill:#fff;opacity:0.4"></path><path d="M466.2,301.6v11.1a4.76,4.76,0,0,1-2.17,3.75l-2,1.18a1.64,1.64,0,0,1-1.43.21l-.15-.09-.08-.05a1.63,1.63,0,0,1-.51-1.32V305.27a4.8,4.8,0,0,1,2.17-3.75l2-1.17a1.63,1.63,0,0,1,1.46-.2A1.51,1.51,0,0,1,466.2,301.6Z" style="fill:#BA68C8"></path><path d="M466.2,301.6v11.1a4.76,4.76,0,0,1-2.17,3.75l-2,1.18a1.64,1.64,0,0,1-1.43.21l-.15-.09-.08-.05a1.63,1.63,0,0,1-.51-1.32V305.27a4.8,4.8,0,0,1,2.17-3.75l2-1.17a1.63,1.63,0,0,1,1.46-.2A1.51,1.51,0,0,1,466.2,301.6Z" style="fill:#fff;opacity:0.55"></path><path d="M465.49,300.15a1.63,1.63,0,0,0-1.46.2l-2,1.17a4.4,4.4,0,0,0-1.36,1.33L237.72,174.13a4.28,4.28,0,0,1,1.34-1.34l2-1.17a1.61,1.61,0,0,1,1.45-.2h0Z" style="fill:#BA68C8"></path><path d="M465.49,300.15a1.63,1.63,0,0,0-1.46.2l-2,1.17a4.4,4.4,0,0,0-1.36,1.33L237.72,174.13a4.28,4.28,0,0,1,1.34-1.34l2-1.17a1.61,1.61,0,0,1,1.45-.2h0Z" style="fill:#fff;opacity:0.8"></path><path d="M458.28,304.3,235.37,175.58h0a1.61,1.61,0,0,0-1.45.2l-2,1.17a4.8,4.8,0,0,0-2.16,3.75V191.8a1.53,1.53,0,0,0,.64,1.41l.09,0,222.7,128.59.08,0,.15.09a1.64,1.64,0,0,0,1.43-.21l2-1.18a4.76,4.76,0,0,0,2.17-3.75v-11.1A1.51,1.51,0,0,0,458.28,304.3Z" style="fill:#BA68C8"></path><path d="M458.28,304.3,235.37,175.58h0a1.61,1.61,0,0,0-1.45.2l-2,1.17a4.8,4.8,0,0,0-2.16,3.75V191.8a1.53,1.53,0,0,0,.64,1.41l.09,0,222.7,128.59.08,0,.15.09a1.64,1.64,0,0,0,1.43-.21l2-1.18a4.76,4.76,0,0,0,2.17-3.75v-11.1A1.51,1.51,0,0,0,458.28,304.3Z" style="fill:#fff;opacity:0.4"></path><path d="M459,305.75v11.1a4.76,4.76,0,0,1-2.17,3.75l-2,1.18a1.64,1.64,0,0,1-1.43.21l-.15-.09-.08,0a1.63,1.63,0,0,1-.51-1.32V309.42a4.8,4.8,0,0,1,2.17-3.75l2-1.17a1.63,1.63,0,0,1,1.46-.2A1.51,1.51,0,0,1,459,305.75Z" style="fill:#BA68C8"></path><path d="M459,305.75v11.1a4.76,4.76,0,0,1-2.17,3.75l-2,1.18a1.64,1.64,0,0,1-1.43.21l-.15-.09-.08,0a1.63,1.63,0,0,1-.51-1.32V309.42a4.8,4.8,0,0,1,2.17-3.75l2-1.17a1.63,1.63,0,0,1,1.46-.2A1.51,1.51,0,0,1,459,305.75Z" style="fill:#fff;opacity:0.55"></path><path d="M458.28,304.3a1.63,1.63,0,0,0-1.46.2l-2,1.17a4.4,4.4,0,0,0-1.36,1.33L230.52,178.28a4.28,4.28,0,0,1,1.34-1.34l2-1.17a1.61,1.61,0,0,1,1.45-.2h0Z" style="fill:#BA68C8"></path><path d="M458.28,304.3a1.63,1.63,0,0,0-1.46.2l-2,1.17a4.4,4.4,0,0,0-1.36,1.33L230.52,178.28a4.28,4.28,0,0,1,1.34-1.34l2-1.17a1.61,1.61,0,0,1,1.45-.2h0Z" style="fill:#fff;opacity:0.8"></path><path d="M451.07,308.44,228.16,179.73h0a1.61,1.61,0,0,0-1.45.2l-2,1.17a4.8,4.8,0,0,0-2.16,3.75V196a1.53,1.53,0,0,0,.64,1.41l.09,0L445.92,326l.08.05.15.09a1.64,1.64,0,0,0,1.43-.21l2-1.18a4.76,4.76,0,0,0,2.17-3.75v-11.1A1.51,1.51,0,0,0,451.07,308.44Z" style="fill:#BA68C8"></path><path d="M451.07,308.44,228.16,179.73h0a1.61,1.61,0,0,0-1.45.2l-2,1.17a4.8,4.8,0,0,0-2.16,3.75V196a1.53,1.53,0,0,0,.64,1.41l.09,0L445.92,326l.08.05.15.09a1.64,1.64,0,0,0,1.43-.21l2-1.18a4.76,4.76,0,0,0,2.17-3.75v-11.1A1.51,1.51,0,0,0,451.07,308.44Z" style="fill:#fff;opacity:0.4"></path><path d="M451.78,309.89V321a4.76,4.76,0,0,1-2.17,3.75l-2,1.18a1.64,1.64,0,0,1-1.43.21L446,326l-.08-.05a1.63,1.63,0,0,1-.51-1.32V313.56a4.8,4.8,0,0,1,2.17-3.75l2-1.17a1.63,1.63,0,0,1,1.46-.2A1.51,1.51,0,0,1,451.78,309.89Z" style="fill:#BA68C8"></path><path d="M451.78,309.89V321a4.76,4.76,0,0,1-2.17,3.75l-2,1.18a1.64,1.64,0,0,1-1.43.21L446,326l-.08-.05a1.63,1.63,0,0,1-.51-1.32V313.56a4.8,4.8,0,0,1,2.17-3.75l2-1.17a1.63,1.63,0,0,1,1.46-.2A1.51,1.51,0,0,1,451.78,309.89Z" style="fill:#fff;opacity:0.55"></path><path d="M451.07,308.44a1.63,1.63,0,0,0-1.46.2l-2,1.17a4.4,4.4,0,0,0-1.36,1.33L223.31,182.43a4.28,4.28,0,0,1,1.34-1.34l2-1.17a1.61,1.61,0,0,1,1.45-.2h0Z" style="fill:#BA68C8"></path><path d="M451.07,308.44a1.63,1.63,0,0,0-1.46.2l-2,1.17a4.4,4.4,0,0,0-1.36,1.33L223.31,182.43a4.28,4.28,0,0,1,1.34-1.34l2-1.17a1.61,1.61,0,0,1,1.45-.2h0Z" style="fill:#fff;opacity:0.8"></path><path d="M443.87,312.59,221,183.88h0a1.61,1.61,0,0,0-1.45.2l-2,1.17a4.8,4.8,0,0,0-2.16,3.75V200.1a1.53,1.53,0,0,0,.64,1.41l.09.05L438.72,330.14l.08.05.15.09a1.64,1.64,0,0,0,1.43-.21l2-1.18a4.76,4.76,0,0,0,2.17-3.75V314A1.51,1.51,0,0,0,443.87,312.59Z" style="fill:#BA68C8"></path><path d="M443.87,312.59,221,183.88h0a1.61,1.61,0,0,0-1.45.2l-2,1.17a4.8,4.8,0,0,0-2.16,3.75V200.1a1.53,1.53,0,0,0,.64,1.41l.09.05L438.72,330.14l.08.05.15.09a1.64,1.64,0,0,0,1.43-.21l2-1.18a4.76,4.76,0,0,0,2.17-3.75V314A1.51,1.51,0,0,0,443.87,312.59Z" style="fill:#fff;opacity:0.4"></path><path d="M444.58,314v11.1a4.76,4.76,0,0,1-2.17,3.75l-2,1.18a1.64,1.64,0,0,1-1.43.21l-.15-.09-.08-.05a1.63,1.63,0,0,1-.51-1.32V317.71a4.8,4.8,0,0,1,2.17-3.75l2-1.17a1.63,1.63,0,0,1,1.46-.2A1.51,1.51,0,0,1,444.58,314Z" style="fill:#BA68C8"></path><path d="M444.58,314v11.1a4.76,4.76,0,0,1-2.17,3.75l-2,1.18a1.64,1.64,0,0,1-1.43.21l-.15-.09-.08-.05a1.63,1.63,0,0,1-.51-1.32V317.71a4.8,4.8,0,0,1,2.17-3.75l2-1.17a1.63,1.63,0,0,1,1.46-.2A1.51,1.51,0,0,1,444.58,314Z" style="fill:#fff;opacity:0.55"></path><path d="M443.87,312.59a1.63,1.63,0,0,0-1.46.2l-2,1.17a4.4,4.4,0,0,0-1.36,1.33L216.1,186.58a4.28,4.28,0,0,1,1.34-1.34l2-1.17a1.61,1.61,0,0,1,1.45-.2h0Z" style="fill:#BA68C8"></path><path d="M443.87,312.59a1.63,1.63,0,0,0-1.46.2l-2,1.17a4.4,4.4,0,0,0-1.36,1.33L216.1,186.58a4.28,4.28,0,0,1,1.34-1.34l2-1.17a1.61,1.61,0,0,1,1.45-.2h0Z" style="fill:#fff;opacity:0.8"></path><path d="M436.66,316.74,213.74,188h0a1.61,1.61,0,0,0-1.45.2l-2,1.17a4.8,4.8,0,0,0-2.16,3.75v11.11a1.53,1.53,0,0,0,.64,1.41l.09.05L431.51,334.29l.08,0,.15.09a1.64,1.64,0,0,0,1.43-.21l2-1.18a4.76,4.76,0,0,0,2.17-3.75v-11.1A1.51,1.51,0,0,0,436.66,316.74Z" style="fill:#BA68C8"></path><path d="M436.66,316.74,213.74,188h0a1.61,1.61,0,0,0-1.45.2l-2,1.17a4.8,4.8,0,0,0-2.16,3.75v11.11a1.53,1.53,0,0,0,.64,1.41l.09.05L431.51,334.29l.08,0,.15.09a1.64,1.64,0,0,0,1.43-.21l2-1.18a4.76,4.76,0,0,0,2.17-3.75v-11.1A1.51,1.51,0,0,0,436.66,316.74Z" style="fill:#fff;opacity:0.4"></path><path d="M437.37,318.19v11.1A4.76,4.76,0,0,1,435.2,333l-2,1.18a1.64,1.64,0,0,1-1.43.21l-.15-.09-.08,0A1.63,1.63,0,0,1,431,333V321.86a4.8,4.8,0,0,1,2.17-3.75l2-1.17a1.63,1.63,0,0,1,1.46-.2A1.51,1.51,0,0,1,437.37,318.19Z" style="fill:#BA68C8"></path><path d="M437.37,318.19v11.1A4.76,4.76,0,0,1,435.2,333l-2,1.18a1.64,1.64,0,0,1-1.43.21l-.15-.09-.08,0A1.63,1.63,0,0,1,431,333V321.86a4.8,4.8,0,0,1,2.17-3.75l2-1.17a1.63,1.63,0,0,1,1.46-.2A1.51,1.51,0,0,1,437.37,318.19Z" style="fill:#fff;opacity:0.55"></path><path d="M436.66,316.74a1.63,1.63,0,0,0-1.46.2l-2,1.17a4.4,4.4,0,0,0-1.36,1.33L208.89,190.73a4.28,4.28,0,0,1,1.34-1.34l2-1.17a1.61,1.61,0,0,1,1.45-.2h0Z" style="fill:#BA68C8"></path><path d="M436.66,316.74a1.63,1.63,0,0,0-1.46.2l-2,1.17a4.4,4.4,0,0,0-1.36,1.33L208.89,190.73a4.28,4.28,0,0,1,1.34-1.34l2-1.17a1.61,1.61,0,0,1,1.45-.2h0Z" style="fill:#fff;opacity:0.8"></path><path d="M429.45,320.89,206.53,192.18h0a1.61,1.61,0,0,0-1.45.2l-2,1.17a4.8,4.8,0,0,0-2.16,3.75V208.4a1.53,1.53,0,0,0,.64,1.41l.09.05L424.3,338.44l.08.05.15.09a1.64,1.64,0,0,0,1.43-.21l2-1.18a4.76,4.76,0,0,0,2.17-3.75v-11.1A1.51,1.51,0,0,0,429.45,320.89Z" style="fill:#BA68C8"></path><path d="M429.45,320.89,206.53,192.18h0a1.61,1.61,0,0,0-1.45.2l-2,1.17a4.8,4.8,0,0,0-2.16,3.75V208.4a1.53,1.53,0,0,0,.64,1.41l.09.05L424.3,338.44l.08.05.15.09a1.64,1.64,0,0,0,1.43-.21l2-1.18a4.76,4.76,0,0,0,2.17-3.75v-11.1A1.51,1.51,0,0,0,429.45,320.89Z" style="fill:#fff;opacity:0.7000000000000001"></path><path d="M430.16,322.34v11.1a4.76,4.76,0,0,1-2.17,3.75l-2,1.18a1.64,1.64,0,0,1-1.43.21l-.15-.09-.08-.05a1.63,1.63,0,0,1-.51-1.32V326a4.8,4.8,0,0,1,2.17-3.75l2-1.17a1.63,1.63,0,0,1,1.46-.2A1.51,1.51,0,0,1,430.16,322.34Z" style="fill:#BA68C8"></path><path d="M430.16,322.34v11.1a4.76,4.76,0,0,1-2.17,3.75l-2,1.18a1.64,1.64,0,0,1-1.43.21l-.15-.09-.08-.05a1.63,1.63,0,0,1-.51-1.32V326a4.8,4.8,0,0,1,2.17-3.75l2-1.17a1.63,1.63,0,0,1,1.46-.2A1.51,1.51,0,0,1,430.16,322.34Z" style="fill:#fff;opacity:0.55"></path><path d="M429.45,320.89a1.63,1.63,0,0,0-1.46.2l-2,1.17a4.4,4.4,0,0,0-1.36,1.33L201.68,194.88a4.28,4.28,0,0,1,1.34-1.34l2-1.17a1.61,1.61,0,0,1,1.45-.2h0Z" style="fill:#BA68C8"></path><path d="M429.45,320.89a1.63,1.63,0,0,0-1.46.2l-2,1.17a4.4,4.4,0,0,0-1.36,1.33L201.68,194.88a4.28,4.28,0,0,1,1.34-1.34l2-1.17a1.61,1.61,0,0,1,1.45-.2h0Z" style="fill:#fff;opacity:0.8"></path><polygon points="114.58 257.17 205.77 204.93 205.77 256.26 114.58 308.92 114.58 257.17" style="opacity:0.2"></polygon><polygon points="159.39 334.88 257.96 277.53 213.5 251.86 114.58 309.01 159.39 334.88" style="opacity:0.2"></polygon><path d="M115.28,244.62l84.82-49h0a1.61,1.61,0,0,1,1.45.2l2,1.17a4.8,4.8,0,0,1,2.16,3.75v11.11a1.53,1.53,0,0,1-.64,1.41l-.09.05-84.61,48.84-.08.05-.15.09a1.64,1.64,0,0,1-1.43-.21l-2-1.18a4.79,4.79,0,0,1-2.17-3.75v-11.1A1.51,1.51,0,0,1,115.28,244.62Z" style="fill:#BA68C8"></path><path d="M115.28,244.62l84.82-49h0a1.61,1.61,0,0,1,1.45.2l2,1.17a4.8,4.8,0,0,1,2.16,3.75v11.11a1.53,1.53,0,0,1-.64,1.41l-.09.05-84.61,48.84-.08.05-.15.09a1.64,1.64,0,0,1-1.43-.21l-2-1.18a4.79,4.79,0,0,1-2.17-3.75v-11.1A1.51,1.51,0,0,1,115.28,244.62Z" style="fill:#fff;opacity:0.4"></path><path d="M114.57,246.07v11.1a4.79,4.79,0,0,0,2.17,3.75l2,1.18a1.64,1.64,0,0,0,1.43.21l.15-.09.08-.05a1.6,1.6,0,0,0,.51-1.32V249.74a4.77,4.77,0,0,0-2.17-3.75l-2-1.17a1.63,1.63,0,0,0-1.46-.2A1.51,1.51,0,0,0,114.57,246.07Z" style="fill:#BA68C8"></path><path d="M114.57,246.07v11.1a4.79,4.79,0,0,0,2.17,3.75l2,1.18a1.64,1.64,0,0,0,1.43.21l.15-.09.08-.05a1.6,1.6,0,0,0,.51-1.32V249.74a4.77,4.77,0,0,0-2.17-3.75l-2-1.17a1.63,1.63,0,0,0-1.46-.2A1.51,1.51,0,0,0,114.57,246.07Z" style="fill:#fff;opacity:0.55"></path><path d="M115.28,244.62a1.63,1.63,0,0,1,1.46.2l2,1.17a4.3,4.3,0,0,1,1.36,1.33l84.82-49a4.28,4.28,0,0,0-1.34-1.34l-2-1.17a1.61,1.61,0,0,0-1.45-.2h0Z" style="fill:#BA68C8"></path><path d="M115.28,244.62a1.63,1.63,0,0,1,1.46.2l2,1.17a4.3,4.3,0,0,1,1.36,1.33l84.82-49a4.28,4.28,0,0,0-1.34-1.34l-2-1.17a1.61,1.61,0,0,0-1.45-.2h0Z" style="fill:#fff;opacity:0.8"></path><path d="M122.49,248.77l84.82-49h0a1.61,1.61,0,0,1,1.45.2l2,1.17a4.8,4.8,0,0,1,2.16,3.75V216a1.53,1.53,0,0,1-.64,1.41l-.09,0-84.61,48.84-.08.05-.15.09a1.64,1.64,0,0,1-1.43-.21l-2-1.18a4.76,4.76,0,0,1-2.17-3.75v-11.1A1.51,1.51,0,0,1,122.49,248.77Z" style="fill:#BA68C8"></path><path d="M122.49,248.77l84.82-49h0a1.61,1.61,0,0,1,1.45.2l2,1.17a4.8,4.8,0,0,1,2.16,3.75V216a1.53,1.53,0,0,1-.64,1.41l-.09,0-84.61,48.84-.08.05-.15.09a1.64,1.64,0,0,1-1.43-.21l-2-1.18a4.76,4.76,0,0,1-2.17-3.75v-11.1A1.51,1.51,0,0,1,122.49,248.77Z" style="fill:#fff;opacity:0.4"></path><path d="M121.78,250.22v11.1a4.76,4.76,0,0,0,2.17,3.75l2,1.18a1.64,1.64,0,0,0,1.43.21l.15-.09.08-.05a1.63,1.63,0,0,0,.51-1.32V253.89a4.8,4.8,0,0,0-2.17-3.75L124,249a1.63,1.63,0,0,0-1.46-.2A1.51,1.51,0,0,0,121.78,250.22Z" style="fill:#BA68C8"></path><path d="M121.78,250.22v11.1a4.76,4.76,0,0,0,2.17,3.75l2,1.18a1.64,1.64,0,0,0,1.43.21l.15-.09.08-.05a1.63,1.63,0,0,0,.51-1.32V253.89a4.8,4.8,0,0,0-2.17-3.75L124,249a1.63,1.63,0,0,0-1.46-.2A1.51,1.51,0,0,0,121.78,250.22Z" style="fill:#fff;opacity:0.55"></path><path d="M122.49,248.77a1.63,1.63,0,0,1,1.46.2l2,1.17a4.4,4.4,0,0,1,1.36,1.33l84.82-49a4.28,4.28,0,0,0-1.34-1.34l-2-1.17a1.61,1.61,0,0,0-1.45-.2h0Z" style="fill:#BA68C8"></path><path d="M122.49,248.77a1.63,1.63,0,0,1,1.46.2l2,1.17a4.4,4.4,0,0,1,1.36,1.33l84.82-49a4.28,4.28,0,0,0-1.34-1.34l-2-1.17a1.61,1.61,0,0,0-1.45-.2h0Z" style="fill:#fff;opacity:0.8"></path><path d="M129.7,252.92l84.82-49h0a1.61,1.61,0,0,1,1.45.2l2,1.17a4.8,4.8,0,0,1,2.16,3.75v11.11a1.53,1.53,0,0,1-.64,1.41l-.09,0-84.61,48.84-.08,0-.15.09a1.64,1.64,0,0,1-1.43-.21l-2-1.18a4.76,4.76,0,0,1-2.17-3.75v-11.1A1.51,1.51,0,0,1,129.7,252.92Z" style="fill:#BA68C8"></path><path d="M129.7,252.92l84.82-49h0a1.61,1.61,0,0,1,1.45.2l2,1.17a4.8,4.8,0,0,1,2.16,3.75v11.11a1.53,1.53,0,0,1-.64,1.41l-.09,0-84.61,48.84-.08,0-.15.09a1.64,1.64,0,0,1-1.43-.21l-2-1.18a4.76,4.76,0,0,1-2.17-3.75v-11.1A1.51,1.51,0,0,1,129.7,252.92Z" style="fill:#fff;opacity:0.4"></path><path d="M129,254.37v11.1a4.76,4.76,0,0,0,2.17,3.75l2,1.18a1.64,1.64,0,0,0,1.43.21l.15-.09.08,0a1.63,1.63,0,0,0,.51-1.32V258a4.8,4.8,0,0,0-2.17-3.75l-2-1.17a1.63,1.63,0,0,0-1.46-.2A1.51,1.51,0,0,0,129,254.37Z" style="fill:#BA68C8"></path><path d="M129,254.37v11.1a4.76,4.76,0,0,0,2.17,3.75l2,1.18a1.64,1.64,0,0,0,1.43.21l.15-.09.08,0a1.63,1.63,0,0,0,.51-1.32V258a4.8,4.8,0,0,0-2.17-3.75l-2-1.17a1.63,1.63,0,0,0-1.46-.2A1.51,1.51,0,0,0,129,254.37Z" style="fill:#fff;opacity:0.55"></path><path d="M129.7,252.92a1.63,1.63,0,0,1,1.46.2l2,1.17a4.4,4.4,0,0,1,1.36,1.33l84.82-49a4.28,4.28,0,0,0-1.34-1.34l-2-1.17a1.61,1.61,0,0,0-1.45-.2h0Z" style="fill:#BA68C8"></path><path d="M129.7,252.92a1.63,1.63,0,0,1,1.46.2l2,1.17a4.4,4.4,0,0,1,1.36,1.33l84.82-49a4.28,4.28,0,0,0-1.34-1.34l-2-1.17a1.61,1.61,0,0,0-1.45-.2h0Z" style="fill:#fff;opacity:0.8"></path><path d="M136.91,257.07l84.82-49h0a1.61,1.61,0,0,1,1.45.2l2,1.17a4.8,4.8,0,0,1,2.16,3.75v11.11a1.53,1.53,0,0,1-.64,1.41l-.09.05-84.61,48.84-.08.05-.15.09a1.64,1.64,0,0,1-1.43-.21l-2-1.18a4.76,4.76,0,0,1-2.17-3.75v-11.1A1.51,1.51,0,0,1,136.91,257.07Z" style="fill:#BA68C8"></path><path d="M136.91,257.07l84.82-49h0a1.61,1.61,0,0,1,1.45.2l2,1.17a4.8,4.8,0,0,1,2.16,3.75v11.11a1.53,1.53,0,0,1-.64,1.41l-.09.05-84.61,48.84-.08.05-.15.09a1.64,1.64,0,0,1-1.43-.21l-2-1.18a4.76,4.76,0,0,1-2.17-3.75v-11.1A1.51,1.51,0,0,1,136.91,257.07Z" style="fill:#fff;opacity:0.4"></path><path d="M136.2,258.52v11.1a4.76,4.76,0,0,0,2.17,3.75l2,1.18a1.64,1.64,0,0,0,1.43.21l.15-.09.08-.05a1.63,1.63,0,0,0,.51-1.32V262.19a4.8,4.8,0,0,0-2.17-3.75l-2-1.17a1.63,1.63,0,0,0-1.46-.2A1.51,1.51,0,0,0,136.2,258.52Z" style="fill:#BA68C8"></path><path d="M136.2,258.52v11.1a4.76,4.76,0,0,0,2.17,3.75l2,1.18a1.64,1.64,0,0,0,1.43.21l.15-.09.08-.05a1.63,1.63,0,0,0,.51-1.32V262.19a4.8,4.8,0,0,0-2.17-3.75l-2-1.17a1.63,1.63,0,0,0-1.46-.2A1.51,1.51,0,0,0,136.2,258.52Z" style="fill:#fff;opacity:0.55"></path><path d="M136.91,257.07a1.63,1.63,0,0,1,1.46.2l2,1.17a4.4,4.4,0,0,1,1.36,1.33l84.82-49a4.28,4.28,0,0,0-1.34-1.34l-2-1.17a1.61,1.61,0,0,0-1.45-.2h0Z" style="fill:#BA68C8"></path><path d="M136.91,257.07a1.63,1.63,0,0,1,1.46.2l2,1.17a4.4,4.4,0,0,1,1.36,1.33l84.82-49a4.28,4.28,0,0,0-1.34-1.34l-2-1.17a1.61,1.61,0,0,0-1.45-.2h0Z" style="fill:#fff;opacity:0.8"></path><path d="M144.12,261.21l84.82-49h0a1.61,1.61,0,0,1,1.45.2l2,1.17a4.8,4.8,0,0,1,2.16,3.75v11.11a1.53,1.53,0,0,1-.64,1.41l-.09.05-84.61,48.83-.08.05-.15.09a1.64,1.64,0,0,1-1.43-.21l-2-1.18a4.76,4.76,0,0,1-2.17-3.75v-11.1A1.51,1.51,0,0,1,144.12,261.21Z" style="fill:#BA68C8"></path><path d="M144.12,261.21l84.82-49h0a1.61,1.61,0,0,1,1.45.2l2,1.17a4.8,4.8,0,0,1,2.16,3.75v11.11a1.53,1.53,0,0,1-.64,1.41l-.09.05-84.61,48.83-.08.05-.15.09a1.64,1.64,0,0,1-1.43-.21l-2-1.18a4.76,4.76,0,0,1-2.17-3.75v-11.1A1.51,1.51,0,0,1,144.12,261.21Z" style="fill:#fff;opacity:0.4"></path><path d="M143.41,262.66v11.1a4.76,4.76,0,0,0,2.17,3.75l2,1.18a1.64,1.64,0,0,0,1.43.21l.15-.09.08-.05a1.63,1.63,0,0,0,.51-1.32V266.33a4.8,4.8,0,0,0-2.17-3.75l-2-1.17a1.63,1.63,0,0,0-1.46-.2A1.51,1.51,0,0,0,143.41,262.66Z" style="fill:#BA68C8"></path><path d="M143.41,262.66v11.1a4.76,4.76,0,0,0,2.17,3.75l2,1.18a1.64,1.64,0,0,0,1.43.21l.15-.09.08-.05a1.63,1.63,0,0,0,.51-1.32V266.33a4.8,4.8,0,0,0-2.17-3.75l-2-1.17a1.63,1.63,0,0,0-1.46-.2A1.51,1.51,0,0,0,143.41,262.66Z" style="fill:#fff;opacity:0.55"></path><path d="M144.12,261.21a1.63,1.63,0,0,1,1.46.2l2,1.17a4.4,4.4,0,0,1,1.36,1.33l84.82-49a4.28,4.28,0,0,0-1.34-1.34l-2-1.17a1.61,1.61,0,0,0-1.45-.2h0Z" style="fill:#BA68C8"></path><path d="M144.12,261.21a1.63,1.63,0,0,1,1.46.2l2,1.17a4.4,4.4,0,0,1,1.36,1.33l84.82-49a4.28,4.28,0,0,0-1.34-1.34l-2-1.17a1.61,1.61,0,0,0-1.45-.2h0Z" style="fill:#fff;opacity:0.8"></path><path d="M151.33,265.36l84.82-49h0a1.61,1.61,0,0,1,1.45.2l2,1.17a4.8,4.8,0,0,1,2.16,3.75v11.11a1.53,1.53,0,0,1-.64,1.41l-.09.05-84.61,48.83-.08,0-.15.09a1.64,1.64,0,0,1-1.43-.21l-2-1.18a4.76,4.76,0,0,1-2.17-3.75v-11.1A1.51,1.51,0,0,1,151.33,265.36Z" style="fill:#BA68C8"></path><path d="M151.33,265.36l84.82-49h0a1.61,1.61,0,0,1,1.45.2l2,1.17a4.8,4.8,0,0,1,2.16,3.75v11.11a1.53,1.53,0,0,1-.64,1.41l-.09.05-84.61,48.83-.08,0-.15.09a1.64,1.64,0,0,1-1.43-.21l-2-1.18a4.76,4.76,0,0,1-2.17-3.75v-11.1A1.51,1.51,0,0,1,151.33,265.36Z" style="fill:#fff;opacity:0.4"></path><path d="M150.62,266.81v11.1a4.76,4.76,0,0,0,2.17,3.75l2,1.18a1.64,1.64,0,0,0,1.43.21l.15-.09.08,0a1.63,1.63,0,0,0,.51-1.32V270.48a4.8,4.8,0,0,0-2.17-3.75l-2-1.17a1.63,1.63,0,0,0-1.46-.2A1.51,1.51,0,0,0,150.62,266.81Z" style="fill:#BA68C8"></path><path d="M150.62,266.81v11.1a4.76,4.76,0,0,0,2.17,3.75l2,1.18a1.64,1.64,0,0,0,1.43.21l.15-.09.08,0a1.63,1.63,0,0,0,.51-1.32V270.48a4.8,4.8,0,0,0-2.17-3.75l-2-1.17a1.63,1.63,0,0,0-1.46-.2A1.51,1.51,0,0,0,150.62,266.81Z" style="fill:#fff;opacity:0.55"></path><path d="M151.33,265.36a1.63,1.63,0,0,1,1.46.2l2,1.17a4.4,4.4,0,0,1,1.36,1.33l84.82-49a4.28,4.28,0,0,0-1.34-1.34l-2-1.17a1.61,1.61,0,0,0-1.45-.2h0Z" style="fill:#BA68C8"></path><path d="M151.33,265.36a1.63,1.63,0,0,1,1.46.2l2,1.17a4.4,4.4,0,0,1,1.36,1.33l84.82-49a4.28,4.28,0,0,0-1.34-1.34l-2-1.17a1.61,1.61,0,0,0-1.45-.2h0Z" style="fill:#fff;opacity:0.8"></path><path d="M158.54,269.51l84.82-49h0a1.61,1.61,0,0,1,1.45.2l2,1.17a4.8,4.8,0,0,1,2.16,3.75v11.11a1.53,1.53,0,0,1-.64,1.41l-.09,0-84.61,48.83-.08.05-.15.09A1.64,1.64,0,0,1,162,287l-2-1.18a4.76,4.76,0,0,1-2.17-3.75V271A1.51,1.51,0,0,1,158.54,269.51Z" style="fill:#BA68C8"></path><path d="M158.54,269.51l84.82-49h0a1.61,1.61,0,0,1,1.45.2l2,1.17a4.8,4.8,0,0,1,2.16,3.75v11.11a1.53,1.53,0,0,1-.64,1.41l-.09,0-84.61,48.83-.08.05-.15.09A1.64,1.64,0,0,1,162,287l-2-1.18a4.76,4.76,0,0,1-2.17-3.75V271A1.51,1.51,0,0,1,158.54,269.51Z" style="fill:#fff;opacity:0.7000000000000001"></path><path d="M157.83,271v11.1a4.76,4.76,0,0,0,2.17,3.75l2,1.18a1.64,1.64,0,0,0,1.43.21l.15-.09.08-.05a1.63,1.63,0,0,0,.51-1.32V274.63a4.8,4.8,0,0,0-2.17-3.75l-2-1.17a1.63,1.63,0,0,0-1.46-.2A1.51,1.51,0,0,0,157.83,271Z" style="fill:#BA68C8"></path><path d="M157.83,271v11.1a4.76,4.76,0,0,0,2.17,3.75l2,1.18a1.64,1.64,0,0,0,1.43.21l.15-.09.08-.05a1.63,1.63,0,0,0,.51-1.32V274.63a4.8,4.8,0,0,0-2.17-3.75l-2-1.17a1.63,1.63,0,0,0-1.46-.2A1.51,1.51,0,0,0,157.83,271Z" style="fill:#fff;opacity:0.55"></path><path d="M158.54,269.51a1.63,1.63,0,0,1,1.46.2l2,1.17a4.4,4.4,0,0,1,1.36,1.33l84.82-49a4.28,4.28,0,0,0-1.34-1.34l-2-1.17a1.61,1.61,0,0,0-1.45-.2h0Z" style="fill:#BA68C8"></path><path d="M158.54,269.51a1.63,1.63,0,0,1,1.46.2l2,1.17a4.4,4.4,0,0,1,1.36,1.33l84.82-49a4.28,4.28,0,0,0-1.34-1.34l-2-1.17a1.61,1.61,0,0,0-1.45-.2h0Z" style="fill:#fff;opacity:0.8"></path></g></g><g id="freepik--Door--inject-33"><g id="freepik--Window--inject-33"><g id="freepik--Frame--inject-33"><polygon points="102.58 315.85 39.98 351.97 39.98 170.41 102.58 134.3 102.58 315.85" style="fill:#fff"></polygon><polygon points="36.51 168.41 36.51 356.14 39.98 354.13 39.98 170.41 104.42 133.22 104.42 316.94 107.89 314.94 107.89 127.2 36.51 168.41" style="fill:#f0f0f0"></polygon><polygon points="104.42 316.94 102.58 315.85 102.58 134.3 104.42 133.22 104.42 316.94" style="fill:#e0e0e0"></polygon><polygon points="39.98 274.65 39.98 276.8 104.42 239.61 102.58 238.52 39.98 274.65" style="fill:#fafafa"></polygon><polygon points="39.98 220.82 39.98 222.97 104.42 185.78 102.58 184.69 39.98 220.82" style="fill:#fafafa"></polygon><polygon points="107.89 127.2 106.02 126.14 34.64 167.34 36.51 168.41 107.89 127.2" style="fill:#fafafa"></polygon><polygon points="34.64 167.34 36.51 168.41 36.51 356.14 34.64 355.07 34.64 167.34" style="fill:#e0e0e0"></polygon><polygon points="68.61 153.89 70.48 152.81 70.48 336.54 68.61 335.47 68.61 153.89" style="fill:#e0e0e0"></polygon></g><polygon points="73.95 150.82 70.48 152.81 70.48 336.54 73.95 334.53 73.95 150.82" style="fill:#f0f0f0"></polygon><polygon points="107.89 183.78 107.89 187.78 36.51 228.98 36.51 224.98 107.89 183.78" style="fill:#f0f0f0"></polygon><polygon points="107.89 237.6 107.89 241.6 36.51 282.8 36.51 278.8 107.89 237.6" style="fill:#f0f0f0"></polygon><polygon points="70.48 205.38 68.61 204.3 39.98 220.82 39.98 222.97 70.48 205.38" style="fill:#fafafa"></polygon><polygon points="70.48 259.19 68.61 258.11 39.98 274.62 39.98 276.78 70.48 259.19" style="fill:#fafafa"></polygon></g></g><g id="freepik--Valve--inject-33"><path d="M113.73,132c0-5.74,4-12.71,9-15.57,2.5-1.43,4.74-1.55,6.37-.61l2.66,1.54c1.62.93,2.63,2.94,2.62,5.8,0,5.73-4.07,12.7-9,15.57-2.48,1.43-4.72,1.57-6.35.62l-2.69-1.55C114.72,136.8,113.73,134.8,113.73,132Z" style="fill:#37474f"></path><path d="M125.37,138.68c-5,2.87-9,.54-9-5.2s4-12.71,9-15.57,9-.53,9,5.2S130.35,135.81,125.37,138.68Z" style="fill:#455a64"></path><path d="M125.38,136.49c-3.93,2.27-7.11.43-7.11-4.1a15.66,15.66,0,0,1,7.14-12.29c3.94-2.26,7.12-.42,7.11,4.1A15.77,15.77,0,0,1,125.38,136.49Z" style="fill:#fafafa"></path><polygon points="125.95 128.27 125.39 121.23 124.84 128.27 125.95 128.27" style="fill:#BA68C8"></polygon><path d="M125.39,129.67c-.65.37-1.18.07-1.18-.69a2.62,2.62,0,0,1,1.19-2c.65-.37,1.18-.07,1.18.69A2.62,2.62,0,0,1,125.39,129.67Z" style="fill:#455a64"></path></g></g></g><g id="freepik--Towels--inject-33"><g id="freepik--towels--inject-33"><polygon id="freepik--Shadow--inject-33" points="195.99 250.07 234.66 227.76 198.35 206.8 159.72 229.12 195.99 250.07" style="opacity:0.2"></polygon><path d="M163.62,223.49V228a2,2,0,0,0,1,1.73l30.16,17.41a1.91,1.91,0,0,0,1.92.21l34.51-19.93a1.66,1.66,0,0,0,.71-1.53,5.63,5.63,0,0,0-2.63-4.36l-31.16-18Z" style="fill:#e6e6e6"></path><path d="M194.78,241.48l-31.16-18V228a2,2,0,0,0,1,1.73l30.16,17.41c1.45.84,2.63.24,2.63-1.33A5.64,5.64,0,0,0,194.78,241.48Z" style="opacity:0.2"></path><path d="M193.24,242.49a1.87,1.87,0,0,1,.88,1.46c0,.52-.39.72-.88.44l-29.62-17.11v-1.89Z" style="opacity:0.2"></path><path d="M163.62,217.32v4.54a2,2,0,0,0,1,1.73L194.78,241a1.91,1.91,0,0,0,1.92.21l34.51-19.93a1.66,1.66,0,0,0,.71-1.53,5.66,5.66,0,0,0-2.63-4.37l-31.16-18Z" style="fill:#f0f0f0"></path><path d="M194.78,235.31l-31.16-18v4.54a2,2,0,0,0,1,1.73L194.78,241c1.45.84,2.63.24,2.63-1.33A5.64,5.64,0,0,0,194.78,235.31Z" style="opacity:0.2"></path><path d="M193.24,236.32a1.87,1.87,0,0,1,.88,1.45c0,.53-.39.73-.88.45l-29.62-17.11v-1.89Z" style="opacity:0.2"></path><path d="M163.62,210.76v4.54a2,2,0,0,0,1,1.73l30.16,17.41a1.94,1.94,0,0,0,1.92.21l34.51-19.93a1.66,1.66,0,0,0,.71-1.53,5.66,5.66,0,0,0-2.63-4.37l-31.16-18Z" style="fill:#fafafa"></path><path d="M194.78,228.75l-31.16-18v4.54a2,2,0,0,0,1,1.73l30.16,17.41c1.45.84,2.63.24,2.63-1.33A5.64,5.64,0,0,0,194.78,228.75Z" style="opacity:0.2"></path><path d="M193.24,229.76a1.87,1.87,0,0,1,.88,1.45c0,.53-.39.73-.88.45l-29.62-17.11v-1.9Z" style="opacity:0.2"></path></g></g><g id="freepik--Bucket--inject-33"><g id="freepik--bucket--inject-33"><ellipse cx="156.99" cy="249.58" rx="20.65" ry="11.92" style="opacity:0.2"></ellipse><path d="M173.53,248.34v0l4-27.24H136.42l4,27.24v0h0c.37,2.14,2,4.21,4.79,5.84,6.49,3.75,17,3.75,23.5,0,2.83-1.63,4.42-3.7,4.79-5.84h0Z" style="fill:#37474f"></path><path d="M143.15,213.1l1.06-.57-.79-1.44c-.35.18-.7.35-1,.54l0,0Z" style="fill:#263238"></path><path d="M157.59,208.16h-1.2v1.66h1.2Z" style="fill:#263238"></path><path d="M149.35,210.67l1.17-.23-.32-1.62c-.39.08-.79.15-1.17.25Z" style="fill:#263238"></path><path d="M173.53,248.35h0v0l4-27.07v-.17h0c0-.2,0-.4,0-.6h-1.78v1.2h1.06l-4.3,29.09A6.44,6.44,0,0,0,173.53,248.35Z" style="fill:#263238"></path><path d="M168.8,228.07l.82,1.28-2.8,25.78c.44-.19.86-.39,1.27-.6l2.74-25.26,0-.21-1.05-1.63Z" style="fill:#263238"></path><path d="M165,209.07c-.38-.1-.78-.17-1.17-.25l-.32,1.62,1.17.23Z" style="fill:#263238"></path><path d="M171.59,211.63c-.33-.19-.69-.36-1-.54l-.79,1.44,1,.57.8-1.45Z" style="fill:#263238"></path><path d="M137.11,221.66h1.06v-1.2h-1.78c0,.2,0,.4,0,.6h0v.16l4,27.08v0h0a6.44,6.44,0,0,0,1,2.4Z" style="fill:#263238"></path><path d="M162.78,256.39l1.51-25v-.09l-.39-1.71-1.17.27.36,1.54-1.52,25.24C162,256.56,162.38,256.48,162.78,256.39Z" style="fill:#263238"></path><path d="M147.15,255.13l-2.79-25.78.82-1.28-1-.64-1,1.63,2.77,25.47Q146.51,254.85,147.15,255.13Z" style="fill:#263238"></path><path d="M150.89,231.39l.36-1.54-1.17-.27-.39,1.71,1.51,25.1c.4.09.8.17,1.21.24Z" style="fill:#263238"></path><path d="M157.59,257V230.31h-1.2V257Z" style="fill:#263238"></path><ellipse cx="156.99" cy="220.06" rx="20.65" ry="11.92" style="fill:#455a64"></ellipse><ellipse cx="156.99" cy="220.06" rx="20.65" ry="11.92" style="fill:#455a64"></ellipse><ellipse cx="156.99" cy="220.06" rx="18.82" ry="10.25" style="fill:#37474f"></ellipse><path d="M170.3,219.38c-7.35-4-19.27-4-26.62,0a11.72,11.72,0,0,0-4.5,4,11.74,11.74,0,0,0,4.5,4c7.35,4,19.27,4,26.62,0a11.74,11.74,0,0,0,4.5-4A11.72,11.72,0,0,0,170.3,219.38Z" style="fill:#BA68C8"></path><path d="M170.3,219.38c-7.35-4-19.27-4-26.62,0a11.72,11.72,0,0,0-4.5,4,11.74,11.74,0,0,0,4.5,4c7.35,4,19.27,4,26.62,0a11.74,11.74,0,0,0,4.5-4A11.72,11.72,0,0,0,170.3,219.38Z" style="fill:#fff;opacity:0.45"></path><path d="M162.07,229.92a7.07,7.07,0,0,0-3.21-1.15c-1-.07-2.06.16-3.09.14a3,3,0,0,1-2.65-1.3,6.45,6.45,0,0,0-.31-.58c-.68-.91-2.51-.35-3.48-.38a9,9,0,0,1-3-.65,1.56,1.56,0,0,1-.87-.67c-.31-.63.25-1.36.87-1.69,1.23-.66,2.72-.56,4.08-.91a1.22,1.22,0,0,0,.54-.25,1,1,0,0,0,0-1.24c-.26-.37-.65-.62-.93-1a.34.34,0,0,1-.12-.28.43.43,0,0,1,.18-.26,4.54,4.54,0,0,1,3.11-.69,23.56,23.56,0,0,0,3.24.25,3.33,3.33,0,0,0,2.77-1.44,9,9,0,0,1,.56-1.06,1.79,1.79,0,0,1,.28-.27c-5.76-.5-11.86.44-16.3,2.86a11.72,11.72,0,0,0-4.5,4,11.74,11.74,0,0,0,4.5,4C148.66,230,155.74,230.89,162.07,229.92Z" style="fill:#fff;opacity:0.45"></path><path d="M149.35,210.67l1.17-.23-.32-1.62c-.39.08-.79.15-1.17.25Z" style="fill:#37474f"></path><path d="M156.39,208.16v1.66h1.2v-1.66Z" style="fill:#37474f"></path><path d="M170.3,212.82h0l.52.28.8-1.45,0,0c-.33-.19-.69-.36-1-.54l-.79,1.44Z" style="fill:#37474f"></path><path d="M163.46,210.44l1.17.23.32-1.6c-.38-.1-.78-.17-1.17-.25Z" style="fill:#37474f"></path><path d="M143.15,213.1l1.06-.57-.79-1.44c-.35.18-.7.35-1,.54l0,0Z" style="fill:#37474f"></path><path d="M137.44,223.86l-.33-2.2h1.29l-.23-1.2h-1.79A7.54,7.54,0,0,0,137.44,223.86Z" style="fill:#37474f"></path><path d="M144.37,229.49v-.14l.82-1.28L145,228c-.3-.13-.59-.28-.88-.43l-.9,1.4C143.59,229.12,144,229.31,144.37,229.49Z" style="fill:#37474f"></path><path d="M170.77,228.92l-.9-1.4c-.29.15-.58.3-.88.43l-.19.12.82,1.28v.14C170,229.31,170.39,229.12,170.77,228.92Z" style="fill:#37474f"></path><path d="M177.6,220.46h-1.79l-.23,1.2h1.29l-.33,2.2A7.54,7.54,0,0,0,177.6,220.46Z" style="fill:#37474f"></path><path d="M150.89,231.39l.36-1.54-.91-.21-.26,0-.38,1.62c.4.08.79.17,1.2.24Z" style="fill:#37474f"></path><path d="M157.59,232v-1.66h-1.2V232Z" style="fill:#37474f"></path><path d="M164.28,231.21l-.38-1.62-.27,0-.9.21.36,1.54v.06Z" style="fill:#37474f"></path><path d="M171.05,233.8c-7.76,4.49-20.35,4.49-28.13,0-3-1.76-4.88-3.94-5.54-6.22l.77,5.22a12.8,12.8,0,0,0,4.77,4.46c7.78,4.48,20.37,4.48,28.13,0a12.74,12.74,0,0,0,4.78-4.45l.77-5.21C175.92,229.87,174.08,232.05,171.05,233.8Z" style="fill:#BA68C8"></path><path d="M170.14,244.14c-7.26,4.18-19,4.18-26.3,0a11.55,11.55,0,0,1-4.69-4.58l.55,3.72a12.1,12.1,0,0,0,4.31,3.95c7.16,4.13,18.79,4.13,26,0a12.08,12.08,0,0,0,4.31-3.94l.55-3.73A11.67,11.67,0,0,1,170.14,244.14Z" style="fill:#BA68C8"></path><path d="M160.83,238.86a.49.49,0,1,1-.49-.49A.49.49,0,0,1,160.83,238.86Z" style="fill:#37474f"></path><circle cx="154.02" cy="238.86" r="0.49" style="fill:#37474f"></circle><path d="M147.74,237.41a.49.49,0,0,1-1,0,.49.49,0,1,1,1,0Z" style="fill:#37474f"></path><path d="M141.3,234.11a.49.49,0,0,1-1,0,.49.49,0,0,1,1,0Z" style="fill:#37474f"></path><path d="M166.12,237.41a.47.47,0,0,0,.48.48.48.48,0,0,0,.49-.48.49.49,0,0,0-.49-.49A.48.48,0,0,0,166.12,237.41Z" style="fill:#37474f"></path><path d="M172.56,234.11a.49.49,0,0,0,.49.49.48.48,0,0,0,.48-.49.47.47,0,0,0-.48-.48A.48.48,0,0,0,172.56,234.11Z" style="fill:#37474f"></path><circle cx="160.14" cy="248.91" r="0.46" style="fill:#37474f"></circle><circle cx="154.19" cy="248.91" r="0.46" style="fill:#37474f"></circle><circle cx="147.82" cy="247.55" r="0.46" style="fill:#37474f"></circle><circle cx="141.75" cy="244.44" r="0.46" style="fill:#37474f"></circle><circle cx="166.04" cy="247.55" r="0.46" style="fill:#37474f"></circle><path d="M171.65,244.44a.46.46,0,1,0,.91,0,.46.46,0,1,0-.91,0Z" style="fill:#37474f"></path></g></g><g id="freepik--Shelf--inject-33"><g id="freepik--shelf--inject-33"><g id="freepik--shelf--inject-33"><polygon points="280.87 64.2 323.12 88.6 300.37 101.73 258.12 77.34 280.87 64.2" style="fill:#455a64"></polygon><polygon points="258.12 77.34 258.12 79.59 300.37 103.99 300.37 101.73 258.12 77.34" style="fill:#263238"></polygon><polygon points="323.12 88.6 300.37 101.73 300.37 103.99 323.12 90.85 323.12 88.6" style="fill:#37474f"></polygon></g><g id="freepik--towels--inject-33"><polygon id="freepik--shadow--inject-33" points="293.55 96.68 267.55 81.68 289.03 69.27 315.01 84.28 293.55 96.68" style="opacity:0.4"></polygon><path d="M312.39,80.49v3.05a1.33,1.33,0,0,1-.67,1.16l-17.36,10a1.29,1.29,0,0,1-1.29.14l-23.21-13.4a1.13,1.13,0,0,1-.47-1,3.81,3.81,0,0,1,1.76-2.94l18-10.41Z" style="fill:#e6e6e6"></path><path d="M294.36,90.9l18-10.41v3.05a1.33,1.33,0,0,1-.67,1.16l-17.36,10c-1,.56-1.76.16-1.76-.89A3.81,3.81,0,0,1,294.36,90.9Z" style="opacity:0.2"></path><path d="M295.4,91.58a1.26,1.26,0,0,0-.59,1c0,.35.26.49.59.3l17-9.82V81.76Z" style="opacity:0.2"></path><path d="M312.39,76.34v3a1.33,1.33,0,0,1-.67,1.16l-17.36,10a1.29,1.29,0,0,1-1.29.14l-23.21-13.4a1.14,1.14,0,0,1-.47-1,3.81,3.81,0,0,1,1.76-2.94l18-10.41Z" style="fill:#f0f0f0"></path><path d="M294.36,86.75l18-10.41v3a1.33,1.33,0,0,1-.67,1.16l-17.36,10c-1,.56-1.76.16-1.76-.89A3.81,3.81,0,0,1,294.36,86.75Z" style="opacity:0.2"></path><path d="M295.4,87.43a1.26,1.26,0,0,0-.59,1c0,.35.26.49.59.3l17-9.82V77.61Z" style="opacity:0.2"></path><path d="M312.39,71.92V75a1.33,1.33,0,0,1-.67,1.16l-17.36,10a1.32,1.32,0,0,1-1.29.14L269.86,72.9a1.12,1.12,0,0,1-.47-1,3.8,3.8,0,0,1,1.76-2.93l18-10.42Z" style="fill:#fafafa"></path><path d="M294.36,82.34l18-10.42V75a1.33,1.33,0,0,1-.67,1.16l-17.36,10c-1,.56-1.76.16-1.76-.9A3.8,3.8,0,0,1,294.36,82.34Z" style="opacity:0.2"></path><path d="M295.4,83a1.26,1.26,0,0,0-.59,1c0,.35.26.48.59.3l17-9.82V73.2Z" style="opacity:0.2"></path></g></g></g><g id="freepik--character-2--inject-33"><g id="freepik--Character--inject-33"><g id="freepik--Bottom--inject-33"><path d="M415.82,246.65c-1.47,8-1.22,21.35-6.78,27.73a91.94,91.94,0,0,1-25.67,20.34s.42,4.57-2.21,13.38c-2.34,7.85-3.65,12.5-4.41,15.61-1,4.05,1.72,9,1.46,11.23a5.23,5.23,0,0,1-2.12,3.88c-2.5,1.59-4.8,2.19-6.13,4.56-3,5.39-5,7.92-10,8.88-2.22.43-8.13.68-10.09-1.89-1.23-1.6,1.52-3.85,3.85-6.33a84.8,84.8,0,0,0,6.91-9c2.32-3.2,3.94-8.95,4-15.07.14-10.36.32-22.13.33-28.11,0-6.66.06-9.24,4-13.86,4.83-5.61,15.22-15.9,15.22-15.9s-8.9-5.93-8.28-16.45C392.41,234.47,406.62,231.06,415.82,246.65Z" style="fill:#9e6767"></path><path d="M390.1,262.74C370.05,271.65,352.89,278,352.89,278s.57,4.56-1.79,13.45c-2.09,7.92-3.26,12.61-3.92,15.74-.85,4.07,2,8.91,1.81,11.17a5.21,5.21,0,0,1-2,3.95c-2.45,1.67-4.73,2.34-6,4.75-2.86,5.49-4.77,8.08-9.74,9.19-2.2.5-8.1.93-10.15-1.57-1.27-1.56,1.41-3.9,3.65-6.45a86.61,86.61,0,0,0,6.64-9.17c2.21-3.28,3.65-9.07,3.54-15.19-.19-10.36-.37-22.13-.55-28.1-.2-6.66-.23-9.25,3.6-14C342.65,256,373.91,242,373.91,242S406.8,255.32,390.1,262.74Z" style="fill:#9e6767"></path><path d="M373.91,242c1.82,4.91,17.3,17.81,41.25,9.38l.2-.75s.81-.26.46,2.91-.32,11.16-2.41,15.62a57.33,57.33,0,0,1-8.69,13c-3.53,4-19.33,13.15-19.92,14.81s-1.53,5.87-1.53,5.87a72.2,72.2,0,0,1-24.57-3.43c-13.15-4.24-24.6-16.29-24.6-16.29a135,135,0,0,1,0-14.3c.48-4.81,2.14-7.55,7.7-11.3C354.45,249,373.91,242,373.91,242Z" style="fill:#f5f5f5"></path><path d="M407.31,253.44c.1,7.46-.41,11.7-12.9,22.59-13.39,11.67-18.9,17.48-18.28,26.68l1,.06c-.64-8.84,4.75-14.51,17.94-26,12.93-11.27,13.36-15.64,13.24-23.5C408,253.33,407.64,253.39,407.31,253.44Z" style="fill:#e0e0e0"></path></g><g id="freepik--Top--inject-33"><path id="freepik--Arm--inject-33" d="M355.57,230.57a47.35,47.35,0,0,1-5.23,1.54c-1,.19-1.13.41-2.93.73a13.9,13.9,0,0,0-3,.62,7,7,0,0,1-1.72.62,7,7,0,0,0-1.77.16,4.25,4.25,0,0,0-1.58,1,9.6,9.6,0,0,1-2.19,1.44c-1.83-.07-2.25.83-1.55,1.65a5.78,5.78,0,0,0,3.67,1.4,32.31,32.31,0,0,0,8.84,0c1.15-.16,2.81-.6,3.75.33s-1,1.18-1.63,1.32a6.21,6.21,0,0,0-2.49,1c-1.9,1.22-1.63,3.71.75,2.81,1.59-.61,2.17-.4,3.83-.67a15.23,15.23,0,0,0,6.8-2.84,13.94,13.94,0,0,0,3.35-3.43c1.42-2.08,8-6.91,9.44-7.85a34.45,34.45,0,0,0,7-5.54l9.49-32.18a11.81,11.81,0,0,0-5.13,1c-4.61,2.27-6.29,5.91-8.83,11.26-2.75,5.8-6.42,14.45-6.42,14.45S357.17,230.05,355.57,230.57Z" style="fill:#9e6767"></path><g id="freepik--Chest--inject-33"><path d="M418.51,212.91c-.6-11-3-13.56-3-13.56-.87-.37-3.52-1.59-6.49-2.83-6.17-2.57-13.24-3.35-20.56-3.88,0,0-8.17,3.43-10.68,16.7-1.18,6.28-.89,9.55.57,12.21-1.19,1.15-5.83,10.26-4.43,20.43,7.37,13.85,28.93,15.91,41,10.54,1.06-3.66,2.36-13.09,2.74-21.66C417.92,224.24,419,221.45,418.51,212.91Z" style="fill:#9e6767"></path><path d="M388.15,194.65a12.4,12.4,0,0,0-6,4.7,22.61,22.61,0,0,0-3.21,7,34.41,34.41,0,0,0-.84,3.78c-.22,1.28-.4,2.56-.5,3.85a13,13,0,0,0,1.14,7.37l.15.28-.23.27a10.92,10.92,0,0,0-1.33,2.13c-.38.78-.74,1.58-1.05,2.4a35.08,35.08,0,0,0-2.39,10.26,33.63,33.63,0,0,0,0,5.31,29.45,29.45,0,0,1,.15-10.67,34.85,34.85,0,0,1,1.44-5.2c.31-.84.67-1.67,1.05-2.49a11.46,11.46,0,0,1,1.48-2.4l-.09.55a13.46,13.46,0,0,1-1.29-7.89,41.31,41.31,0,0,1,1.46-7.79,21,21,0,0,1,3.58-7.08,13.42,13.42,0,0,1,2.88-2.75A9.49,9.49,0,0,1,388.15,194.65Z" style="fill:#874c4c"></path><path d="M392.71,193a6.06,6.06,0,0,1-.73-.09c-.3,1.73-.9,2.35-2,2.67C391.16,195.56,392.64,195.23,392.71,193Z" style="fill:#874c4c"></path><path d="M417.63,230.86c.26-5.89,1.12-8.76,1-15.35l-7.15-1.45a24.37,24.37,0,0,0,1.45,9l3.38,22.13C416.89,240.94,417.41,235.76,417.63,230.86Z" style="fill:#874c4c"></path><path d="M407.18,229c-1.92,1-5,.77-6.81.34a19.89,19.89,0,0,1-6-2.72,18.83,18.83,0,0,0-1.83-1.06c-1.54-.71-2.55-.35-3.89-.34a15.47,15.47,0,0,1-6.35-1.44,5.64,5.64,0,0,1-2.79-2.23c4.25,2.77,7,2.33,8,2.34a5.14,5.14,0,0,0,2.05-.42,1.84,1.84,0,0,0,.9-1.43c.09-.59.16-1.37.19-2,.07-1.74.57-4.3,1.31-3.4a.56.56,0,0,1,.11.32c.18,1.51-.27,4.16.44,6s2.66,3,4.74,3.86a21.93,21.93,0,0,0,6.67,1.84C406.24,228.9,408.41,228.33,407.18,229Z" style="fill:#874c4c;opacity:0.5"></path><path d="M397.25,203.2c1.9-1.06,7.44-1,9.61-1.13s2.13.72-1.47,1.09c-3.29.34-6.33.23-8.13,1.27-1.6.93-2.26,1.72-2.41,1.16S396.12,203.83,397.25,203.2Z" style="fill:#874c4c"></path><path d="M391.07,202.17c.48.54,1.51,2.61,1.06,2.8s-.92-1.39-2.27-2.57-3.51-2.56-4.15-3.08-1.23-1.66,1-.23A34.69,34.69,0,0,1,391.07,202.17Z" style="fill:#874c4c"></path><path d="M388,240.48c.09-.11.2-.2.29-.3a.54.54,0,0,0,.07-.49c-.06-.14-.22-.38-.41-.3l-.09,0-.09.05a1.88,1.88,0,0,0-.23.16,3.27,3.27,0,0,0-.35.3,3.21,3.21,0,0,0-.48.79c-.3.7-.48,1.79.18,2.34,0,0,.13.08.19.05.31-.14.29-.49.27-.77v0s0-.06,0-.09,0-.15,0-.23l0-.24,0-.06v-.07l.09-.25h0a3,3,0,0,1,.22.28c.18.27.28.59.44.87s.21,0,.22-.1a1.59,1.59,0,0,0-.22-.92,3.54,3.54,0,0,0-.44-.65h0C387.81,240.72,387.9,240.6,388,240.48Z" style="fill:#874c4c"></path></g><path id="freepik--arm--inject-33" d="M434.2,263.36a6.6,6.6,0,0,0,2.25,1.56,9.19,9.19,0,0,0,3,.57,14.75,14.75,0,0,1,3,.47,7,7,0,0,0,1.76.54,7,7,0,0,1,1.77.06,4.47,4.47,0,0,1,1.63.92,9.72,9.72,0,0,0,2.26,1.32c1.83-.15,2.3.72,1.63,1.58a5.81,5.81,0,0,1-3.59,1.59,32.7,32.7,0,0,1-8.83.45c-1.15-.1-2.84-.46-3.72.52s1.09,1.13,1.69,1.23a6.24,6.24,0,0,1,2.54.84c2,1.12,1.81,3.62-.61,2.84-1.62-.53-2.18-.29-3.86-.48a10.58,10.58,0,0,1-5-1.41,15.07,15.07,0,0,1-1.67-1.53c-.7-.67-1.77-1.21-2.22-2.07a9.69,9.69,0,0,1-1-4c0-.8-1.36-4.57-1.76-5.88s-.85-2.66-1.3-4c-1-2.84-2-5.66-2.93-8.5a40.29,40.29,0,0,1-1.85-6.89c-.74-5.17-3.63-20.58-3.63-20.58s-7.16-17.28,1.71-23.19c10.29,3.64,10.35,7.52,11.76,20.33s3,22.37,3,22.37c.32,1.91.67,3.81,1,5.73.57,3.85,1,7.73,1.82,11.56A13.53,13.53,0,0,0,434.2,263.36Z" style="fill:#9e6767"></path><g id="freepik--top--inject-33"><g id="freepik--chest--inject-33"><path d="M385.38,170.93c-1.44-1.89-2.67-6.3.1-7.48-1.08-1.51-.48-5.2,1.88-3.77-1.88-7.86,2.32-3.08,6.38-2.68,6.65-.22,17,.1,18.11,8.36,8.75,5.73-4.79,19.24-5.26,23.83C399.6,183,392.1,177.37,385.38,170.93Z" style="fill:#263238"></path><path d="M384.75,184c.58,2.82,1.28,4,3.59,5.4,1.34.83,4.57,1.05,4.57,1.05l-.29,3.72c-4.83,5.77,21.35,4.7,19.4,3.63-4.68-2.58-5.19-3.71-5.1-6,.09-2.62.27-8,.27-8s1.46,1.89,4.2.4a5.61,5.61,0,0,0,2.29-6.77c-1.09-2.8-3.78-1.87-4.64-1.11s-1.9,2.24-2.55,2a2.4,2.4,0,0,1-1.49-1.74,14.17,14.17,0,0,1-.46-5.3,5.94,5.94,0,0,1-1.74-1.56,5.88,5.88,0,0,1-1-4.12c-5.48-2.15-11.67-2.79-14.14-1.18-1.77,2.55-2.7,6-3.19,11A29.24,29.24,0,0,0,384.75,184Z" style="fill:#9e6767"></path><path d="M392.91,190.46c2.89,0,6.37.1,9.68-2,1.87-1.18,3.6-5.3,3.6-5.3s-.91,3.94-2.23,5.65-4.33,2.73-6.18,3a42.59,42.59,0,0,1-5,.37Z" style="fill:#874c4c"></path><path d="M396,174.69c-.14.65.53-.22,1.18-.08s1,1.22,1.15.56a1.19,1.19,0,0,0-.91-1.43A1.21,1.21,0,0,0,396,174.69Z" style="fill:#263238"></path><path d="M386.89,170.61l2.8-.85a1.39,1.39,0,0,0-1.77-1A1.53,1.53,0,0,0,386.89,170.61Z" style="fill:#263238"></path><path d="M397.42,170.53l2.45,1.59a1.38,1.38,0,0,0-.37-2A1.54,1.54,0,0,0,397.42,170.53Z" style="fill:#263238"></path><path d="M387.18,173.62c-.05.67.49-.13,1.15-.08s1.17.92,1.22.25a1.19,1.19,0,1,0-2.37-.17Z" style="fill:#263238"></path><path d="M393.63,172.35l-1.37,7.73-4.14-1.57C389.71,175.29,391.47,172.88,393.63,172.35Z" style="fill:#874c4c"></path><path d="M395.38,181.66a2.09,2.09,0,0,1-1.36,2.65,2.13,2.13,0,0,1-2.68-1.35Z" style="fill:#874c4c"></path><path d="M395,182.76a2,2,0,0,0-2.17,1.57,2.12,2.12,0,0,0,2.63-1.48A1.79,1.79,0,0,0,395,182.76Z" style="fill:#f28f8f"></path></g></g></g><g id="freepik--Sweat--inject-33"><path d="M403,173.33a4.15,4.15,0,0,0-.2-.77c0-.05-.07-.11-.11-.08a.09.09,0,0,0,0,.06q-.09.35-.15.69a1.51,1.51,0,0,0-.07.55c.1.38.5.34.57,0A1.19,1.19,0,0,0,403,173.33Z" style="fill:#fafafa"></path><path d="M404.1,170.68a3.78,3.78,0,0,0-.2-.77s-.07-.11-.11-.08,0,0,0,0c-.06.23-.1.47-.15.7a1.28,1.28,0,0,0-.06.55c.1.38.49.33.56,0A1,1,0,0,0,404.1,170.68Z" style="fill:#fafafa"></path><path d="M373.18,212.76a4.22,4.22,0,0,0,.07-.79c0-.06,0-.13-.08-.11s0,0-.05,0c-.13.19-.25.4-.37.6a1.18,1.18,0,0,0-.25.5c0,.38.34.48.54.16A1.36,1.36,0,0,0,373.18,212.76Z" style="fill:#fafafa"></path><path d="M427,228.94a4,4,0,0,0-.37-.71s-.09-.09-.12,0a.07.07,0,0,0,0,.06c0,.24,0,.48,0,.71a1.44,1.44,0,0,0,.06.55c.18.35.55.22.55-.15A1.45,1.45,0,0,0,427,228.94Z" style="fill:#fafafa"></path><path d="M426.11,232.16a3.94,3.94,0,0,0-.34-.72c0-.05-.08-.1-.12-.06s0,0,0,.06l0,.71a1.46,1.46,0,0,0,0,.55c.16.36.54.25.56-.13A1.49,1.49,0,0,0,426.11,232.16Z" style="fill:#fafafa"></path></g></g></g><g id="freepik--Character1--inject-33"><g id="freepik--character--inject-33"><path d="M294.21,202.31c-10.36,2.4-31.73,12.1-36.43,16s-6.87,9.57-4.21,13.84,4.52,6,12.84,10.32,23.81,12.26,26.8,14.81,5.85,8.19,7.21,12.71,3.31,4.76,5.82,3.74,6.32-6.74,4.41-12.94-3.93-5-6.32-9.27-1.65-5-4.28-5.68-4.6.94-8.29-1.83-9.5-9.9-9.5-9.9L303.73,228s5.23-5.51,1.21-10.53S294.21,202.31,294.21,202.31Z" style="fill:#ffbda7"></path><path d="M292.59,210.27a14.42,14.42,0,0,0,4,9.85s-4.12,4.52-7,7.58-4.84,3.64-8.05,1.47-6.69-6-14-5c6.83.59,11.36,6,14.66,9.87L303.73,228s5-2.81-.09-9.65S292.59,210.27,292.59,210.27Z" style="fill:#f0997a"></path><path d="M299.29,251.55c1.58-.88,2.87-1.62,3.93-2.23-1.12-2.37-1.07-2.94-3.17-3.52-2.64-.72-4.6.94-8.29-1.83-2.49-1.87-7-6.95-9-9.26a13.12,13.12,0,0,0-4.14,6.37,20,20,0,0,0-.51,7.45c6.7,3.54,13.24,7.14,15.07,8.71a20.21,20.21,0,0,1,4.08,5.38C298.16,261.21,300,255.65,299.29,251.55Z" style="fill:#f0997a"></path><path d="M333.59,201.63c1.85,4.29,6,20-8.46,30.86a310.44,310.44,0,0,1-26.93,18.1s.07,4.55-3.21,13c-2.93,7.57-4.59,12.06-5.57,15.07-1.28,3.92.49,6.94.06,9.14-.23,1.16-.8,3.1-2.36,3.93-2.59,1.38-5,2.28-6.47,4.52-3.42,5.09-6.32,6.69-11.33,7.25-2.23.25-8.19-1-9.57-3.55-1.47-2.75,1.27-3.13,4-5.05a43,43,0,0,0,8.1-7.42,23.81,23.81,0,0,0,5.85-13.41c.93-10.22,2-21.83,2.49-27.73.53-6.58.78-9.13,5.07-13.39,5.19-5.15,16.26-14.51,16.26-14.51s-8.15-1.68-11.21-12.83C307.48,195.85,325.71,185.52,333.59,201.63Z" style="fill:#ffbda7"></path><g id="freepik--top--inject-33"><path d="M280.42,175.05s-5.11-12.15-5.13-12.49c-.06-.92,1.17-1.1,2.47-2.17a24.33,24.33,0,0,0,3.17-3.1c.89-.64,4.29-1.52,5.69-2.18s.9-2.45.44-2.28-2.4.67-2.5.67,4.06-2.36,5.12-3.54.25-2.8-.33-2.46-2,1.35-2,1.35,1.53-1.62,2.42-2.82a1.76,1.76,0,0,0-.31-2.56c-.37,0-.77.33-1.79,1.5.63-1.32.54-2.08-.18-2.58s-1.41.74-4.09,3.11-9.18,6-12.41,8.86-2.75,4-3.1,7.66c-.25,2.51,1.88,17.65,4.11,23.44,1.85,4.78,4.68,5,10.91,2,6.55-3.15,18.58-9.36,18.58-9.36l7.9-17.5c-4.84-.27-6.91-.3-14,4.11S280.42,175.05,280.42,175.05Z" style="fill:#ffbda7"></path><path d="M280.42,175.05a10.25,10.25,0,0,1,.36,5.27s1.5-2,.56-5.95Z" style="fill:#f0997a"></path><path d="M280.66,149.45s.78.27,2.33-.74a56.19,56.19,0,0,0,4.69-3.74l-5.06,3.64A4.35,4.35,0,0,1,280.66,149.45Z" style="fill:#f0997a"></path><path d="M287.36,148.85s-2.87,1.82-3.78,2.28a3.54,3.54,0,0,1-1.49.45,25.74,25.74,0,0,0,3.15-1.85c.54-.37,1.21-.68,1.73-1,1-.66,1.66-1.25,1.66-1.25C288.19,148,287.76,148.43,287.36,148.85Z" style="fill:#f0997a"></path><path d="M284.56,153.5a18.37,18.37,0,0,1-3.37.63c1.92-.29,6.75-2.78,6.75-2.78C287,152,285.81,152.74,284.56,153.5Z" style="fill:#f0997a"></path><path d="M276.66,161.14c-.81.49-1.41.77-1.37,1.42,0,.09.4,1.09,1,2.48h0a12.21,12.21,0,0,0-1-1.82c-.6-.95-2.64-1.07-2.66-1.38S274.66,162,276.66,161.14Z" style="fill:#f0997a"></path><g id="freepik--chest--inject-33"><path d="M333.92,190.64c-.4-12.74,1.16-18.36.06-22.57-1.91-.64-8.32-3.1-8.11-6.35.3-4.6-3.87.1-12-.86l-4.57-.21c-2.82,2.52-10.46,8.09-13,13.29A10.66,10.66,0,0,0,298.06,186a75,75,0,0,0,.08,7.85s-4.66,4.81-5.17,8c.26,4.33,15.42,20.86,42.52,7.8a64.55,64.55,0,0,0-1.94-13.24C333,194.18,333.92,190.64,333.92,190.64Z" style="fill:#ffbda7"></path><polygon points="331.3 185.62 329.52 180.95 330.34 185.29 331.3 185.62" style="fill:#f0997a"></polygon><path d="M307.7,188.35a10.86,10.86,0,0,0,9.21,4,8.7,8.7,0,0,0,8.25-5.5s-.28,7.08-8.11,7.33A9.39,9.39,0,0,1,307.7,188.35Z" style="fill:#ffbda7"></path></g><path d="M325.31,157.57c.14-2.29,3.14-7,5.26-9.93s2.74-8.66,1-11.25c.45-3.86-5.3-10.16-13-10.07s-13.11,1.67-14.4,4.28,1,4.48-.88,6a3.48,3.48,0,0,0,1.48,6.19C306.73,143.25,325.31,157.57,325.31,157.57Z" style="fill:#263238"></path><path d="M335.55,126.69c-.19-.8-1.07-1.88-1.88-1.93a3.2,3.2,0,0,0-2.12.64,1.72,1.72,0,0,1-2.4-.28,3.35,3.35,0,0,0-3-1,6.17,6.17,0,0,0-4.62,4.45l8.18,15.36c1.55,0,2.27.4,3,.18s1-.88,1.66-1.1a5.85,5.85,0,0,1,1.26-.12,2.38,2.38,0,0,0,2-1.67,12.49,12.49,0,0,1,.39-2.32c.51-1,1.89-1.32,2.45-2.3a1,1,0,0,0,.15-.7c-.13-.69-1.1-.84-1.52-1.42a1.87,1.87,0,0,1-.24-1.19,3.63,3.63,0,0,0,0-1.23.94.94,0,0,0-.89-.72,1.06,1.06,0,0,1,1.21.1,3,3,0,0,1,.78,1,2.69,2.69,0,0,0-2.13-3.45c-.48-.08-1,0-1.4-.37C335.73,128.07,335.73,127.46,335.55,126.69Z" style="fill:#263238"></path><path d="M308.19,132.7c-2,1-4,6.15-3.95,15.17,0,5.21,1.16,7.71,3.37,9.13a12.29,12.29,0,0,0,6,1.18l-.23,3.44s-9.81,8.59-2,9.84c8.16,1.31,14.36-7.93,14.36-7.93l.78-12.2c.4.79,2.09,1.38,4-.73,2.31-2.48,2.13-5.69.38-7s-4.11-.42-5.14,1.68c-2.07.65-4.53-1.64-3.74-9.35-2.26-2.25-5.73.23-8.72-.39C311.12,135,310.65,131.65,308.19,132.7Z" style="fill:#ffbda7"></path><path d="M329.57,149.49a1.06,1.06,0,1,1-1.11-1A1.05,1.05,0,0,1,329.57,149.49Z" style="fill:#BA68C8"></path><path d="M313.63,158.18c6.28-.79,10-3,10.81-5.44,0,0-.67,3.23-2.53,4.52-2.61,1.81-8.4,2.63-8.4,2.63Z" style="fill:#f0997a"></path><path d="M311.06,150.58l4.21-.48a2,2,0,0,1-1.77,2.34A2.25,2.25,0,0,1,311.06,150.58Z" style="fill:#b16668"></path><path d="M312.59,152.34a2,2,0,0,0,2.59-1.24A2.44,2.44,0,0,0,312.59,152.34Z" style="fill:#f28f8f"></path><path d="M318.15,144.08c0,.65-.57-.35-1.23-.41s-1.19.86-1.14.21a1.2,1.2,0,0,1,1.29-1.08A1.18,1.18,0,0,1,318.15,144.08Z" style="fill:#263238"></path><path d="M309.06,143c-.06.65-.58-.35-1.23-.41s-1.2.86-1.14.21a1.19,1.19,0,0,1,2.37.2Z" style="fill:#263238"></path><path d="M306.71,139.66l2.66-1.09a1.38,1.38,0,0,0-1.83-.81A1.49,1.49,0,0,0,306.71,139.66Z" style="fill:#263238"></path><path d="M319,140.84l-2.45-1.58a1.41,1.41,0,0,1,2-.47A1.52,1.52,0,0,1,319,140.84Z" style="fill:#263238"></path><polygon points="312.73 142.3 311.84 148.47 308.23 146.7 312.73 142.3" style="fill:#f0997a"></polygon><path d="M317.25,148.09a2.21,2.21,0,1,0,2.05-2.36A2.22,2.22,0,0,0,317.25,148.09Z" style="fill:#f28f8f"></path><path d="M302.17,146.13a2.21,2.21,0,1,0,2.05-2.36A2.22,2.22,0,0,0,302.17,146.13Z" style="fill:#f28f8f"></path><path d="M298.5,170.68c3.24.93,5.41,4.24,8.63,5,4.76,1.07,10.17.43,14.58,2.61,5.6,2.75,9.48,8.58,12.14,8.53v-1.69s1.36-.76,1.41,3.43c.06,4.52-.17,4.11.89,9.42s4.71,20.41-2.56,28.58-27.35,21.14-28.87,21.61-2.13-.15-2.13-.15l2-1.34s3.52-5.54-14.6-17.37c-16.85-11-26.4-14.51-26.4-14.51l-2.49,1.32s-1-.74,2.19-2.83c5.14-3.36,28-12.2,28-12.2s3.78-6.56,5.47-7.41c-1.12-3.48.05-7.71.05-7.71S289.51,176.62,298.5,170.68Z" style="fill:#f5f5f5"></path><path d="M320.39,205.94c-2.09,12.15-18.06,23.46-25.34,26.87l.86.66c7.54-3.67,23.32-15.08,25.43-27.36,1.25-7.26,2.19-20.51,1.23-27.41-.28-.15-.57-.31-.86-.45l-.34-.16C322.36,184.83,321.64,198.69,320.39,205.94Z" style="fill:#e0e0e0"></path><path d="M332.28,167.6c4.32,1.17,6.47,1.81,8.48,6.05s5.47,15,7.37,21.4c1.62,5.44,2.35,11,.18,13.26l-9.83-5.39-7.26-17.51S328.5,173.4,332.28,167.6Z" style="fill:#ffbda7"></path><path d="M334.88,195.54c1.05,1.33,2.22,1.82,4.77,2.86,2.37,1,5.11,1.87,6.63,4.32-.52-2.31-1.85-3.4-4.82-4.88s-7.3-3.2-7.3-3.2Z" style="fill:#f0997a"></path><path d="M334.88,195.54c1.05,1.33,2.22,1.82,4.77,2.86,2.37,1,5.11,1.87,6.63,4.32,1.34,2.15,3.39,4,2,5.59-.8.95-2.74,2.34-6.8,1.94-3.07-.29-5.29-2.49-8.49-4.54-2.75-1.75-4.2-2.89-4.2-2.89Z" style="fill:#ffbda7"></path><path d="M329.67,197.69c1.14-1.14,1.35-2.3,3-3.25s2.76-.91,4.56-1.82,3.26-1.37,4.61-.92,1.14,1.22.11,1.86-2.77,1.47-4,2.35-2.4,1.37-2.41,2.91a65.66,65.66,0,0,0,.5,7.29c.32,2.58.82,4.67.63,4.95s-1.31.4-2-1a46.33,46.33,0,0,1-1.53-6.7s-.51,3.64-.73,6.15-.31,4.42-.38,4.95-1.85.12-2.13-1.77a58.32,58.32,0,0,1,.12-7.5l-2.45,4.19c-.95,1.65-2.14,3.9-2.53,4.46s-1.51-.44-1.23-1.94a29.4,29.4,0,0,1,2.22-5.18s-2.34,2.43-2.75,2.66-1.65,0-1.22-1.62c.29-1.11,1-1.81,2.89-3.94a13.9,13.9,0,0,0,2.45-4C328.24,198.49,328.84,198.51,329.67,197.69Z" style="fill:#ffbda7"></path><path d="M330,212.65a14.74,14.74,0,0,1-.15-1.88c0-.62,0-1.25,0-1.88,0-1.25.06-2.5.13-3.76l.3.1-2.31,4-2.28,4-.3.5a.89.89,0,0,1-.23.27.58.58,0,0,1-.4.08,1.4,1.4,0,0,1-.88-.93,2.5,2.5,0,0,1-.11-1.21,6.73,6.73,0,0,1,.33-1.13,34.9,34.9,0,0,1,2.05-4.16,45.07,45.07,0,0,0-1.82,4.24,3,3,0,0,0-.16,2.15,1.15,1.15,0,0,0,.65.71c.13,0,.17,0,.28-.2l.29-.49c.76-1.34,1.47-2.72,2.26-4l2.35-4a.17.17,0,0,1,.22-.06.18.18,0,0,1,.09.16c-.11,1.24-.19,2.49-.25,3.74A27.61,27.61,0,0,0,330,212.65Z" style="fill:#f0997a"></path><path d="M329.67,197.69c.72-.69,1.17-1.59,1.85-2.3a6.93,6.93,0,0,1,2.5-1.5c.92-.33,1.89-.55,2.8-1a15.58,15.58,0,0,1,2.72-1.12,3.66,3.66,0,0,1,2.78.21c.19.12.37.28.38.47a.77.77,0,0,1-.26.55,5.28,5.28,0,0,1-1.19.8c-.86.48-1.74.94-2.58,1.46-.43.26-.83.56-1.23.83a9.16,9.16,0,0,0-1.21.89,2.43,2.43,0,0,0-.75,1.35,9.59,9.59,0,0,0,0,1.51c0,1,.09,2,.16,3,.16,2,.38,3.93.72,5.88.08.48.17,1,.23,1.45a4.44,4.44,0,0,1,.06.71c0,.16-.21.22-.42.22a1.51,1.51,0,0,1-1.09-.71,4.57,4.57,0,0,1-.56-1.32,55.82,55.82,0,0,1-1.24-5.77l-.11-.62-.09.63c-.24,1.84-.47,3.69-.63,5.54-.08.93-.13,1.86-.2,2.79l-.18,2.78.24-2.78c.09-.92.15-1.85.25-2.77q.32-2.77.72-5.54h-.2a57.9,57.9,0,0,0,1.19,5.8,4.64,4.64,0,0,0,.59,1.4,1.74,1.74,0,0,0,1.3.83,1,1,0,0,0,.42-.07.48.48,0,0,0,.21-.15.35.35,0,0,0,.06-.14v-.11a3.78,3.78,0,0,0-.05-.76c-.07-.5-.15-1-.23-1.47-.33-1.94-.55-3.89-.69-5.86-.07-1-.14-2-.17-2.94a8.71,8.71,0,0,1,0-1.45,2.12,2.12,0,0,1,.66-1.19,10.32,10.32,0,0,1,1.16-.87c.42-.28.8-.57,1.22-.83.83-.52,1.7-1,2.57-1.46a5.58,5.58,0,0,0,1.24-.85.93.93,0,0,0,.32-.75.89.89,0,0,0-.5-.65,3.9,3.9,0,0,0-3-.21,16.46,16.46,0,0,0-2.73,1.16c-.89.42-1.85.65-2.77,1a6.8,6.8,0,0,0-2.5,1.57C330.8,196.08,330.37,197,329.67,197.69Z" style="fill:#f0997a"></path><path d="M334.31,198.58a3.62,3.62,0,0,1-3.94-.49C330.49,199.37,333,200.13,334.31,198.58Z" style="fill:#f0997a"></path><path d="M322.08,208.68a.84.84,0,0,0,1.17-.07,30.62,30.62,0,0,0,2.16-2.29c.53-.59,2.35-2.71,2.35-2.71l-1.66,3.07s-2.34,2.43-2.75,2.66A.91.91,0,0,1,322.08,208.68Z" style="fill:#f0997a"></path></g><g id="freepik--sweat--inject-33"><path d="M321.06,141.83a3.52,3.52,0,0,0-.21-.77c0-.05-.06-.11-.11-.08l0,.06c0,.23-.1.46-.14.69a1.31,1.31,0,0,0-.07.55c.1.38.49.34.57,0A1.48,1.48,0,0,0,321.06,141.83Z" style="fill:#fafafa"></path><path d="M323.1,139.51a4.15,4.15,0,0,0-.2-.77c0-.05-.07-.11-.11-.08a.09.09,0,0,0,0,.06q-.09.34-.15.69a1.51,1.51,0,0,0-.07.55c.1.38.5.34.57,0A1.19,1.19,0,0,0,323.1,139.51Z" style="fill:#fafafa"></path><path d="M289.86,172.67a4.15,4.15,0,0,0,.07-.79s0-.12-.08-.11a.08.08,0,0,0,0,0c-.13.2-.26.4-.38.6a1.47,1.47,0,0,0-.25.5c0,.39.35.48.54.16A1.12,1.12,0,0,0,289.86,172.67Z" style="fill:#fafafa"></path><path d="M291.45,171.08a3.52,3.52,0,0,0,.07-.79c0-.06,0-.13-.07-.11a.07.07,0,0,0-.05,0c-.13.19-.25.39-.38.6a1.32,1.32,0,0,0-.24.49c0,.39.34.49.54.17A1.11,1.11,0,0,0,291.45,171.08Z" style="fill:#fafafa"></path><path d="M345.07,193.21a3.64,3.64,0,0,0-.36-.71s-.09-.09-.13-.05,0,0,0,.06c0,.23,0,.47,0,.71a1.48,1.48,0,0,0,.06.55c.18.35.55.22.54-.15A1,1,0,0,0,345.07,193.21Z" style="fill:#fafafa"></path><path d="M344.16,196.42a3.34,3.34,0,0,0-.33-.72s-.08-.09-.12-.06a.14.14,0,0,0,0,.06c0,.24,0,.47,0,.71a1.5,1.5,0,0,0,0,.56c.16.35.54.24.55-.13A1,1,0,0,0,344.16,196.42Z" style="fill:#fafafa"></path></g></g></g><g id="freepik--Rocks--inject-33"><g id="freepik--rocks--inject-33"><polygon points="233.75 358.55 233.75 344.48 177.63 376.88 177.63 390.95 233.75 358.55" style="fill:#BA68C8"></polygon><polygon points="233.75 358.55 233.75 344.48 177.63 376.88 177.63 390.95 233.75 358.55" style="fill:#fff;opacity:0.55"></polygon><polygon points="177.63 390.95 173.56 388.61 173.56 374.54 177.63 376.88 177.63 390.95" style="fill:#BA68C8"></polygon><polygon points="177.63 390.95 173.56 388.61 173.56 374.54 177.63 376.88 177.63 390.95" style="fill:#fff;opacity:0.4"></polygon><polygon points="233.75 344.48 229.69 342.13 173.56 374.54 177.63 376.88 233.75 344.48" style="fill:#BA68C8"></polygon><polygon points="233.75 344.48 229.69 342.13 173.56 374.54 177.63 376.88 233.75 344.48" style="fill:#fff;opacity:0.4"></polygon><polygon points="233.75 342.13 233.75 328.06 177.63 360.46 177.63 374.54 233.75 342.13" style="fill:#BA68C8"></polygon><polygon points="233.75 342.13 233.75 328.06 177.63 360.46 177.63 374.54 233.75 342.13" style="fill:#fff;opacity:0.55"></polygon><polygon points="177.63 374.54 173.56 372.19 173.56 358.12 177.63 360.46 177.63 374.54" style="fill:#BA68C8"></polygon><polygon points="177.63 374.54 173.56 372.19 173.56 358.12 177.63 360.46 177.63 374.54" style="fill:#fff;opacity:0.4"></polygon><polygon points="233.75 328.06 229.69 325.72 173.56 358.12 177.63 360.46 233.75 328.06" style="fill:#BA68C8"></polygon><polygon points="233.75 328.06 229.69 325.72 173.56 358.12 177.63 360.46 233.75 328.06" style="fill:#fff;opacity:0.4"></polygon><polygon points="233.75 325.72 233.75 311.65 177.63 344.05 177.63 358.12 233.75 325.72" style="fill:#BA68C8"></polygon><polygon points="233.75 325.72 233.75 311.65 177.63 344.05 177.63 358.12 233.75 325.72" style="fill:#fff;opacity:0.55"></polygon><polygon points="177.63 358.12 173.56 355.77 173.56 341.7 177.63 344.05 177.63 358.12" style="fill:#BA68C8"></polygon><polygon points="177.63 358.12 173.56 355.77 173.56 341.7 177.63 344.05 177.63 358.12" style="fill:#fff;opacity:0.4"></polygon><polygon points="233.75 311.65 229.69 309.3 173.56 341.7 177.63 344.05 233.75 311.65" style="fill:#BA68C8"></polygon><polygon points="233.75 311.65 229.69 309.3 173.56 341.7 177.63 344.05 233.75 311.65" style="fill:#fff;opacity:0.8"></polygon><polygon points="230.13 361.15 230.13 347.08 302.58 388.92 302.58 402.99 230.13 361.15" style="fill:#BA68C8"></polygon><polygon points="230.13 361.15 230.13 347.08 302.58 388.92 302.58 402.99 230.13 361.15" style="fill:#fff;opacity:0.7000000000000001"></polygon><polygon points="302.58 402.99 306.65 400.65 306.65 386.58 302.58 388.92 302.58 402.99" style="fill:#BA68C8"></polygon><polygon points="302.58 402.99 306.65 400.65 306.65 386.58 302.58 388.92 302.58 402.99" style="fill:#fff;opacity:0.55"></polygon><polygon points="230.13 347.08 234.19 344.74 306.65 386.58 302.58 388.92 230.13 347.08" style="fill:#BA68C8"></polygon><polygon points="230.13 347.08 234.19 344.74 306.65 386.58 302.58 388.92 230.13 347.08" style="fill:#fff;opacity:0.4"></polygon><polygon points="230.13 344.74 230.13 330.67 302.58 372.5 302.58 386.58 230.13 344.74" style="fill:#BA68C8"></polygon><polygon points="230.13 344.74 230.13 330.67 302.58 372.5 302.58 386.58 230.13 344.74" style="fill:#fff;opacity:0.7000000000000001"></polygon><polygon points="302.58 386.58 306.65 384.23 306.65 370.16 302.58 372.5 302.58 386.58" style="fill:#BA68C8"></polygon><polygon points="302.58 386.58 306.65 384.23 306.65 370.16 302.58 372.5 302.58 386.58" style="fill:#fff;opacity:0.55"></polygon><polygon points="230.13 330.67 234.19 328.32 306.65 370.16 302.58 372.5 230.13 330.67" style="fill:#BA68C8"></polygon><polygon points="230.13 330.67 234.19 328.32 306.65 370.16 302.58 372.5 230.13 330.67" style="fill:#fff;opacity:0.4"></polygon><polygon points="230.13 328.32 230.13 314.25 302.58 356.09 302.58 370.16 230.13 328.32" style="fill:#BA68C8"></polygon><polygon points="230.13 328.32 230.13 314.25 302.58 356.09 302.58 370.16 230.13 328.32" style="fill:#fff;opacity:0.7000000000000001"></polygon><polygon points="302.58 370.16 306.65 367.81 306.65 353.74 302.58 356.09 302.58 370.16" style="fill:#BA68C8"></polygon><polygon points="302.58 370.16 306.65 367.81 306.65 353.74 302.58 356.09 302.58 370.16" style="fill:#fff;opacity:0.55"></polygon><polygon points="230.13 314.25 234.19 311.9 306.65 353.74 302.58 356.09 230.13 314.25" style="fill:#BA68C8"></polygon><polygon points="230.13 314.25 234.19 311.9 306.65 353.74 302.58 356.09 230.13 314.25" style="fill:#fff;opacity:0.8"></polygon><polygon points="297.48 359.9 246.99 389.05 179.68 350.19 230.16 321.04 297.48 359.9" style="fill:#263238"></polygon><path d="M238.29,375.46a14.16,14.16,0,0,1,6.94-.13,32.67,32.67,0,0,0,6.94.84,32.94,32.94,0,0,0,4.52-.71c2.75-.53,5.7-.79,8.23.4s4.33,4.28,3.22,6.84a7.71,7.71,0,0,1-3.16,3.14,30.44,30.44,0,0,1-13.84,4.82,21.46,21.46,0,0,1-14-3.72,7.51,7.51,0,0,1-2-2C232.79,381.28,234.08,376.88,238.29,375.46Z" style="fill:#37474f"></path><path d="M239.6,372.48a4,4,0,0,0,2.39-1.55c.82-1.44-.18-3.2-1.2-4.5a10.4,10.4,0,0,0-3.56-3.21c-2.07-1-4.49-.58-6.74-.14a20.51,20.51,0,0,0-7.36,2.49c-2.18,1.42-3.88,3.88-3.67,6.48.31,3.81,5,7.08,8.79,6.11,1.75-.46,2.78-2.34,4.27-3.26C234.66,373.57,237.23,373.23,239.6,372.48Z" style="fill:#455a64"></path><path d="M245.5,367.73a5.84,5.84,0,0,1,2.69-5.22A13.73,13.73,0,0,1,260,360.67a22.68,22.68,0,0,1,10.26,6.72,8.39,8.39,0,0,1,1.75,2.52,3.42,3.42,0,0,1-.09,3,3.68,3.68,0,0,1-3.31,1.55,16.73,16.73,0,0,1-3.76-.76,19.78,19.78,0,0,0-5.25-.55c-2.33.07-4.63.56-7,.47C248.78,373.44,245.77,370.75,245.5,367.73Z" style="fill:#455a64"></path><path d="M270,357.94a3.92,3.92,0,0,0-1.86,4,5.82,5.82,0,0,0,1.12,2l3.13,4.16a11.41,11.41,0,0,0,2.78,2.89,9.28,9.28,0,0,0,5.75,1,10.38,10.38,0,0,0,4.49-1.22,4.87,4.87,0,0,0,2.48-3.76c.08-1.59-.84-3-1.75-4.35a16.15,16.15,0,0,0-4-4.41C278.79,356,273.37,355.64,270,357.94Z" style="fill:#37474f"></path><path d="M250,359.16c-2.49,1.1-5.07,2.22-7.79,2.27a20.26,20.26,0,0,1-6-1.07,11.93,11.93,0,0,1-3.42-1.36,4,4,0,0,1-1.91-3c-.09-1.76,1.35-3.19,2.8-4.19A21.12,21.12,0,0,1,253.7,350c1.93.85,4.6,2.95,3.37,5.42C256.06,357.39,251.86,358.32,250,359.16Z" style="fill:#455a64"></path><path d="M223.82,361.51l.4-.4c.83-.79,2-1.68,1.89-3a4.38,4.38,0,0,0-2.63-3.42,10,10,0,0,0-4.42-.72,28.49,28.49,0,0,0-11.48,2.69,5.38,5.38,0,0,0-1.6,1,4.08,4.08,0,0,0-1,1.95,7.13,7.13,0,0,0,2.78,7,9.1,9.1,0,0,0,7.52,1.39,12.69,12.69,0,0,0,6.54-4.21C222.53,363,223.12,362.25,223.82,361.51Z" style="fill:#37474f"></path><path d="M216.22,350.25c-1.65-.59-3.57-1.7-3.48-3.45s1.79-2.55,3.29-3.1c5.15-1.87,10.83-2.72,16.11-1.27,1.41.39,3,1.17,3.23,2.61a3.34,3.34,0,0,1-.31,1.86,8.49,8.49,0,0,1-5.11,4.51,10.83,10.83,0,0,1-5,.35C221.85,351.39,219.14,351.31,216.22,350.25Z" style="fill:#455a64"></path><path d="M262.08,346.45a7.37,7.37,0,0,0-1,7.43,4.62,4.62,0,0,0,2.18,2.42,5.3,5.3,0,0,0,3.7,0c1.2-.38,2.34-.95,3.57-1.23,1.9-.44,3.88-.16,5.82-.38s4-1.14,4.64-3c.77-2.24-1-4.57-3-5.85C273.79,343.11,265.63,342.09,262.08,346.45Z" style="fill:#455a64"></path><path d="M283.93,357.1a5.31,5.31,0,0,0,1.72,2l2.14,1.79a11.77,11.77,0,0,0,3,2,9.67,9.67,0,0,0,5.69.09c1.12-.25,2.37-.7,2.77-1.78s-.38-2.42-1.19-3.38c-2-2.33-5-5-8.16-5.52C287.4,352,282.68,353.81,283.93,357.1Z" style="fill:#455a64"></path><path d="M237.67,344.2a3.6,3.6,0,0,0,1.84,1.06c3.37,1,7,0,10.46.77,1.26.28,2.82.71,3.67-.27a2.67,2.67,0,0,0,.27-2.45c-1.1-4-5.51-7.09-9.6-7.17C241.29,336.08,235,340.93,237.67,344.2Z" style="fill:#37474f"></path><path d="M255.77,339.27a5.26,5.26,0,0,0,1.19,3.54,4.22,4.22,0,0,0,3,1.18,14.07,14.07,0,0,0,5.2-1.28,2,2,0,0,0,.92-.84c.34-.74-.17-1.59-.72-2.2C263.08,337.21,255.55,332.75,255.77,339.27Z" style="fill:#455a64"></path><path d="M236.1,326.74a6.64,6.64,0,0,0-3,2,3.6,3.6,0,0,0-.69,3.41c.69,1.83,3,2.46,5,2.28,2.24-.21,4.42-1.13,6.65-.9,2,.21,3.84,1.35,5.85,1.71A1.37,1.37,0,0,0,251,335a1.16,1.16,0,0,0,.34-.73c.25-1.55-.88-3-2-4C245.68,326.9,241,325,236.1,326.74Z" style="fill:#455a64"></path><path d="M218,334.65a2.32,2.32,0,0,0-.76,1.78c.12.87,1,1.39,1.82,1.73,3.78,1.55,8,1.74,12,1.9a2.52,2.52,0,0,0,1.68-.34,1.82,1.82,0,0,0,.59-1.39c.07-1.86-1.41-3.41-2.93-4.5-2.07-1.5-4.12-1.35-6.53-1.5A7.52,7.52,0,0,0,218,334.65Z" style="fill:#455a64"></path><path d="M201.5,357.88c2.35-.69,4.42-2.09,6.65-3.09,1-.44,2.2-1,2.25-2.12a2.37,2.37,0,0,0-1-1.74,10.63,10.63,0,0,0-7.4-2.32,18.34,18.34,0,0,0-8.47,2.25,3.46,3.46,0,0,0-1.26,1c-1.12,1.66.6,4.25,2.09,5.12A9.31,9.31,0,0,0,201.5,357.88Z" style="fill:#455a64"></path><path d="M208,346.37l-3.86-.16a3.72,3.72,0,0,1-2.74-.87,2.41,2.41,0,0,1-.22-2.57,5.22,5.22,0,0,1,1.88-1.94,12.51,12.51,0,0,1,7.87-2,5.47,5.47,0,0,1,2.22.59,2.52,2.52,0,0,1,1.32,1.81,3.07,3.07,0,0,1-.56,2,7,7,0,0,1-7.79,2.89" style="fill:#37474f"></path><path d="M181.22,347.5a6.3,6.3,0,0,0,5.47,3.76,13.3,13.3,0,0,0,6.75-1.61,9,9,0,0,0,3.29-2.35,3.8,3.8,0,0,0,.66-3.82c-.8-1.71-3-2.2-4.89-2.15a16.5,16.5,0,0,0-10,3.78,3,3,0,0,0-1.27,1.92c-.09,1.15,1,2,1.94,2.63" style="fill:#455a64"></path><path d="M211.51,336.51c2.52-.63,4.82-2.66,5.1-5.24a1.11,1.11,0,0,0,0-.6,1.32,1.32,0,0,0-1-.68,9.59,9.59,0,0,0-4.83.6c-1.44.46-7.43,2.16-6.4,4.56C205.2,337.24,209.85,336.92,211.51,336.51Z" style="fill:#455a64"></path><path d="M229.27,327.91a10.44,10.44,0,0,1-6.66,1.76c-1.74-.16-4-1.74-3.26-3.79a3.57,3.57,0,0,1,1-1.36,20.34,20.34,0,0,1,7.72-4,3.74,3.74,0,0,1,3.19.18,3.33,3.33,0,0,1,1,4A7.27,7.27,0,0,1,229.27,327.91Z" style="fill:#37474f"></path><path d="M179.4,336.56a9.63,9.63,0,0,1,3-4.69c1.65-1.45,2.75-2.47-.1-3.73-1.1-.49-2.34-.67-3.43-1.19a5.77,5.77,0,0,1-.46-10.14c.93-.55,2-.84,2.86-1.47a2.44,2.44,0,0,0,1.08-2.77,2.71,2.71,0,0,0-1.2-1.14c-1.73-1-3.76-1.21-5.66-1.77s-3.87-1.58-4.63-3.41c-.89-2.16.27-4.75,2.13-6.16a13.69,13.69,0,0,1,6.56-2.21c1-.13,2.15-.41,2.39-1.35a1.9,1.9,0,0,0-1.25-2c-2.28-1.08-5.59,0-7.09-2-1.28-1.74.22-4.4,2.27-5.06s4.28,0,6.33.67a6.63,6.63,0,0,0-3-.49,2.21,2.21,0,0,0-2,2c.06,1.43,1.79,2.06,3.18,2.38,1,.22,2,.47,2.92.74a3.54,3.54,0,0,1,1.85.95c.92,1.08.3,2.78-.64,3.83s-2.2,1.9-2.73,3.22c-.85,2.09.8,4.67,3,5.11a5.18,5.18,0,0,0,5.46-3.09c.71-1.59.69-3.42,1.3-5.05,1.5-4.08,5.72-5.15,9.52-5.83-1.09-2.8-1.05-6,1.11-8.3a7.42,7.42,0,0,1,8-1.8,5.66,5.66,0,0,1,4.06-5c3.57-1,7,1.74,10.57,2.69a11.46,11.46,0,0,0,6.95-.34c1.79-.67,3.62-2.32,3.14-4.16a3.57,3.57,0,0,0-1.15-1.71c-1.84-1.67-4.33-2.34-6.73-3s-4.89-1.33-6.69-3-2.61-4.72-1.1-6.67a6.49,6.49,0,0,1,3.49-2c4.48-1.25,9.5-1,13.43-3.54a2.91,2.91,0,0,0,1.66-2.49c-.14-1.26-1.58-1.89-2.79-2.26l-6.36-1.94c-2.18-.67-4.72-1.71-5.14-4a4.65,4.65,0,0,1,2-4.24,8.17,8.17,0,0,1,12.16,2.43,7.25,7.25,0,0,0-5.79-2.45,3.71,3.71,0,0,0-3.38,2c-.53,1.44.42,3,1.64,4,2,1.55,4.7,1.9,7.19,2.51s5.13,1.77,6.15,4.12a6,6,0,0,1-.72,5.63,10,10,0,0,1-4.7,3.48c-2.14.83-4.89,1.61-5.28,3.87a4.33,4.33,0,0,0,1.9,3.84c2.31,1.89,5.39,2.58,7.87,4.25,3,2,4.15,4.85,5.1,8.16a15.37,15.37,0,0,1,1,3.62c0,.85-.35,4.31-1.26,4.71a8.85,8.85,0,0,1,9.19,1.72,11.92,11.92,0,0,1,3.69,8.85,6.94,6.94,0,0,1,9.55,5.65c.36,3.23-1.5,6.8.17,9.59a6.64,6.64,0,0,0,2.9,2.41c3.06,1.49,7.26.43,10-1.43a2.24,2.24,0,0,0,1.06-2.28c-.35-1.42-3.05-2.27-4.22-2.89a10.52,10.52,0,0,1-3.26-2.45,4.36,4.36,0,0,1-1-3.83c.65-2.28,3.06-3.76,5.22-4.33s4.34-.6,6.18-1.7a2.57,2.57,0,0,0,1.48-2.5,2.5,2.5,0,0,0-.75-1.2,6.47,6.47,0,0,0-8.93.14,10.62,10.62,0,0,1,13.17-.22,5.16,5.16,0,0,1,2.23,4.32c-.26,2.35-2.77,3.7-5,4.37s-4.84,1.22-6.15,3.19a1.91,1.91,0,0,0-.38,1.12c.05.82.9,1.34,1.68,1.64,2.74,1.06,5.8,1.19,8.47,2.42s5,4.26,3.86,7c-.67,1.67-2.35,2.64-3.78,3.73s-2.79,2.74-2.39,4.49c.31,1.38,1.61,2.27,2.83,3,3.51,2,10,3.1,9.59,8.15a21.59,21.59,0,0,1-1.58,6.54c-.46,1-3.29,5.89-4.84,5.45a7.37,7.37,0,0,1,3.49,12L250,391.39l-70.32-39.87S177.63,343.3,179.4,336.56Z" style="fill:#fff;opacity:0.30000000000000004"></path><polygon points="310.93 403.12 310.93 389.05 254.81 421.45 254.81 435.52 310.93 403.12" style="fill:#37474f"></polygon><polygon points="254.81 435.52 250.75 433.18 250.75 419.1 254.81 421.45 254.81 435.52" style="fill:#263238"></polygon><polygon points="310.93 389.05 306.87 386.7 250.75 419.1 254.81 421.45 310.93 389.05" style="fill:#263238"></polygon><polygon points="310.93 386.7 310.93 372.63 254.81 405.03 254.81 419.1 310.93 386.7" style="fill:#BA68C8"></polygon><polygon points="310.93 386.7 310.93 372.63 254.81 405.03 254.81 419.1 310.93 386.7" style="fill:#fff;opacity:0.55"></polygon><polygon points="254.81 419.1 250.75 416.76 250.75 402.69 254.81 405.03 254.81 419.1" style="fill:#BA68C8"></polygon><polygon points="254.81 419.1 250.75 416.76 250.75 402.69 254.81 405.03 254.81 419.1" style="fill:#fff;opacity:0.30000000000000004"></polygon><polygon points="310.93 372.63 306.87 370.29 250.75 402.69 254.81 405.03 310.93 372.63" style="fill:#BA68C8"></polygon><polygon points="310.93 372.63 306.87 370.29 250.75 402.69 254.81 405.03 310.93 372.63" style="fill:#fff;opacity:0.4"></polygon><polygon points="310.93 370.28 310.93 356.21 254.81 388.62 254.81 402.69 310.93 370.28" style="fill:#BA68C8"></polygon><polygon points="310.93 370.28 310.93 356.21 254.81 388.62 254.81 402.69 310.93 370.28" style="fill:#fff;opacity:0.55"></polygon><polygon points="254.81 402.69 250.75 400.34 250.75 386.27 254.81 388.62 254.81 402.69" style="fill:#BA68C8"></polygon><polygon points="254.81 402.69 250.75 400.34 250.75 386.27 254.81 388.62 254.81 402.69" style="fill:#fff;opacity:0.30000000000000004"></polygon><polygon points="310.93 356.21 306.87 353.87 250.75 386.27 254.81 388.62 310.93 356.21" style="fill:#BA68C8"></polygon><polygon points="310.93 356.21 306.87 353.87 250.75 386.27 254.81 388.62 310.93 356.21" style="fill:#fff;opacity:0.8"></polygon><polygon points="168.76 391.39 168.76 377.32 250 424.23 250 438.3 168.76 391.39" style="fill:#455a64"></polygon><polygon points="250 438.3 254.06 435.95 254.06 421.88 250 424.23 250 438.3" style="fill:#37474f"></polygon><polygon points="168.76 377.32 172.82 374.98 254.06 421.88 250 424.23 168.76 377.32" style="fill:#263238"></polygon><polygon points="168.76 374.98 168.76 360.9 250 407.81 250 421.88 168.76 374.98" style="fill:#BA68C8"></polygon><polygon points="168.76 374.98 168.76 360.9 250 407.81 250 421.88 168.76 374.98" style="fill:#fff;opacity:0.7000000000000001"></polygon><polygon points="250 421.88 254.06 419.53 254.06 405.46 250 407.81 250 421.88" style="fill:#BA68C8"></polygon><polygon points="250 421.88 254.06 419.53 254.06 405.46 250 407.81 250 421.88" style="fill:#fff;opacity:0.55"></polygon><polygon points="168.76 360.9 172.82 358.56 254.06 405.46 250 407.81 168.76 360.9" style="fill:#BA68C8"></polygon><polygon points="168.76 360.9 172.82 358.56 254.06 405.46 250 407.81 168.76 360.9" style="fill:#fff;opacity:0.4"></polygon><polygon points="168.76 358.56 168.76 344.49 250 391.39 250 405.46 168.76 358.56" style="fill:#BA68C8"></polygon><polygon points="168.76 358.56 168.76 344.49 250 391.39 250 405.46 168.76 358.56" style="fill:#fff;opacity:0.7000000000000001"></polygon><polygon points="250 405.46 254.06 403.12 254.06 389.05 250 391.39 250 405.46" style="fill:#BA68C8"></polygon><polygon points="250 405.46 254.06 403.12 254.06 389.05 250 391.39 250 405.46" style="fill:#fff;opacity:0.55"></polygon><polygon points="168.76 344.49 172.82 342.14 254.06 389.05 250 391.39 168.76 344.49" style="fill:#BA68C8"></polygon><polygon points="168.76 344.49 172.82 342.14 254.06 389.05 250 391.39 168.76 344.49" style="fill:#fff;opacity:0.8"></polygon></g></g></svg>