<?xml version="1.0" encoding="UTF-8" standalone="no"?>
<svg
   xmlns:dc="http://purl.org/dc/elements/1.1/"
   xmlns:cc="http://creativecommons.org/ns#"
   xmlns:rdf="http://www.w3.org/1999/02/22-rdf-syntax-ns#"
   xmlns:svg="http://www.w3.org/2000/svg"
   xmlns="http://www.w3.org/2000/svg"
   xmlns:sodipodi="http://sodipodi.sourceforge.net/DTD/sodipodi-0.dtd"
   xmlns:inkscape="http://www.inkscape.org/namespaces/inkscape"
   version="1.1"
   id="svg2"
   xml:space="preserve"
   width="666.66669"
   height="496.81332"
   viewBox="0 0 666.66669 496.81332"
   sodipodi:docname="add-files.eps"><metadata
     id="metadata8"><rdf:RDF><cc:Work
         rdf:about=""><dc:format>image/svg+xml</dc:format><dc:type
           rdf:resource="http://purl.org/dc/dcmitype/StillImage" /></cc:Work></rdf:RDF></metadata><defs
     id="defs6" /><sodipodi:namedview
     pagecolor="#ffffff"
     bordercolor="#666666"
     borderopacity="1"
     objecttolerance="10"
     gridtolerance="10"
     guidetolerance="10"
     inkscape:pageopacity="0"
     inkscape:pageshadow="2"
     inkscape:window-width="640"
     inkscape:window-height="480"
     id="namedview4" /><g
     id="g10"
     inkscape:groupmode="layer"
     inkscape:label="ink_ext_XXXXXX"
     transform="matrix(1.3333333,0,0,-1.3333333,0,496.81333)"><g
       id="g12"
       transform="scale(0.1)"><path
         d="M 5000,449.129 H 0 v 2.5 h 5000 v -2.5"
         style="fill:#e7e8e5;fill-opacity:1;fill-rule:nonzero;stroke:none"
         id="path14" /><path
         d="m 4167.79,290.672 h 331.22 v -2.5 h -331.22 v 2.5"
         style="fill:#e7e8e5;fill-opacity:1;fill-rule:nonzero;stroke:none"
         id="path16" /><path
         d="m 2603.35,322.012 h 128.87 v -2.5 h -128.87 v 2.5"
         style="fill:#e7e8e5;fill-opacity:1;fill-rule:nonzero;stroke:none"
         id="path18" /><path
         d="m 3225.27,308.949 h 271.402 v 2.5 H 3225.27 Z"
         style="fill:#e7e8e5;fill-opacity:1;fill-rule:nonzero;stroke:none"
         id="path20" /><path
         d="m 3596.67,383.531 h 561.11 v -2.5 h -561.11 v 2.5"
         style="fill:#e7e8e5;fill-opacity:1;fill-rule:nonzero;stroke:none"
         id="path22" /><path
         d="m 524.59,267.84 h 265.265 v -2.5 H 524.59 v 2.5"
         style="fill:#e7e8e5;fill-opacity:1;fill-rule:nonzero;stroke:none"
         id="path24" /><path
         d="m 878.891,267.84 h 229.999 v -2.5 H 878.891 v 2.5"
         style="fill:#e7e8e5;fill-opacity:1;fill-rule:nonzero;stroke:none"
         id="path26" /><path
         d="M 1918.14,320.762 H 1310 v 2.5 h 608.14 v -2.5"
         style="fill:#e7e8e5;fill-opacity:1;fill-rule:nonzero;stroke:none"
         id="path28" /><path
         d="m 439.152,3723.59 c -30.101,0 -54.582,-24.48 -54.582,-54.57 V 954.699 c 0,-30.097 24.481,-54.578 54.582,-54.578 H 2370.14 c 30.09,0 54.57,24.481 54.57,54.578 V 3669.02 c 0,30.09 -24.48,54.57 -54.57,54.57 H 439.152 M 2370.14,897.621 H 439.152 c -31.476,0 -57.082,25.598 -57.082,57.078 V 3669.02 c 0,31.46 25.606,57.07 57.082,57.07 H 2370.14 c 31.46,0 57.07,-25.61 57.07,-57.07 V 954.699 c 0,-31.48 -25.61,-57.078 -57.07,-57.078"
         style="fill:#e7e8e5;fill-opacity:1;fill-rule:nonzero;stroke:none"
         id="path30" /><path
         d="m 2602.12,3723.59 c -30.09,0 -54.57,-24.48 -54.57,-54.57 V 954.699 c 0,-30.097 24.48,-54.578 54.57,-54.578 H 4533.1 c 30.1,0 54.59,24.481 54.59,54.578 V 3669.02 c 0,30.09 -24.49,54.57 -54.59,54.57 H 2602.12 M 4533.1,897.621 H 2602.12 c -31.47,0 -57.07,25.598 -57.07,57.078 V 3669.02 c 0,31.46 25.6,57.07 57.07,57.07 H 4533.1 c 31.48,0 57.09,-25.61 57.09,-57.07 V 954.699 c 0,-31.48 -25.61,-57.078 -57.09,-57.078"
         style="fill:#e7e8e5;fill-opacity:1;fill-rule:nonzero;stroke:none"
         id="path32" /><path
         d="m 2649.05,1311.7 c -20.03,57.5 -177.96,-20.69 -242.05,-115.98 -42.69,-63.45 -68.76,-131.19 -80.94,-222.181 1.46,103.821 3.12,215.371 4.74,320.641 12.97,26.25 42.56,86.77 63.85,134.72 71.02,160 239.92,219.58 298.27,320.6 76.45,132.37 76.01,330.92 10.93,402.57 -56.56,62.27 -243.86,-358.75 -264.95,-405.78 -72.56,-161.79 -93.66,-281.85 -107.26,-398.17 1.55,98.87 3.03,189.65 4.25,259.7 3.96,228.46 8.92,301.95 11.18,324.56 7.83,11.04 17.06,23.91 22.42,30.82 45.33,58.35 145.89,127.81 196.15,212.64 73.39,123.86 61.53,272.1 10.06,327.29 -53.82,57.71 -148.97,-78.69 -199.48,-213.84 -50.51,-135.16 -28.93,-264.52 -43.1,-376.77 -2.96,-22.01 -6.01,-105.63 -8.86,-221.62 -15.33,124.8 -45.85,208.41 -102.42,286.32 -69.58,95.83 -129.64,212.52 -186.97,197.44 -57.33,-15.08 -26.47,-169.48 18.88,-277.88 40.4,-96.54 239.65,-192.82 269.01,-270.43 -3.46,-157.22 -6.55,-356.4 -8.74,-541.85 -15.71,95.79 -4.91,103.83 -69.28,250.48 -38.27,87.19 -195.16,194.71 -213.87,134.8 -18.36,-58.78 9.73,-173.12 68.96,-252.41 47.78,-63.97 153.79,-63.9 178.32,-103.59 5.72,-9.26 24.64,-44.76 35.45,-65.17 -2.56,-226.399 -3.7,-426.251 -2.44,-494.391 l 10.29,-0.688 c -0.49,17.59 0.75,132.758 2.77,285.168 25.74,81.11 199.04,128.442 252.57,212.781 56.03,88.26 96.29,191.25 72.26,260.22"
         style="fill:#e2e2e0;fill-opacity:1;fill-rule:nonzero;stroke:none"
         id="path34" /><path
         d="m 2486.1,451.629 h -332.63 c -18.18,0 -33.84,12.801 -37.45,30.621 l -23.61,116.41 h 454.74 l -23.61,-116.41 c -3.61,-17.82 -19.27,-30.621 -37.44,-30.621"
         style="fill:#ededeb;fill-opacity:1;fill-rule:nonzero;stroke:none"
         id="path36" /><path
         d="M 2556.67,553.531 H 2082.9 c -11.35,0 -20.9,8.528 -22.17,19.809 l -9.68,86.058 c -1.49,13.223 8.85,24.801 22.16,24.801 h 493.14 c 13.31,0 23.66,-11.578 22.17,-24.801 l -9.69,-86.058 c -1.27,-11.281 -10.81,-19.809 -22.16,-19.809"
         style="fill:#ededeb;fill-opacity:1;fill-rule:nonzero;stroke:none"
         id="path38" /><path
         d="m 4007.63,493.301 h 318.5 v 1359.09 h -318.5 z"
         style="fill:#ededeb;fill-opacity:1;fill-rule:nonzero;stroke:none"
         id="path40" /><path
         d="M 2654.53,493.301 H 4304.68 V 451.629 H 2654.53 v 41.672"
         style="fill:#ededeb;fill-opacity:1;fill-rule:nonzero;stroke:none"
         id="path42" /><path
         d="m 2633.08,493.301 h 1374.55 v 1359.09 H 2633.08 Z"
         style="fill:#f3f2f1;fill-opacity:1;fill-rule:nonzero;stroke:none"
         id="path44" /><path
         d="M 3882.4,1028.95 H 2758.31 v 287.78 H 3882.4 v -287.78"
         style="fill:#ededeb;fill-opacity:1;fill-rule:nonzero;stroke:none"
         id="path46" /><path
         d="M 3882.4,658.551 H 2758.31 V 946.328 H 3882.4 V 658.551"
         style="fill:#ededeb;fill-opacity:1;fill-rule:nonzero;stroke:none"
         id="path48" /><path
         d="m 3194.16,1267.08 h 252.39 c 17.08,0 31.06,13.98 31.06,31.06 0,17.09 -13.98,31.07 -31.06,31.07 h -252.39 c -17.08,0 -31.06,-13.98 -31.06,-31.07 0,-17.08 13.98,-31.06 31.06,-31.06"
         style="fill:#f3f2f1;fill-opacity:1;fill-rule:nonzero;stroke:none"
         id="path50" /><path
         d="M 2758.31,1399.36 H 3882.4 v 287.781 H 2758.31 Z"
         style="fill:#ededeb;fill-opacity:1;fill-rule:nonzero;stroke:none"
         id="path52" /><path
         d="m 3194.16,1637.49 h 252.39 c 17.08,0 31.06,13.97 31.06,31.06 0,17.08 -13.98,31.06 -31.06,31.06 h -252.39 c -17.08,0 -31.06,-13.98 -31.06,-31.06 0,-17.09 13.98,-31.06 31.06,-31.06"
         style="fill:#f3f2f1;fill-opacity:1;fill-rule:nonzero;stroke:none"
         id="path54" /><path
         d="m 3194.16,896.68 h 252.39 c 17.08,0 31.06,13.98 31.06,31.062 0,17.078 -13.98,31.059 -31.06,31.059 h -252.39 c -17.08,0 -31.06,-13.981 -31.06,-31.059 0,-17.082 13.98,-31.062 31.06,-31.062"
         style="fill:#f3f2f1;fill-opacity:1;fill-rule:nonzero;stroke:none"
         id="path56" /><path
         d="m 2604.82,1852.39 h 1402.81 v 38.7695 H 2604.82 Z"
         style="fill:#ededeb;fill-opacity:1;fill-rule:nonzero;stroke:none"
         id="path58" /><path
         d="m 4356.47,1891.16 h -348.84 v -38.77 h 348.84 v 38.77"
         style="fill:#e2e2e0;fill-opacity:1;fill-rule:nonzero;stroke:none"
         id="path60" /><path
         d="m 1474.19,451.629 h 314.668 v 2035.26 H 1474.19 Z"
         style="fill:#dadbd8;fill-opacity:1;fill-rule:nonzero;stroke:none"
         id="path62" /><path
         d="M 672.117,451.629 H 1725.82 L 1836.51,2956.76 H 782.805 L 672.117,451.629"
         style="fill:#e2e2e0;fill-opacity:1;fill-rule:nonzero;stroke:none"
         id="path64" /><path
         d="M 518.398,451.629 H 1683.95 L 1794.64,2956.76 H 629.086 L 518.398,451.629"
         style="fill:#ededeb;fill-opacity:1;fill-rule:nonzero;stroke:none"
         id="path66" /><path
         d="M 1569.86,574.441 1663.1,2833.95 H 743.18 L 649.938,574.441 h 919.922"
         style="fill:#ffffff;fill-opacity:1;fill-rule:nonzero;stroke:none"
         id="path68" /><path
         d="m 1174.59,574.441 312.69,2259.509 h -98.11 L 1076.49,574.441 h 98.1"
         style="fill:#fafaf9;fill-opacity:1;fill-rule:nonzero;stroke:none"
         id="path70" /><path
         d="M 1034.91,574.441 1347.6,2833.95 H 1180.32 L 867.633,574.441 h 167.277"
         style="fill:#fafaf9;fill-opacity:1;fill-rule:nonzero;stroke:none"
         id="path72" /><path
         d="M 2934.64,2274.44 H 4209.95 V 3467.4 H 2934.64 Z"
         style="fill:#e2e2e0;fill-opacity:1;fill-rule:nonzero;stroke:none"
         id="path74" /><path
         d="m 2895.06,2274.44 h 1296.4 V 3467.4 h -1296.4 z"
         style="fill:#f3f2f1;fill-opacity:1;fill-rule:nonzero;stroke:none"
         id="path76" /><path
         d="m 2934.64,2225.62 h 1275.31 v 48.8203 H 2934.64 Z"
         style="fill:#e2e2e0;fill-opacity:1;fill-rule:nonzero;stroke:none"
         id="path78" /><path
         d="m 2859.54,2225.62 h 1209.79 v 48.8203 H 2859.54 Z"
         style="fill:#f3f2f1;fill-opacity:1;fill-rule:nonzero;stroke:none"
         id="path80" /><path
         d="M 2950.47,2348.36 H 4136.05 V 3393.49 H 2950.47 Z"
         style="fill:#fafaf9;fill-opacity:1;fill-rule:nonzero;stroke:none"
         id="path82" /><path
         d="m 2950.47,2348.36 h 7.9023 v 1045.13 h -7.9023 z"
         style="fill:#e2e2e0;fill-opacity:1;fill-rule:nonzero;stroke:none"
         id="path84" /><path
         d="m 3939.44,2348.36 -204.99,1045.12 h -268.73 l 205,-1045.12 h 268.72"
         style="fill:#ffffff;fill-opacity:1;fill-rule:nonzero;stroke:none"
         id="path86" /><path
         d="m 3627.23,2348.36 -204.99,1045.12 h -121.36 l 204.99,-1045.12 h 121.36"
         style="fill:#ffffff;fill-opacity:1;fill-rule:nonzero;stroke:none"
         id="path88" /><path
         d="m 4096.42,2405.07 v 1103.38 c 0,3.35 -2.74,6.1 -6.1,6.1 h -0.48 c -3.36,0 -6.1,-2.75 -6.1,-6.1 V 2405.07 c 0,-3.36 2.74,-6.1 6.1,-6.1 h 0.48 c 3.36,0 6.1,2.74 6.1,6.1"
         style="fill:#e7e8e5;fill-opacity:1;fill-rule:nonzero;stroke:none"
         id="path90" /><path
         d="m 4231.47,3331.96 h -21.52 v 135.45 h -113.53 v 41.04 c 0,3.35 -2.74,6.1 -6.1,6.1 h 141.15 v -182.59"
         style="fill:#f0f0ee;fill-opacity:1;fill-rule:nonzero;stroke:none"
         id="path92" /><path
         d="m 4209.95,3331.96 h -18.49 v 135.45 h -95.04 113.53 v -135.45"
         style="fill:#e2e2e0;fill-opacity:1;fill-rule:nonzero;stroke:none"
         id="path94" /><path
         d="m 4191.46,3331.96 h -55.41 v 61.52 h -39.63 v 73.93 h 95.04 v -135.45"
         style="fill:#eaeae7;fill-opacity:1;fill-rule:nonzero;stroke:none"
         id="path96" /><path
         d="m 4096.42,3331.96 h 39.6289 v 61.5195 H 4096.42 Z"
         style="fill:#ededeb;fill-opacity:1;fill-rule:nonzero;stroke:none"
         id="path98" /><path
         d="m 2895.06,3331.96 h -29.07 v 182.59 h 1223.85 c -3.36,0 -6.1,-2.75 -6.1,-6.1 v -41.04 h -1149.1 -39.58 v -135.45"
         style="fill:#f0f0ee;fill-opacity:1;fill-rule:nonzero;stroke:none"
         id="path100" /><path
         d="m 2950.47,3331.96 h -55.41 v 135.45 h 1188.68 v -73.93 H 2950.47 v -61.52"
         style="fill:#eaeae7;fill-opacity:1;fill-rule:nonzero;stroke:none"
         id="path102" /><path
         d="m 4083.74,3331.96 h -337.23 l -12.06,61.52 h -268.73 l 12.07,-61.52 h -43.49 l -12.06,61.52 h -121.36 l 12.06,-61.52 h -354.57 v 61.52 h -7.9 v -61.52 61.52 h 1133.27 v -61.52"
         style="fill:#ededeb;fill-opacity:1;fill-rule:nonzero;stroke:none"
         id="path104" /><path
         d="m 2950.47,3331.96 h 7.9023 v 61.5195 h -7.9023 z"
         style="fill:#e2e2e0;fill-opacity:1;fill-rule:nonzero;stroke:none"
         id="path106" /><path
         d="m 3746.51,3331.96 h -268.72 l -12.07,61.52 h 268.73 l 12.06,-61.52"
         style="fill:#efefed;fill-opacity:1;fill-rule:nonzero;stroke:none"
         id="path108" /><path
         d="m 3434.3,3331.96 h -121.36 l -12.06,61.52 h 121.36 l 12.06,-61.52"
         style="fill:#efefed;fill-opacity:1;fill-rule:nonzero;stroke:none"
         id="path110" /><path
         d="m 4096.42,3331.96 h -12.68 v 176.49 c 0,3.35 2.74,6.1 6.1,6.1 h 0.48 c 3.36,0 6.1,-2.75 6.1,-6.1 v -41.04 -73.93 -61.52"
         style="fill:#e4e4e2;fill-opacity:1;fill-rule:nonzero;stroke:none"
         id="path112" /><path
         d="m 2865.99,3491.87 h 1365.48 v 22.68 H 2865.99 v -22.68"
         style="fill:#dadbd8;fill-opacity:1;fill-rule:nonzero;stroke:none"
         id="path114" /><path
         d="m 2868.24,3504.6 h 1360.98 c 4.79,0 8.7,3.92 8.7,8.7 v 2.5 c 0,4.79 -3.91,8.7 -8.7,8.7 H 2868.24 c -4.78,0 -8.7,-3.91 -8.7,-8.7 v -2.5 c 0,-4.78 3.92,-8.7 8.7,-8.7"
         style="fill:#e7e8e5;fill-opacity:1;fill-rule:nonzero;stroke:none"
         id="path116" /><path
         d="m 2864.3,3327.21 h 1368.87 c 2.61,0 4.75,2.14 4.75,4.75 0,2.62 -2.14,4.76 -4.75,4.76 H 2864.3 c -2.62,0 -4.76,-2.14 -4.76,-4.76 0,-2.61 2.14,-4.75 4.76,-4.75"
         style="fill:#ffffff;fill-opacity:1;fill-rule:nonzero;stroke:none"
         id="path118" /><path
         d="M 4438.89,113.238 C 4438.89,50.6992 3570.82,0 2500,0 1429.18,0 561.109,50.6992 561.109,113.238 c 0,62.532 868.071,113.231 1938.891,113.231 1070.82,0 1938.89,-50.699 1938.89,-113.231"
         style="fill:#f3f2f1;fill-opacity:1;fill-rule:nonzero;stroke:none"
         id="path120" /><path
         d="m 656.367,1399.68 -18.008,153.96 10.086,1.18 18.008,-153.96 -10.086,-1.18"
         style="fill:#406fbf;fill-opacity:1;fill-rule:nonzero;stroke:none"
         id="path122" /><path
         d="m 672.141,1264.81 -9.082,77.64 10.086,1.19 9.082,-77.65 -10.086,-1.18"
         style="fill:#406fbf;fill-opacity:1;fill-rule:nonzero;stroke:none"
         id="path124" /><path
         d="m 1345.87,1868.73 -11.99,33.64 c -17.01,47.7 -64.7,77.33 -114.99,71.44 l -477.91,-55.89 c -59.617,-6.98 -102.292,-60.96 -95.32,-120.57 L 781.688,634.309 c 4.781,-40.887 41.8,-70.149 82.683,-65.368 L 2574.26,768.93 c 40.88,4.781 70.15,41.8 65.37,82.679 L 2522.04,1857.01 c -4.78,40.89 -41.8,70.15 -82.69,65.37 l -992.91,-116.13 c -43.98,-5.14 -85.69,20.77 -100.57,62.48"
         style="fill:#406fbf;fill-opacity:1;fill-rule:nonzero;stroke:none"
         id="path126" /><path
         d="m 1541.99,1630.19 -540.28,-107.67 -148.339,744.33 540.269,107.67 148.35,-744.33"
         style="fill:#406fbf;fill-opacity:1;fill-rule:nonzero;stroke:none"
         id="path128" /><path
         d="m 927.176,1896.52 -73.805,370.33 250.049,49.83 8.91,-102.21 -135.295,-26.97 c -16.137,-3.21 -26.613,-18.9 -23.398,-35.04 2.824,-14.18 15.269,-23.98 29.191,-23.98 1.93,0 3.891,0.19 5.856,0.58 l 128.856,25.68 5.75,-66.05 -121.73,-24.26 c -16.134,-3.22 -26.611,-18.91 -23.392,-35.05 2.824,-14.17 15.266,-23.98 29.192,-23.98 1.93,0 3.89,0.19 5.85,0.58 l 115.29,22.98 5.76,-66.05 -108.17,-21.56 c -16.14,-3.22 -26.613,-18.91 -23.4,-35.05 0.07,-0.31 0.13,-0.62 0.21,-0.92 l -75.724,-8.86"
         style="fill:#b8d2ef;fill-opacity:1;fill-rule:nonzero;stroke:none"
         id="path130" /><path
         d="m 982.828,2128.48 c -13.922,0 -26.367,9.8 -29.191,23.98 -3.215,16.14 7.261,31.83 23.398,35.04 l 135.295,26.97 5.21,-59.73 -128.856,-25.68 c -1.965,-0.39 -3.926,-0.58 -5.856,-0.58"
         style="fill:#80a8de;fill-opacity:1;fill-rule:nonzero;stroke:none"
         id="path132" /><path
         d="m 1007.36,2005.4 c -13.926,0 -26.368,9.81 -29.192,23.98 -3.219,16.14 7.258,31.83 23.392,35.05 l 121.73,24.26 5.21,-59.73 -115.29,-22.98 c -1.96,-0.39 -3.92,-0.58 -5.85,-0.58"
         style="fill:#80a8de;fill-opacity:1;fill-rule:nonzero;stroke:none"
         id="path134" /><path
         d="m 1002.9,1905.38 c -0.08,0.3 -0.14,0.61 -0.21,0.92 -3.213,16.14 7.26,31.83 23.4,35.05 l 108.17,21.56 3.63,-41.75 -134.99,-15.78"
         style="fill:#80a8de;fill-opacity:1;fill-rule:nonzero;stroke:none"
         id="path136" /><path
         d="m 2266.37,1766.11 -545.81,-74.7 -102.91,751.96 545.81,74.7 102.91,-751.96"
         style="fill:#406fbf;fill-opacity:1;fill-rule:nonzero;stroke:none"
         id="path138" /><path
         d="m 1705.76,1799.56 -11.8,86.21 -45.53,522.43 -25.66,-2.23 -5.12,37.4 545.81,74.7 10.93,-79.88 -407.35,-19.67 2.76,-57.27 -33.53,-4.58 c -16.3,-2.24 -27.71,-17.26 -25.48,-33.57 2.05,-14.93 14.82,-25.76 29.49,-25.76 1.34,0 2.71,0.1 4.08,0.28 l 28.33,3.88 3.19,-66.08 -22.59,-3.09 c -16.3,-2.23 -27.71,-17.26 -25.48,-33.56 2.04,-14.94 14.82,-25.76 29.48,-25.76 1.35,0 2.71,0.09 4.08,0.28 l 17.39,2.38 3.19,-66.08 -11.64,-1.6 c -16.3,-2.23 -27.71,-17.26 -25.48,-33.56 v 0 c 2.04,-14.93 14.82,-25.76 29.48,-25.76 1.35,0 2.71,0.09 4.08,0.28 l 6.45,0.88 3.19,-66.08 -0.7,-0.1 c -16.31,-2.23 -27.72,-17.25 -25.49,-33.56 2.03,-14.79 14.58,-25.55 29.06,-25.75 l 3.3,-68.33 c -10.6,-5.74 -17.07,-17.61 -15.34,-30.25 0.9,-6.55 3.85,-12.3 8.13,-16.7 l -81.23,-9.5"
         style="fill:#b8d2ef;fill-opacity:1;fill-rule:nonzero;stroke:none"
         id="path140" /><path
         d="m 1740.28,2297.34 c -14.67,0 -27.44,10.83 -29.49,25.76 -2.23,16.31 9.18,31.33 25.48,33.57 l 33.53,4.58 2.89,-59.75 -28.33,-3.88 c -1.37,-0.18 -2.74,-0.28 -4.08,-0.28"
         style="fill:#80a8de;fill-opacity:1;fill-rule:nonzero;stroke:none"
         id="path142" /><path
         d="m 1757.29,2173.01 c -14.66,0 -27.44,10.82 -29.48,25.76 -2.23,16.3 9.18,31.33 25.48,33.56 l 22.59,3.09 2.88,-59.75 -17.39,-2.38 c -1.37,-0.19 -2.73,-0.28 -4.08,-0.28"
         style="fill:#80a8de;fill-opacity:1;fill-rule:nonzero;stroke:none"
         id="path144" /><path
         d="m 1774.31,2048.67 c -14.66,0 -27.44,10.83 -29.48,25.76 v 0 c -2.23,16.3 9.18,31.33 25.48,33.56 l 11.64,1.6 2.89,-59.76 -6.45,-0.88 c -1.37,-0.19 -2.73,-0.28 -4.08,-0.28"
         style="fill:#80a8de;fill-opacity:1;fill-rule:nonzero;stroke:none"
         id="path146" /><path
         d="m 1790.9,1924.34 c -14.48,0.2 -27.03,10.96 -29.06,25.75 -2.23,16.31 9.18,31.33 25.49,33.56 l 0.7,0.1 2.87,-59.41"
         style="fill:#80a8de;fill-opacity:1;fill-rule:nonzero;stroke:none"
         id="path148" /><path
         d="m 1786.99,1809.06 c -4.28,4.4 -7.23,10.15 -8.13,16.7 -1.73,12.64 4.74,24.51 15.34,30.25 l 2.21,-45.85 -9.42,-1.1"
         style="fill:#80a8de;fill-opacity:1;fill-rule:nonzero;stroke:none"
         id="path150" /><path
         d="m 1714.33,1652.1 -548.82,-47.83 -65.89,756.1 548.81,47.83 65.9,-756.1"
         style="fill:#406fbf;fill-opacity:1;fill-rule:nonzero;stroke:none"
         id="path152" /><path
         d="m 1580.93,1785.61 c -39.22,0 -72.52,24.31 -82.44,61.59 l -2.03,7.65 93.32,8.13 c 16.39,1.43 28.52,15.88 27.09,32.27 -1.35,15.52 -14.36,27.21 -29.65,27.21 -0.86,0 -1.74,-0.03 -2.62,-0.11 l -110.66,-9.64 c -17.85,23.64 -46.43,37.83 -78.47,37.83 -4.24,0 -8.54,-0.25 -12.89,-0.76 l -244.69,-28.62 -9.39,107.8 -5.21,59.73 -5.75,66.05 -5.21,59.73 -12.71,145.9 548.81,47.83 53.09,-609.14 -109.32,-12.79 c -3.8,-0.44 -7.56,-0.66 -11.27,-0.66 m -4.6,261.88 c -0.87,0 -1.74,-0.04 -2.62,-0.12 l -338.07,-29.46 c -16.4,-1.43 -28.53,-15.88 -27.1,-32.27 1.35,-15.52 14.36,-27.22 29.65,-27.22 0.87,0 1.74,0.04 2.62,0.12 l 338.07,29.46 c 16.39,1.43 28.53,15.88 27.1,32.28 -1.35,15.51 -14.37,27.21 -29.65,27.21 m -10.9,125.02 c -0.86,0 -1.74,-0.04 -2.62,-0.12 l -338.07,-29.46 c -16.39,-1.43 -28.53,-15.88 -27.1,-32.27 1.35,-15.52 14.37,-27.21 29.65,-27.21 0.87,0 1.75,0.03 2.62,0.11 l 338.07,29.47 c 16.4,1.42 28.53,15.87 27.1,32.27 -1.35,15.51 -14.36,27.21 -29.65,27.21 m -10.9,125.02 c -0.86,0 -1.74,-0.04 -2.62,-0.11 l -338.07,-29.47 c -16.39,-1.43 -28.52,-15.87 -27.09,-32.27 1.35,-15.51 14.36,-27.21 29.65,-27.21 0.86,0 1.74,0.04 2.62,0.11 l 338.07,29.47 c 16.39,1.43 28.52,15.88 27.09,32.27 -1.35,15.52 -14.36,27.21 -29.65,27.21"
         style="fill:#cfe0f5;fill-opacity:1;fill-rule:nonzero;stroke:none"
         id="path154" /><path
         d="m 1216.4,2208.47 c -15.29,0 -28.3,11.7 -29.65,27.21 -1.43,16.4 10.7,30.84 27.09,32.27 l 338.07,29.47 c 0.88,0.07 1.76,0.11 2.62,0.11 15.29,0 28.3,-11.69 29.65,-27.21 1.43,-16.39 -10.7,-30.84 -27.09,-32.27 l -338.07,-29.47 c -0.88,-0.07 -1.76,-0.11 -2.62,-0.11"
         style="fill:#8bb2e3;fill-opacity:1;fill-rule:nonzero;stroke:none"
         id="path156" /><path
         d="m 1227.29,2083.45 c -15.28,0 -28.3,11.69 -29.65,27.21 -1.43,16.39 10.71,30.84 27.1,32.27 l 338.07,29.46 c 0.88,0.08 1.76,0.12 2.62,0.12 15.29,0 28.3,-11.7 29.65,-27.21 1.43,-16.4 -10.7,-30.85 -27.1,-32.27 l -338.07,-29.47 c -0.87,-0.08 -1.75,-0.11 -2.62,-0.11"
         style="fill:#8bb2e3;fill-opacity:1;fill-rule:nonzero;stroke:none"
         id="path158" /><path
         d="m 1238.19,1958.42 c -15.29,0 -28.3,11.7 -29.65,27.22 -1.43,16.39 10.7,30.84 27.1,32.27 l 338.07,29.46 c 0.88,0.08 1.75,0.12 2.62,0.12 15.28,0 28.3,-11.7 29.65,-27.21 1.43,-16.4 -10.71,-30.85 -27.1,-32.28 l -338.07,-29.46 c -0.88,-0.08 -1.75,-0.12 -2.62,-0.12"
         style="fill:#8bb2e3;fill-opacity:1;fill-rule:nonzero;stroke:none"
         id="path160" /><path
         d="m 1496.46,1854.85 -6.73,25.27 c -3.24,12.17 -8.66,23.13 -15.79,32.59 l 110.66,9.64 c 0.88,0.08 1.76,0.11 2.62,0.11 15.29,0 28.3,-11.69 29.65,-27.21 1.43,-16.39 -10.7,-30.84 -27.09,-32.27 l -93.32,-8.13"
         style="fill:#8bb2e3;fill-opacity:1;fill-rule:nonzero;stroke:none"
         id="path162" /><path
         d="m 2353.89,1687 -550.25,-26.56 -36.6,758.08 550.26,26.57 36.59,-758.09"
         style="fill:#406fbf;fill-opacity:1;fill-rule:nonzero;stroke:none"
         id="path164" /><path
         d="m 1796.41,1810.16 -11.57,239.67 -2.89,59.76 -3.19,66.08 -2.88,59.75 -3.19,66.08 -2.89,59.75 -2.76,57.27 550.26,26.57 27.55,-570.79 -548.44,-64.14 m 439.77,151.94 c -0.48,0 -0.97,-0.01 -1.46,-0.03 l -338.96,-16.36 c -16.44,-0.8 -29.12,-14.77 -28.32,-31.2 0.77,-15.95 13.94,-28.36 29.73,-28.36 0.49,0 0.98,0.01 1.47,0.03 l 338.95,16.36 c 16.44,0.8 29.12,14.77 28.33,31.2 v 0 c -0.77,15.95 -13.94,28.36 -29.74,28.36 m -251.61,113.5 c -0.49,0 -0.97,-0.01 -1.46,-0.03 l -93.4,-4.51 c -16.44,-0.8 -29.12,-14.77 -28.33,-31.2 0.77,-15.95 13.95,-28.36 29.74,-28.36 0.49,0 0.97,0.01 1.46,0.03 l 93.4,4.51 c 16.44,0.79 29.12,14.76 28.33,31.2 -0.77,15.95 -13.94,28.36 -29.74,28.36 m 181.11,8.74 c -0.49,0 -0.98,-0.01 -1.46,-0.03 l -93.4,-4.51 c -16.44,-0.79 -29.12,-14.76 -28.33,-31.2 0.77,-15.95 13.94,-28.36 29.74,-28.36 0.48,0 0.97,0.01 1.46,0.03 l 93.4,4.51 c 16.44,0.8 29.12,14.77 28.32,31.2 -0.77,15.95 -13.94,28.36 -29.73,28.36 m 58.4,128.47 c -0.49,0 -0.98,-0.02 -1.46,-0.04 l -338.96,-16.36 c -16.44,-0.8 -29.12,-14.77 -28.33,-31.2 0.77,-15.95 13.94,-28.36 29.74,-28.36 0.49,0 0.97,0.01 1.46,0.03 l 338.96,16.37 c 16.44,0.79 29.12,14.76 28.32,31.19 -0.77,15.95 -13.94,28.37 -29.73,28.37 m -6.06,125.35 c -0.48,0 -0.97,-0.02 -1.46,-0.04 l -338.95,-16.36 c -16.44,-0.8 -29.12,-14.77 -28.33,-31.2 0.77,-15.95 13.94,-28.36 29.74,-28.36 0.48,0 0.97,0.01 1.46,0.03 l 338.96,16.37 c 16.43,0.79 29.12,14.76 28.32,31.19 -0.77,15.95 -13.94,28.37 -29.74,28.37"
         style="fill:#cfe0f5;fill-opacity:1;fill-rule:nonzero;stroke:none"
         id="path166" /><path
         d="m 1879.02,2262.2 c -15.8,0 -28.97,12.41 -29.74,28.36 -0.79,16.43 11.89,30.4 28.33,31.2 l 338.95,16.36 c 0.49,0.02 0.98,0.04 1.46,0.04 15.8,0 28.97,-12.42 29.74,-28.37 0.8,-16.43 -11.89,-30.4 -28.32,-31.19 l -338.96,-16.37 c -0.49,-0.02 -0.98,-0.03 -1.46,-0.03"
         style="fill:#8bb2e3;fill-opacity:1;fill-rule:nonzero;stroke:none"
         id="path168" /><path
         d="m 1885.07,2136.85 c -15.8,0 -28.97,12.41 -29.74,28.36 -0.79,16.43 11.89,30.4 28.33,31.2 l 338.96,16.36 c 0.48,0.02 0.97,0.04 1.46,0.04 15.79,0 28.96,-12.42 29.73,-28.37 0.8,-16.43 -11.88,-30.4 -28.32,-31.19 l -338.96,-16.37 c -0.49,-0.02 -0.97,-0.03 -1.46,-0.03"
         style="fill:#8bb2e3;fill-opacity:1;fill-rule:nonzero;stroke:none"
         id="path170" /><path
         d="m 1891.12,2011.5 c -15.79,0 -28.97,12.41 -29.74,28.36 -0.79,16.43 11.89,30.4 28.33,31.2 l 93.4,4.51 c 0.49,0.02 0.97,0.03 1.46,0.03 15.8,0 28.97,-12.41 29.74,-28.36 0.79,-16.44 -11.89,-30.41 -28.33,-31.2 l -93.4,-4.51 c -0.49,-0.02 -0.97,-0.03 -1.46,-0.03"
         style="fill:#8bb2e3;fill-opacity:1;fill-rule:nonzero;stroke:none"
         id="path172" /><path
         d="m 2072.23,2020.24 c -15.8,0 -28.97,12.41 -29.74,28.36 -0.79,16.44 11.89,30.41 28.33,31.2 l 93.4,4.51 c 0.48,0.02 0.97,0.03 1.46,0.03 15.79,0 28.96,-12.41 29.73,-28.36 0.8,-16.43 -11.88,-30.4 -28.32,-31.2 l -93.4,-4.51 c -0.49,-0.02 -0.98,-0.03 -1.46,-0.03"
         style="fill:#8bb2e3;fill-opacity:1;fill-rule:nonzero;stroke:none"
         id="path174" /><path
         d="m 1897.17,1886.15 c -15.79,0 -28.96,12.41 -29.73,28.36 -0.8,16.43 11.88,30.4 28.32,31.2 l 338.96,16.36 c 0.49,0.02 0.98,0.03 1.46,0.03 15.8,0 28.97,-12.41 29.74,-28.36 v 0 c 0.79,-16.43 -11.89,-30.4 -28.33,-31.2 l -338.95,-16.36 c -0.49,-0.02 -0.98,-0.03 -1.47,-0.03"
         style="fill:#8bb2e3;fill-opacity:1;fill-rule:nonzero;stroke:none"
         id="path176" /><path
         d="m 1498.49,1847.2 -8.76,32.92 c -12.42,46.65 -56.85,75.55 -107.15,69.66 L 904.676,1893.89 C 845.063,1886.92 797.859,1833.96 799.25,1775.6 L 826.367,637.16 c 0.953,-40.019 34.867,-68.59 75.75,-63.808 L 2612.01,773.34 c 40.88,4.781 73.25,41.101 72.3,81.121 l -23.44,984.139 c -0.96,40.02 -34.87,68.58 -75.76,63.8 L 1592.2,1786.27 c -43.98,-5.14 -82.85,20.13 -93.71,60.93"
         style="fill:#406fbf;fill-opacity:1;fill-rule:nonzero;stroke:none"
         id="path178" /><path
         d="m 893.23,572.832 c -36.8,0 -65.98,27.246 -66.863,64.328 L 799.25,1775.6 c -0.02,0.8 -0.031,1.6 -0.031,2.39 -0.067,57.41 46.656,109.02 105.457,115.9 l 477.904,55.89 c 4.35,0.51 8.65,0.76 12.89,0.76 44.84,0 82.92,-27.8 94.26,-70.42 l 8.76,-32.92 c 9.92,-37.28 43.22,-61.59 82.44,-61.59 3.71,0 7.47,0.22 11.27,0.66 l 992.91,116.13 c 3.01,0.35 5.97,0.53 8.89,0.53 36.8,0 65.98,-27.25 66.87,-64.33 l 23.44,-984.139 c 0.01,-0.551 0.02,-1.09 0.02,-1.641 0.03,-32.191 -21.39,-61.73 -51.25,-74.011 -6.65,-2.727 -13.72,-4.61 -21.07,-5.469 l -289.06,-33.809 -12.02,-1.402 -1132.01,-132.399 -99.72,-11.66 -42.26,-4.949 -125.502,-14.68 -9.321,-1.089 c -3.004,-0.352 -5.969,-0.52 -8.887,-0.52"
         style="fill:#2d5bb2;fill-opacity:1;fill-rule:nonzero;stroke:none"
         id="path180" /><path
         d="m 3170.28,2394.52 c -7.39,-37.16 -15.31,-73.69 -24.17,-110.23 -8.7,-36.52 -17.61,-72.98 -27.31,-109.25 l -14.77,-54.36 -1.94,-6.94 c -0.9,-2.99 -1.88,-6.02 -3.05,-9.11 -2.35,-6.2 -5.33,-12.69 -9.79,-19.31 -4.36,-6.56 -10.52,-13.48 -18.66,-18.98 -8.1,-5.52 -18.18,-9.04 -27.31,-9.85 -18.63,-1.46 -31.99,4.14 -42.88,9.47 -10.85,5.74 -19.7,12.33 -27.79,19.23 -16.09,14.06 -28.77,28.86 -40.7,45.88 l 27.81,25.01 c 13.56,-10.31 28.64,-20.84 42.96,-28.53 7.14,-3.91 14.31,-7.16 20.59,-8.92 6.15,-2 11.5,-1.73 11.56,-0.71 l -1.5,0.32 c -0.58,0.01 -0.46,0.25 0.01,1.67 0.44,1.35 1.17,3.49 1.81,6.15 l 2.3,11.01 11.67,54.63 23.49,109.2 c 7.62,36.39 15.78,72.87 23.72,108.89 l 73.95,-15.27"
         style="fill:#f9a8b3;fill-opacity:1;fill-rule:nonzero;stroke:none"
         id="path182" /><path
         d="m 3136.85,2508.79 c -85.31,-65.31 -81.88,-188.37 -81.88,-188.37 l 152.58,-36.47 c 0,0 46.81,123.73 27.82,169.04 -19.82,47.27 -50.51,92.56 -98.52,55.8"
         style="fill:#17282f;fill-opacity:1;fill-rule:nonzero;stroke:none"
         id="path184" /><path
         d="m 2967.56,2154.12 -56.1,56.09 -30.26,-87.76 c 0,0 47.36,-25.57 92.69,-1.46 l -6.33,33.13"
         style="fill:#f9a8b3;fill-opacity:1;fill-rule:nonzero;stroke:none"
         id="path186" /><path
         d="m 2833.83,2218.87 -10.31,-69.35 57.68,-27.07 30.26,87.76 -77.63,8.66"
         style="fill:#f9a8b3;fill-opacity:1;fill-rule:nonzero;stroke:none"
         id="path188" /><path
         d="m 3631.22,187.031 -85.81,-8.383 -89.29,204.243 85.81,8.379 89.29,-204.239"
         style="fill:#f9a8b3;fill-opacity:1;fill-rule:nonzero;stroke:none"
         id="path190" /><path
         d="m 4183.99,488.98 -64.45,-60.519 -139.13,152.918 64.44,60.512 139.14,-152.911"
         style="fill:#f9a8b3;fill-opacity:1;fill-rule:nonzero;stroke:none"
         id="path192" /><path
         d="m 4089.79,457.492 48.43,87.258 c 1.76,3.172 5.4,4.531 8.74,3.25 l 74.56,-28.371 c 7.73,-2.949 11.09,-12.867 6.9,-20.117 -17.41,-30.133 -27.33,-43.801 -48.63,-82.18 -13.1,-23.602 -38.62,-77.75 -56.71,-110.352 -17.7,-31.89 -51.3,-16.449 -46.68,-1.25 20.69,68.129 16.8,106.059 10.96,136.129 -1.06,5.422 -0.15,10.981 2.43,15.633"
         style="fill:#17282f;fill-opacity:1;fill-rule:nonzero;stroke:none"
         id="path194" /><path
         d="m 3534.01,205.16 h 105.39 c 3.83,0 7.29,-2.66 8.32,-6.41 l 22.92,-83.371 c 2.37,-8.649 -3.99,-16.5977 -12.86,-16.6798 -37.14,-0.3398 -54.74,-0.1797 -101.09,-0.1797 -28.51,0 -102.27,0 -141.64,0 -38.51,0 -46.56,38.9415 -30.63,42.4605 71.44,15.809 112.63,37.61 134.67,58.411 3.98,3.75 9.31,5.769 14.92,5.769"
         style="fill:#17282f;fill-opacity:1;fill-rule:nonzero;stroke:none"
         id="path196" /><path
         d="m 3591.68,277.551 h -0.04 l -14.61,33.437 h 0.04 l 14.61,-33.437"
         style="fill:#c3c5c2;fill-opacity:1;fill-rule:nonzero;stroke:none"
         id="path198" /><path
         d="m 3591.64,277.551 h -89.47 l -13.62,31.168 88.48,2.269 14.61,-33.437"
         style="fill:#d8898c;fill-opacity:1;fill-rule:nonzero;stroke:none"
         id="path200" /><path
         d="m 4116.61,563.031 -22.02,24.199 0.04,0.032 22.03,-24.192 -0.05,-0.039"
         style="fill:#b6b8b6;fill-opacity:1;fill-rule:nonzero;stroke:none"
         id="path202" /><path
         d="m 4052.18,502.539 -19.26,21.152 61.67,63.539 22.02,-24.199 -64.43,-60.492"
         style="fill:#d8898c;fill-opacity:1;fill-rule:nonzero;stroke:none"
         id="path204" /><path
         d="m 3162.61,2521.44 c 0,0 -38.57,-16.96 90.8,-528.96 142.63,12.33 290.04,25.08 359.44,31.09 -18.69,145.76 -26.66,235.96 17.29,542.23 0,0 -76.72,9.86 -154.37,6.9 -60.74,-2.31 -110.46,-4.67 -163.21,-14.12 -69.55,-12.46 -149.95,-37.14 -149.95,-37.14"
         style="fill:#17282f;fill-opacity:1;fill-rule:nonzero;stroke:none"
         id="path206" /><path
         d="m 3475.77,2575.22 c 0,0 20.39,-0.37 44.48,-0.37 14.46,-22.34 -32.58,-119.97 -110.39,-183.93 -18.75,58.29 -62.48,90.56 -62.48,90.56 l 128.39,93.74"
         style="fill:#ffffff;fill-opacity:1;fill-rule:nonzero;stroke:none"
         id="path208" /><path
         d="m 3312.61,2559.88 c 0,0 -9.09,-1.29 -30.85,-6.25 -14.45,-22.35 -38.97,-117.59 3.69,-166.22 16.65,60.02 61.93,94.07 61.93,94.07 l -34.77,78.4"
         style="fill:#ffffff;fill-opacity:1;fill-rule:nonzero;stroke:none"
         id="path210" /><path
         d="m 3443.71,2755.09 c -5.76,-53.41 -7.71,-150.52 32.06,-182.39 0,0 -42.48,-43.35 -128.39,-91.22 -62.5,43.19 -34.82,77.1 -34.82,77.1 57.35,19.05 52.08,62.37 38.35,102.29 l 92.8,94.22"
         style="fill:#f9a8b3;fill-opacity:1;fill-rule:nonzero;stroke:none"
         id="path212" /><path
         d="m 3345.93,2481.22 c 0,0 52.71,57.38 79.91,46.35 27.21,-11.02 6.2,-30.68 3.78,-49.14 -2.43,-18.46 10.57,-67.73 -25.92,-54.93 -36.49,12.8 -57.77,57.72 -57.77,57.72"
         style="fill:#406fbf;fill-opacity:1;fill-rule:nonzero;stroke:none"
         id="path214" /><path
         d="m 3343.79,2482.38 c 0,0 -24.86,44.03 -51.76,38.15 -26.89,-5.87 -10.88,-21.34 -8.5,-37.88 3.05,-21.28 -19.36,-62 13.08,-50.51 31.56,11.19 47.18,50.24 47.18,50.24"
         style="fill:#406fbf;fill-opacity:1;fill-rule:nonzero;stroke:none"
         id="path216" /><path
         d="m 3335.15,2466.07 c -0.01,0 -0.01,0.01 -0.02,0.02 0.89,1.4 1.72,2.76 2.47,4.06 -0.75,-1.3 -1.57,-2.67 -2.45,-4.08"
         style="fill:#111d23;fill-opacity:1;fill-rule:nonzero;stroke:none"
         id="path218" /><path
         d="m 3335.13,2466.09 c -2.97,5.08 -4.75,13.55 -5.01,25.83 -0.06,3.47 0.18,6.11 0.94,8.12 7.87,-9.07 12.7,-17.69 12.7,-17.69 0,0 -2.09,-5.14 -6.16,-12.2 -0.75,-1.3 -1.58,-2.66 -2.47,-4.06"
         style="fill:#3563b7;fill-opacity:1;fill-rule:nonzero;stroke:none"
         id="path220" /><path
         d="m 3345.95,2481.24 c 0,0.01 0,0.01 0,0.01 0,0 0.24,0.26 0.7,0.74 v 0 c -0.38,-0.41 -0.62,-0.66 -0.7,-0.75"
         style="fill:#c3c5c2;fill-opacity:1;fill-rule:nonzero;stroke:none"
         id="path222" /><path
         d="m 3346.65,2481.99 v 0 c 2.15,2.29 9.15,9.58 18.45,17.78 0,-0.01 0.01,-0.02 0.01,-0.03 -9.27,-8.15 -16.27,-15.43 -18.46,-17.75"
         style="fill:#d8898c;fill-opacity:1;fill-rule:nonzero;stroke:none"
         id="path224" /><path
         d="m 3356.24,2463.92 c -6.63,9.73 -10.21,17.16 -10.29,17.32 0.08,0.09 0.32,0.34 0.7,0.75 2.19,2.32 9.19,9.6 18.46,17.75 1.33,-2.81 1.79,-6.89 0.88,-13.1 -1.63,-12.02 -5.29,-18.94 -9.75,-22.72"
         style="fill:#3563b7;fill-opacity:1;fill-rule:nonzero;stroke:none"
         id="path226" /><path
         d="m 3345.26,2463.17 c -7.44,-0.03 -12.04,8.14 -12.58,27.47 -0.55,19.32 14.31,8.59 14.31,8.59 0,0 19.76,10.33 16.41,-13.17 -2.6,-18.26 -10.44,-22.86 -18.14,-22.89"
         style="fill:#406fbf;fill-opacity:1;fill-rule:nonzero;stroke:none"
         id="path228" /><path
         d="m 3358.49,2632.39 c -0.11,0.7 -0.23,1.41 -0.36,2.12 0.13,-0.7 0.26,-1.42 0.38,-2.12 -0.01,0 -0.01,0 -0.02,0 m -7.54,28.53 v 0 l 9.55,9.69 -9.55,-9.69"
         style="fill:#bfc0be;fill-opacity:1;fill-rule:nonzero;stroke:none"
         id="path230" /><path
         d="m 3358.51,2632.39 c -0.12,0.7 -0.25,1.42 -0.38,2.12 -1.56,8.78 -4.14,17.67 -7.18,26.41 l 9.55,9.69 45.38,46.04 c 2.37,-5.28 7.21,-20.72 7.03,-32.51 -0.35,-23.62 -32.31,-46.57 -54.4,-51.75"
         style="fill:#d8898c;fill-opacity:1;fill-rule:nonzero;stroke:none"
         id="path232" /><path
         d="m 3358.82,2935.49 c 0,0 -59.81,-83.11 -69.7,-120.41 -40.81,-23.74 -49.05,93.34 -27.41,165.56 67.04,-41.78 97.11,-45.15 97.11,-45.15"
         style="fill:#17282f;fill-opacity:1;fill-rule:nonzero;stroke:none"
         id="path234" /><path
         d="m 3490.69,2838.53 c -22.28,-85.3 -29.89,-121.89 -82.21,-157.63 -78.7,-53.77 -178.6,-7.75 -182.26,82.49 -3.3,81.22 33.69,207.07 124.96,224.82 89.92,17.48 161.78,-64.38 139.51,-149.68"
         style="fill:#f9a8b3;fill-opacity:1;fill-rule:nonzero;stroke:none"
         id="path236" /><path
         d="m 3537.06,2872.56 c 0,0 -42.86,-69.42 -48.62,-99.63 -31.11,-21.16 -44.25,71.43 -31.11,130.05 14.3,51.73 79.73,-30.42 79.73,-30.42"
         style="fill:#17282f;fill-opacity:1;fill-rule:nonzero;stroke:none"
         id="path238" /><path
         d="m 3519.97,2920.93 c -12.35,-9.39 -25.52,25.32 -13.13,51.89 -23.73,-1.46 -52.24,12.61 -46.16,35.47 -46.65,-15.65 -63.98,31.85 -58.6,64.73 6.5,39.72 41.35,48.5 61.81,38.01 0.41,17.86 45.19,55.22 62.37,26.01 31.91,11.25 83.3,7.79 82.28,-31.4 21.08,-0.66 83.32,-24.52 60.38,-80.5 27.46,-1.64 42.34,-36.56 27.06,-62.92 35.2,-20.64 22.15,-56.48 8.75,-69.03 12.67,-26.39 -25.87,-65.65 -46.29,-60.93 -15.62,-23.96 -39.54,-41.94 -55.19,-21.51 -30.38,-22.14 -64.41,5.93 -56.71,27.55 -34.41,5.67 -69.16,62.45 -26.57,82.63"
         style="fill:#17282f;fill-opacity:1;fill-rule:nonzero;stroke:none"
         id="path240" /><path
         d="m 3570.81,3004.88 c 22.4,-37.38 20.54,-79.69 -4.16,-94.49 -24.69,-14.79 -62.87,3.52 -85.27,40.9 -22.4,37.39 -20.54,79.69 4.15,94.48 24.7,14.8 62.88,-3.51 85.28,-40.89"
         style="fill:#406fbf;fill-opacity:1;fill-rule:nonzero;stroke:none"
         id="path242" /><path
         d="m 3362.83,2945.95 c -1.37,-10.74 -30.87,-7.96 -39.37,10.93 -12.15,-12.77 -40.85,-19.42 -50.67,-5.5 -16.57,-31.15 -49.83,-23 -58.55,-8.03 -8.71,14.97 -14.31,42.58 2.94,48.03 -10.05,8.66 -7.01,49.14 19.21,44.05 11.01,21.57 41.16,46.09 63.14,27.02 11.94,10.42 59.77,30.8 79.41,-7.37 15.98,13.21 44.23,4.25 51.02,-16.01 31.16,8.15 44.63,-15.46 44.5,-28.22 22.13,-6.05 23.59,-44.24 9.69,-52.41 5.23,-19.29 2.46,-39.97 -17.86,-38.27 -3.91,-25.94 -38.7,-29.97 -46.92,-15.82 -22.13,-14.83 -68.27,10.36 -56.54,41.6"
         style="fill:#17282f;fill-opacity:1;fill-rule:nonzero;stroke:none"
         id="path244" /><path
         d="m 3310.21,3019.39 c 25.33,35.05 117.56,49.58 197.46,-2.92 72.01,-47.31 67.34,-157.11 10.1,-151.27 -57.24,5.84 -113.89,73.01 -113.89,73.01 l -93.67,81.18"
         style="fill:#17282f;fill-opacity:1;fill-rule:nonzero;stroke:none"
         id="path246" /><path
         d="m 3497.73,2761.52 c -8.39,-16.23 -23.49,-27.09 -37.88,-31.41 -21.63,-6.52 -32.9,12.73 -27.26,33.38 5.08,18.59 22.45,44.37 44.34,41.85 21.57,-2.5 30.39,-25.25 20.8,-43.82"
         style="fill:#f9a8b3;fill-opacity:1;fill-rule:nonzero;stroke:none"
         id="path248" /><path
         d="m 3253.41,1992.48 c 0,0 -121.61,-537.97 -40.43,-917.25 54.37,-254.011 250.46,-767.16 250.46,-767.16 l 153.31,3.942 c 0,0 -148.43,538.508 -179.12,750.288 -52.5,362.26 78.99,952.94 78.99,952.94 l -263.21,-22.76"
         style="fill:#406fbf;fill-opacity:1;fill-rule:nonzero;stroke:none"
         id="path250" /><path
         d="m 3426.44,1329.89 c -76.26,136.52 -73.03,305.98 -56.13,429.63 16.14,-86.78 37.48,-188.79 64.26,-291.3 -3.78,-45.96 -6.63,-92.42 -8.13,-138.33"
         style="fill:#3563b7;fill-opacity:1;fill-rule:nonzero;stroke:none"
         id="path252" /><path
         d="m 3441.83,300.129 189.39,4.832 -10.96,58.187 -193.23,-9.156 14.8,-53.863"
         style="fill:#17282f;fill-opacity:1;fill-rule:nonzero;stroke:none"
         id="path254" /><path
         d="m 3332,1998.21 c 0,0 71.34,-570.53 225.99,-882 124.91,-251.589 458.23,-609.718 458.23,-609.718 l 85.22,87.789 c 0,0 -225.14,389.219 -317.97,556.339 -227.64,409.78 -41.6,722.49 -170.62,872.95 L 3332,1998.21"
         style="fill:#406fbf;fill-opacity:1;fill-rule:nonzero;stroke:none"
         id="path256" /><path
         d="m 4007.59,494.738 109.98,107.211 -36.49,49.641 -116.63,-116.41 43.14,-40.442"
         style="fill:#17282f;fill-opacity:1;fill-rule:nonzero;stroke:none"
         id="path258" /><path
         d="m 3616.41,2045.13 18.99,-30.78 c 1.47,-2.38 -1.26,-5.18 -5.42,-5.54 l -376.95,-32.61 c -3.24,-0.28 -6.06,1.08 -6.45,3.1 l -6.02,31.89 c -0.42,2.21 2.23,4.34 5.77,4.65 l 363.99,31.48 c 2.68,0.23 5.14,-0.66 6.09,-2.19"
         style="fill:#406fbf;fill-opacity:1;fill-rule:nonzero;stroke:none"
         id="path260" /><path
         d="m 3362.07,1985.64 3.74,40.53 244.51,21.15 c 0.28,0.02 0.56,0.03 0.84,0.03 2.34,0 4.4,-0.85 5.25,-2.22 l 18.99,-30.78 c 0.27,-0.44 0.4,-0.91 0.4,-1.36 0,-1.99 -2.44,-3.89 -5.82,-4.18 l -267.91,-23.17"
         style="fill:#90b4e3;fill-opacity:1;fill-rule:nonzero;stroke:none"
         id="path262" /><path
         d="m 3571.04,2000.2 9.75,0.84 c 1.94,0.17 3.33,1.3 3.09,2.51 l -8.18,41.41 c -0.24,1.21 -2.03,2.06 -3.97,1.89 l -9.75,-0.84 c -1.94,-0.17 -3.33,-1.3 -3.09,-2.51 l 8.19,-41.4 c 0.24,-1.22 2.02,-2.07 3.96,-1.9"
         style="fill:#406fbf;fill-opacity:1;fill-rule:nonzero;stroke:none"
         id="path264" /><path
         d="m 3280.73,1975.09 9.74,0.84 c 1.95,0.17 3.34,1.3 3.1,2.51 l -8.19,41.41 c -0.24,1.21 -2.02,2.06 -3.96,1.89 l -9.75,-0.84 c -1.94,-0.17 -3.34,-1.3 -3.1,-2.51 l 8.19,-41.4 c 0.24,-1.22 2.02,-2.07 3.97,-1.9"
         style="fill:#406fbf;fill-opacity:1;fill-rule:nonzero;stroke:none"
         id="path266" /><path
         d="m 3425.88,1987.64 9.75,0.85 c 1.94,0.16 3.34,1.29 3.1,2.5 l -8.19,41.41 c -0.24,1.21 -2.02,2.07 -3.97,1.9 l -9.74,-0.84 c -1.95,-0.17 -3.34,-1.3 -3.1,-2.51 l 8.19,-41.41 c 0.24,-1.21 2.02,-2.06 3.96,-1.9"
         style="fill:#406fbf;fill-opacity:1;fill-rule:nonzero;stroke:none"
         id="path268" /><path
         d="m 3346.28,2841.45 c -1.38,-7.03 -6.23,-11.99 -10.82,-11.09 -4.6,0.9 -7.2,7.34 -5.82,14.36 1.38,7.03 6.23,12 10.82,11.1 4.6,-0.91 7.21,-7.34 5.82,-14.37"
         style="fill:#17282f;fill-opacity:1;fill-rule:nonzero;stroke:none"
         id="path270" /><path
         d="m 3266.82,2857.07 c -1.39,-7.03 -6.23,-11.99 -10.83,-11.09 -4.59,0.9 -7.2,7.34 -5.82,14.37 1.39,7.03 6.23,11.99 10.83,11.09 4.59,-0.9 7.2,-7.33 5.82,-14.37"
         style="fill:#17282f;fill-opacity:1;fill-rule:nonzero;stroke:none"
         id="path272" /><path
         d="m 3262.95,2870.65 -15.93,8.19 c 0,0 6.07,-14.89 15.93,-8.19"
         style="fill:#17282f;fill-opacity:1;fill-rule:nonzero;stroke:none"
         id="path274" /><path
         d="m 3294.14,2839.55 c 0,0 -17.89,-27.92 -33.89,-39.94 7.58,-10.49 24.14,-9.63 24.14,-9.63 l 9.75,49.57"
         style="fill:#f46878;fill-opacity:1;fill-rule:nonzero;stroke:none"
         id="path276" /><path
         d="m 3316.9,2756.46 c 24.89,0 39.35,14.53 40.05,15.25 l -0.03,2.47 -2.47,-0.03 c -0.19,-0.19 -19.08,-19.04 -50.01,-12.95 -0.99,0.21 -1.87,-0.43 -2.06,-1.37 -0.19,-0.95 0.43,-1.87 1.38,-2.06 4.65,-0.91 9.04,-1.31 13.14,-1.31"
         style="fill:#17282f;fill-opacity:1;fill-rule:nonzero;stroke:none"
         id="path278" /><path
         d="m 3394.02,2868.71 1.8,0.51 c 1.66,1 2.19,3.15 1.18,4.8 -11.84,19.6 -30.87,20.46 -31.68,20.49 -2.04,-0.08 -3.53,-1.44 -3.6,-3.37 -0.08,-1.92 1.42,-3.54 3.35,-3.62 0.66,-0.03 16.12,-0.87 25.95,-17.12 0.66,-1.08 1.81,-1.69 3,-1.69"
         style="fill:#17282f;fill-opacity:1;fill-rule:nonzero;stroke:none"
         id="path280" /><path
         d="m 3244.75,2896.88 1.7,0.44 c 16.73,9.34 30.87,2.11 31.01,2.04 1.72,-0.91 3.83,-0.24 4.72,1.47 0.9,1.71 0.24,3.82 -1.47,4.72 -0.71,0.38 -17.68,9.05 -37.67,-2.12 -1.69,-0.95 -2.29,-3.07 -1.35,-4.76 0.65,-1.15 1.84,-1.79 3.06,-1.79"
         style="fill:#17282f;fill-opacity:1;fill-rule:nonzero;stroke:none"
         id="path282" /><path
         d="m 3645.42,2483.99 c 6.77,-6.62 11.47,-11.75 16.81,-17.67 5.1,-5.8 10,-11.66 14.77,-17.61 9.55,-11.87 18.57,-24.07 27.12,-36.58 16.8,-25.21 31.87,-51.56 44.74,-79.08 13.04,-27.42 23.13,-56.29 31.17,-85.69 3.83,-14.76 7.34,-29.62 9.85,-44.7 3.46,-15.82 4.81,-41.45 -6.83,-63.21 -5.62,-10.87 -13.83,-19.93 -22.36,-26.62 -8.59,-6.75 -17.49,-11.42 -26.13,-14.99 -17.32,-6.98 -33.77,-9.96 -49.68,-11.82 -31.77,-3.32 -61.79,-2.14 -91.27,1.18 -58.91,6.67 -115.12,19.12 -171,36.34 l 9.14,36.27 c 27.2,-4.48 55.22,-8.71 82.89,-11.56 27.68,-3.2 55.37,-5.49 82.69,-6.09 27.22,-0.38 54.4,-0.05 79.04,4.33 12.19,2.15 23.78,5.38 32.6,9.72 8.96,4.41 13.64,9.47 14.74,13.06 0.7,1.9 1.19,4.04 1.22,7.24 0.02,1.59 -0.18,3.44 -0.38,5.37 -0.42,2.07 -0.64,3.88 -1.57,7.54 -2.8,12.88 -6.5,25.56 -10.44,38.14 -8.05,25.16 -18.63,49.48 -30.41,73.23 -11.78,23.75 -25.58,46.6 -40.83,68.36 -7.49,10.97 -15.37,21.67 -23.63,31.97 -4.12,5.16 -8.33,10.21 -12.61,15.1 -4.04,4.76 -8.91,10.16 -12.22,13.58 l 52.58,54.19"
         style="fill:#f9a8b3;fill-opacity:1;fill-rule:nonzero;stroke:none"
         id="path284" /><path
         d="m 3454.48,2154.31 -70.1,37.13 -3.14,-92.78 c 0,0 49.51,-3.12 78.57,19.66 l -5.33,35.99"
         style="fill:#f9a8b3;fill-opacity:1;fill-rule:nonzero;stroke:none"
         id="path286" /><path
         d="m 3331.67,1655.61 57.86,628.11 -123.51,94.57 -377.04,34.74 -65.46,-710.61 508.15,-46.81"
         style="fill:#406fbf;fill-opacity:1;fill-rule:nonzero;stroke:none"
         id="path288" /><path
         d="m 3331.67,1655.61 -508.15,46.81 65.46,710.61 377.04,-34.74 123.51,-94.57 -27.46,-298.08 -10.79,-117.2 -19.61,-212.83 m -362.14,448.01 c -21.47,0 -39.8,-16.38 -41.8,-38.18 -2.13,-23.12 14.88,-43.58 38,-45.71 l 192.19,-17.68 c 1.31,-0.12 2.61,-0.18 3.9,-0.18 21.47,0 39.8,16.38 41.81,38.19 2.12,23.11 -14.89,43.58 -38.01,45.7 l -192.19,17.68 c -1.31,0.12 -2.61,0.18 -3.9,0.18 m 10.87,121.11 c -21.48,0 -39.8,-16.38 -41.81,-38.18 -2.12,-23.12 14.89,-43.58 38.01,-45.71 l 275,-25.3 c 1.31,-0.12 2.61,-0.18 3.9,-0.18 21.48,0 39.8,16.38 41.81,38.19 2.12,23.11 -14.89,43.58 -38.01,45.7 l -275,25.3 c -1.31,0.12 -2.61,0.18 -3.9,0.18"
         style="fill:#cfe0f5;fill-opacity:1;fill-rule:nonzero;stroke:none"
         id="path290" /><path
         d="m 3389.53,2283.72 -123.51,94.57 32.38,-113.19 z"
         style="fill:#406fbf;fill-opacity:1;fill-rule:nonzero;stroke:none"
         id="path292" /><path
         d="m 3020.63,1728.66 c -9.91,-84.46 -86.41,-144.89 -170.87,-134.98 -84.46,9.91 -144.9,86.41 -134.99,170.87 9.91,84.46 86.41,144.89 170.87,134.98 84.46,-9.91 144.9,-86.41 134.99,-170.87"
         style="fill:#406fbf;fill-opacity:1;fill-rule:nonzero;stroke:none"
         id="path294" /><path
         d="m 2989.66,1732.29 c -7.9,-67.35 -68.91,-115.55 -136.27,-107.65 -67.36,7.91 -115.55,68.92 -107.65,136.27 7.9,67.36 68.91,115.56 136.27,107.66 67.36,-7.91 115.55,-68.92 107.65,-136.28"
         style="fill:#ffffff;fill-opacity:1;fill-rule:nonzero;stroke:none"
         id="path296" /><path
         d="m 2943.58,1757.39 -54.18,6.36 6.36,54.18 -38.85,4.56 -6.35,-54.19 -54.19,6.36 -4.55,-38.84 54.18,-6.36 -6.36,-54.18 38.84,-4.56 6.36,54.18 54.18,-6.35 4.56,38.84"
         style="fill:#406fbf;fill-opacity:1;fill-rule:nonzero;stroke:none"
         id="path298" /><path
         d="m 3255.5,2115.36 c -1.29,0 -2.59,0.06 -3.9,0.18 l -275,25.3 c -23.12,2.13 -40.13,22.59 -38.01,45.71 2.01,21.8 20.33,38.18 41.81,38.18 1.29,0 2.59,-0.06 3.9,-0.18 l 275,-25.3 c 23.12,-2.12 40.13,-22.59 38.01,-45.7 -2.01,-21.81 -20.33,-38.19 -41.81,-38.19"
         style="fill:#8bb2e3;fill-opacity:1;fill-rule:nonzero;stroke:none"
         id="path300" /><path
         d="m 3161.82,2001.87 c -1.29,0 -2.59,0.06 -3.9,0.18 l -192.19,17.68 c -23.12,2.13 -40.13,22.59 -38,45.71 2,21.8 20.33,38.18 41.8,38.18 1.29,0 2.59,-0.06 3.9,-0.18 l 192.19,-17.68 c 23.12,-2.12 40.13,-22.59 38.01,-45.7 -2.01,-21.81 -20.34,-38.19 -41.81,-38.19"
         style="fill:#8bb2e3;fill-opacity:1;fill-rule:nonzero;stroke:none"
         id="path302" /><path
         d="m 3341.65,2185.9 10.52,-69.32 29.07,-17.92 3.14,92.78 -42.73,-5.54"
         style="fill:#f9a8b3;fill-opacity:1;fill-rule:nonzero;stroke:none"
         id="path304" /><path
         d="m 3630.15,2565.8 c 44.05,-7.8 105.81,-134.18 105.81,-134.18 l -111.08,-100.46 c 0,0 -88.35,96.36 -83.64,153.77 4,48.75 32.78,90.79 88.91,80.87"
         style="fill:#17282f;fill-opacity:1;fill-rule:nonzero;stroke:none"
         id="path306" /><path
         d="m 4092.29,442.422 c -4.89,-15.602 -11.2,-25.93 -17.19,-27.953 -2.59,-0.867 -5.16,-0.27 -7.92,1.801 -1.58,1.199 -1.68,2.371 -1.61,3.14 0.56,6.82 17.06,17.539 26.72,23.012 z m -19.5,-31.84 c 1.14,0 2.29,0.199 3.43,0.578 10.54,3.551 17.45,23.059 20.64,34.371 l -0.58,1.828 -1.92,0.192 c -3.21,-1.68 -31.36,-16.742 -32.28,-27.852 -0.14,-1.699 0.27,-4.16 3,-6.219 2.56,-1.929 5.14,-2.898 7.71,-2.898"
         style="fill:#406fbf;fill-opacity:1;fill-rule:nonzero;stroke:none"
         id="path308" /><path
         d="m 4091.32,446.012 c -9.54,-4.071 -28.03,-6.571 -33.25,-2.16 -0.87,0.738 -1.73,1.937 -0.62,4.66 0.84,2.078 2.32,3.468 4.49,4.23 8.18,2.918 23.04,-3.613 29.38,-6.73 z m -22.88,-7.992 c 10,0 22.26,3.191 27.65,6.48 l 0.83,1.531 -0.9,1.5 c -0.94,0.52 -23.25,12.778 -35.24,8.508 -3.13,-1.098 -5.35,-3.187 -6.57,-6.219 -1.91,-4.711 0.18,-7.429 1.59,-8.629 2.67,-2.269 7.34,-3.171 12.64,-3.171"
         style="fill:#406fbf;fill-opacity:1;fill-rule:nonzero;stroke:none"
         id="path310" /><path
         d="m 3510.01,194.109 c -11.35,-2.129 -32.34,-4.89 -40.99,1.653 -2.39,1.808 -3.64,4.187 -3.82,7.269 -0.08,1.418 0.47,1.989 0.96,2.321 5.38,3.648 27.98,-4.25 43.85,-11.243 z m -22.75,-6 c 10.12,0 21.13,1.961 28.77,3.653 l 1.36,1.519 -1,1.77 c -4.33,2.039 -42.56,19.711 -52.19,13.187 -1.23,-0.816 -2.66,-2.437 -2.49,-5.406 0.23,-4.113 1.98,-7.434 5.2,-9.863 4.78,-3.61 12.28,-4.86 20.35,-4.86"
         style="fill:#406fbf;fill-opacity:1;fill-rule:nonzero;stroke:none"
         id="path312" /><path
         d="m 3489.44,227.391 c 13.25,0 20.98,-21.95 23.54,-30.731 -12.45,6.52 -29.68,22.238 -28.85,28.379 0.06,0.461 0.25,1.832 3.85,2.262 z m 26.21,-35.672 1.13,0.422 0.57,1.718 c -0.36,1.61 -9.04,39.313 -29.79,36.911 -5.19,-0.622 -6.62,-3.2 -6.89,-5.25 -1.3,-9.598 22.8,-28.961 34.31,-33.661 l 0.67,-0.14"
         style="fill:#406fbf;fill-opacity:1;fill-rule:nonzero;stroke:none"
         id="path314" /><path
         d="m 3342.42,2855.03 -15.93,8.19 c 0,0 6.07,-14.9 15.93,-8.19"
         style="fill:#17282f;fill-opacity:1;fill-rule:nonzero;stroke:none"
         id="path316" /></g></g></svg>
