<?xml version="1.0" encoding="UTF-8" standalone="no"?>
<svg
   xmlns:dc="http://purl.org/dc/elements/1.1/"
   xmlns:cc="http://creativecommons.org/ns#"
   xmlns:rdf="http://www.w3.org/1999/02/22-rdf-syntax-ns#"
   xmlns:svg="http://www.w3.org/2000/svg"
   xmlns="http://www.w3.org/2000/svg"
   xmlns:sodipodi="http://sodipodi.sourceforge.net/DTD/sodipodi-0.dtd"
   xmlns:inkscape="http://www.inkscape.org/namespaces/inkscape"
   version="1.1"
   id="svg2"
   xml:space="preserve"
   width="623.90668"
   height="547.88"
   viewBox="0 0 623.90668 547.88"
   sodipodi:docname="4752199.eps"><metadata
     id="metadata8"><rdf:RDF><cc:Work
         rdf:about=""><dc:format>image/svg+xml</dc:format><dc:type
           rdf:resource="http://purl.org/dc/dcmitype/StillImage" /></cc:Work></rdf:RDF></metadata><defs
     id="defs6" /><sodipodi:namedview
     pagecolor="#ffffff"
     bordercolor="#666666"
     borderopacity="1"
     objecttolerance="10"
     gridtolerance="10"
     guidetolerance="10"
     inkscape:pageopacity="0"
     inkscape:pageshadow="2"
     inkscape:window-width="640"
     inkscape:window-height="480"
     id="namedview4" /><g
     id="g10"
     inkscape:groupmode="layer"
     inkscape:label="ink_ext_XXXXXX"
     transform="matrix(1.3333333,0,0,-1.3333333,0,547.88)"><g
       id="g12"
       transform="scale(0.1)"><path
         d="m 1092.29,2234.71 h 483.441 V 3766.84 H 1092.29 Z"
         style="fill:#f3f2f1;fill-opacity:1;fill-rule:nonzero;stroke:none"
         id="path14" /><path
         d="m 1334.01,2238.93 h 241.719 V 3766.84 H 1334.01 Z"
         style="fill:#e7e8e5;fill-opacity:1;fill-rule:nonzero;stroke:none"
         id="path16" /><path
         d="m 1318.21,3766.84 h -170.72 v 150.41 h 170.72 v -150.41"
         style="fill:#f3f2f1;fill-opacity:1;fill-rule:nonzero;stroke:none"
         id="path18" /><path
         d="m 1318.21,3766.84 h -40.69 v 150.41 h 40.69 v -150.41"
         style="fill:#e7e8e5;fill-opacity:1;fill-rule:nonzero;stroke:none"
         id="path20" /><path
         d="m 1052,3766.84 h 537.879 v 8.7734 H 1052 Z"
         style="fill:#dadbd8;fill-opacity:1;fill-rule:nonzero;stroke:none"
         id="path22" /><path
         d="m 1228.64,3614.95 h -40.92 v 86.28 h 40.92 v -86.28"
         style="fill:#fafaf9;fill-opacity:1;fill-rule:nonzero;stroke:none"
         id="path24" /><path
         d="m 1334.01,3581.09 c 0,-0.91 -54.11,-1.65 -120.85,-1.65 -66.76,0 -120.87,0.74 -120.87,1.65 0,0.91 54.11,1.64 120.87,1.64 66.74,0 120.85,-0.73 120.85,-1.64"
         style="fill:#dadbd8;fill-opacity:1;fill-rule:nonzero;stroke:none"
         id="path26" /><path
         d="m 1472.46,3614.95 h -40.92 v 86.28 h 40.92 v -86.28"
         style="fill:#dadbd8;fill-opacity:1;fill-rule:nonzero;stroke:none"
         id="path28" /><path
         d="m 1577.84,3581.09 c 0,-0.91 -54.12,-1.65 -120.86,-1.65 -66.76,0 -120.87,0.74 -120.87,1.65 0,0.91 54.11,1.64 120.87,1.64 66.74,0 120.86,-0.73 120.86,-1.64"
         style="fill:#dadbd8;fill-opacity:1;fill-rule:nonzero;stroke:none"
         id="path30" /><path
         d="m 1472.46,3443.64 h -40.92 v 86.29 h 40.92 v -86.29"
         style="fill:#dadbd8;fill-opacity:1;fill-rule:nonzero;stroke:none"
         id="path32" /><path
         d="m 1577.84,3409.77 c 0,-0.9 -54.12,-1.64 -120.86,-1.64 -66.76,0 -120.87,0.74 -120.87,1.64 0,0.91 54.11,1.66 120.87,1.66 66.74,0 120.86,-0.75 120.86,-1.66"
         style="fill:#dadbd8;fill-opacity:1;fill-rule:nonzero;stroke:none"
         id="path34" /><path
         d="m 1472.46,3267.16 h -40.92 v 86.29 h 40.92 v -86.29"
         style="fill:#dadbd8;fill-opacity:1;fill-rule:nonzero;stroke:none"
         id="path36" /><path
         d="m 1577.84,3233.3 c 0,-0.91 -54.12,-1.65 -120.86,-1.65 -66.76,0 -120.87,0.74 -120.87,1.65 0,0.91 54.11,1.65 120.87,1.65 66.74,0 120.86,-0.74 120.86,-1.65"
         style="fill:#dadbd8;fill-opacity:1;fill-rule:nonzero;stroke:none"
         id="path38" /><path
         d="m 1431.54,3090.68 h 40.9219 v 86.2891 H 1431.54 Z"
         style="fill:#dadbd8;fill-opacity:1;fill-rule:nonzero;stroke:none"
         id="path40" /><path
         d="m 1577.84,3056.82 c 0,-0.91 -54.12,-1.65 -120.86,-1.65 -66.76,0 -120.87,0.74 -120.87,1.65 0,0.91 54.11,1.64 120.87,1.64 66.74,0 120.86,-0.73 120.86,-1.64"
         style="fill:#dadbd8;fill-opacity:1;fill-rule:nonzero;stroke:none"
         id="path42" /><path
         d="m 1431.54,2919.25 h 40.9219 v 86.2891 H 1431.54 Z"
         style="fill:#dadbd8;fill-opacity:1;fill-rule:nonzero;stroke:none"
         id="path44" /><path
         d="m 1577.84,2885.39 c 0,-0.92 -54.12,-1.65 -120.86,-1.65 -66.76,0 -120.87,0.73 -120.87,1.65 0,0.9 54.11,1.64 120.87,1.64 66.74,0 120.86,-0.74 120.86,-1.64"
         style="fill:#dadbd8;fill-opacity:1;fill-rule:nonzero;stroke:none"
         id="path46" /><path
         d="m 1431.54,2747.12 h 40.9219 v 86.2891 H 1431.54 Z"
         style="fill:#dadbd8;fill-opacity:1;fill-rule:nonzero;stroke:none"
         id="path48" /><path
         d="m 1431.54,2572.74 h 40.9219 v 86.293 H 1431.54 Z"
         style="fill:#dadbd8;fill-opacity:1;fill-rule:nonzero;stroke:none"
         id="path50" /><path
         d="m 1577.84,2713.26 c 0,-0.91 -54.12,-1.65 -120.86,-1.65 -66.76,0 -120.87,0.74 -120.87,1.65 0,0.91 54.11,1.65 120.87,1.65 66.74,0 120.86,-0.74 120.86,-1.65"
         style="fill:#dadbd8;fill-opacity:1;fill-rule:nonzero;stroke:none"
         id="path52" /><path
         d="m 1228.64,3441.02 h -40.92 v 86.29 h 40.92 v -86.29"
         style="fill:#fafaf9;fill-opacity:1;fill-rule:nonzero;stroke:none"
         id="path54" /><path
         d="m 1334.01,3407.16 c 0,-0.91 -54.11,-1.65 -120.85,-1.65 -66.76,0 -120.87,0.74 -120.87,1.65 0,0.91 54.11,1.65 120.87,1.65 66.74,0 120.85,-0.74 120.85,-1.65"
         style="fill:#dadbd8;fill-opacity:1;fill-rule:nonzero;stroke:none"
         id="path56" /><path
         d="m 1228.64,3267.1 h -40.92 v 86.29 h 40.92 v -86.29"
         style="fill:#fafaf9;fill-opacity:1;fill-rule:nonzero;stroke:none"
         id="path58" /><path
         d="m 1334.01,3233.24 c 0,-0.92 -54.11,-1.65 -120.85,-1.65 -66.76,0 -120.87,0.73 -120.87,1.65 0,0.9 54.11,1.64 120.87,1.64 66.74,0 120.85,-0.74 120.85,-1.64"
         style="fill:#dadbd8;fill-opacity:1;fill-rule:nonzero;stroke:none"
         id="path60" /><path
         d="m 1228.64,3093.17 h -40.92 v 86.29 h 40.92 v -86.29"
         style="fill:#fafaf9;fill-opacity:1;fill-rule:nonzero;stroke:none"
         id="path62" /><path
         d="m 1334.01,3059.31 c 0,-0.91 -54.11,-1.65 -120.85,-1.65 -66.76,0 -120.87,0.74 -120.87,1.65 0,0.91 54.11,1.65 120.87,1.65 66.74,0 120.85,-0.74 120.85,-1.65"
         style="fill:#dadbd8;fill-opacity:1;fill-rule:nonzero;stroke:none"
         id="path64" /><path
         d="m 1228.64,2919.25 h -40.92 v 86.29 h 40.92 v -86.29"
         style="fill:#fafaf9;fill-opacity:1;fill-rule:nonzero;stroke:none"
         id="path66" /><path
         d="m 1334.01,2885.39 c 0,-0.92 -54.11,-1.65 -120.85,-1.65 -66.76,0 -120.87,0.73 -120.87,1.65 0,0.9 54.11,1.64 120.87,1.64 66.74,0 120.85,-0.74 120.85,-1.64"
         style="fill:#dadbd8;fill-opacity:1;fill-rule:nonzero;stroke:none"
         id="path68" /><path
         d="m 1228.64,2745.32 h -40.92 v 86.29 h 40.92 v -86.29"
         style="fill:#fafaf9;fill-opacity:1;fill-rule:nonzero;stroke:none"
         id="path70" /><path
         d="m 1334.01,2711.46 c 0,-0.91 -54.11,-1.65 -120.85,-1.65 -66.76,0 -120.87,0.74 -120.87,1.65 0,0.91 54.11,1.65 120.87,1.65 66.74,0 120.85,-0.74 120.85,-1.65"
         style="fill:#dadbd8;fill-opacity:1;fill-rule:nonzero;stroke:none"
         id="path72" /><path
         d="m 1228.64,2571.4 h -40.92 v 86.29 h 40.92 v -86.29"
         style="fill:#fafaf9;fill-opacity:1;fill-rule:nonzero;stroke:none"
         id="path74" /><path
         d="m 2862.77,1909.85 h 483.441 V 3441.98 H 2862.77 Z"
         style="fill:#f3f2f1;fill-opacity:1;fill-rule:nonzero;stroke:none"
         id="path76" /><path
         d="m 3104.49,1914.06 h 241.723 V 3441.98 H 3104.49 Z"
         style="fill:#e7e8e5;fill-opacity:1;fill-rule:nonzero;stroke:none"
         id="path78" /><path
         d="m 3088.69,3441.98 h -170.73 v 150.41 h 170.73 v -150.41"
         style="fill:#f3f2f1;fill-opacity:1;fill-rule:nonzero;stroke:none"
         id="path80" /><path
         d="m 3088.69,3441.98 h -40.7 v 150.41 h 40.7 v -150.41"
         style="fill:#e7e8e5;fill-opacity:1;fill-rule:nonzero;stroke:none"
         id="path82" /><path
         d="m 2822.47,3441.98 h 537.891 v 8.7695 H 2822.47 Z"
         style="fill:#dadbd8;fill-opacity:1;fill-rule:nonzero;stroke:none"
         id="path84" /><path
         d="m 2958.2,3290.09 h 40.9219 v 86.2813 H 2958.2 Z"
         style="fill:#fafaf9;fill-opacity:1;fill-rule:nonzero;stroke:none"
         id="path86" /><path
         d="m 3104.49,3256.23 c 0,-0.92 -54.13,-1.65 -120.86,-1.65 -66.76,0 -120.86,0.73 -120.86,1.65 0,0.9 54.1,1.64 120.86,1.64 66.73,0 120.86,-0.74 120.86,-1.64"
         style="fill:#dadbd8;fill-opacity:1;fill-rule:nonzero;stroke:none"
         id="path88" /><path
         d="m 3242.93,3290.09 h -40.91 v 86.28 h 40.91 v -86.28"
         style="fill:#dadbd8;fill-opacity:1;fill-rule:nonzero;stroke:none"
         id="path90" /><path
         d="m 3348.3,3256.23 c 0,-0.92 -54.11,-1.65 -120.85,-1.65 -66.76,0 -120.86,0.73 -120.86,1.65 0,0.9 54.1,1.64 120.86,1.64 66.74,0 120.85,-0.74 120.85,-1.64"
         style="fill:#dadbd8;fill-opacity:1;fill-rule:nonzero;stroke:none"
         id="path92" /><path
         d="m 3202.02,3118.78 h 40.9102 v 86.2852 H 3202.02 Z"
         style="fill:#dadbd8;fill-opacity:1;fill-rule:nonzero;stroke:none"
         id="path94" /><path
         d="m 3348.3,3084.91 c 0,-0.91 -54.11,-1.64 -120.85,-1.64 -66.76,0 -120.86,0.73 -120.86,1.64 0,0.91 54.1,1.65 120.86,1.65 66.74,0 120.85,-0.74 120.85,-1.65"
         style="fill:#dadbd8;fill-opacity:1;fill-rule:nonzero;stroke:none"
         id="path96" /><path
         d="m 3202.02,2942.3 h 40.9102 v 86.2813 H 3202.02 Z"
         style="fill:#dadbd8;fill-opacity:1;fill-rule:nonzero;stroke:none"
         id="path98" /><path
         d="m 3348.3,2908.43 c 0,-0.91 -54.11,-1.64 -120.85,-1.64 -66.76,0 -120.86,0.73 -120.86,1.64 0,0.92 54.1,1.65 120.86,1.65 66.74,0 120.85,-0.73 120.85,-1.65"
         style="fill:#dadbd8;fill-opacity:1;fill-rule:nonzero;stroke:none"
         id="path100" /><path
         d="m 3202.02,2765.82 h 40.9102 v 86.2813 H 3202.02 Z"
         style="fill:#dadbd8;fill-opacity:1;fill-rule:nonzero;stroke:none"
         id="path102" /><path
         d="m 3348.3,2731.95 c 0,-0.91 -54.11,-1.64 -120.85,-1.64 -66.76,0 -120.86,0.73 -120.86,1.64 0,0.91 54.1,1.65 120.86,1.65 66.74,0 120.85,-0.74 120.85,-1.65"
         style="fill:#dadbd8;fill-opacity:1;fill-rule:nonzero;stroke:none"
         id="path104" /><path
         d="m 3202.02,2594.38 h 40.9102 v 86.293 H 3202.02 Z"
         style="fill:#dadbd8;fill-opacity:1;fill-rule:nonzero;stroke:none"
         id="path106" /><path
         d="m 3348.3,2560.52 c 0,-0.91 -54.11,-1.64 -120.85,-1.64 -66.76,0 -120.86,0.73 -120.86,1.64 0,0.91 54.1,1.65 120.86,1.65 66.74,0 120.85,-0.74 120.85,-1.65"
         style="fill:#dadbd8;fill-opacity:1;fill-rule:nonzero;stroke:none"
         id="path108" /><path
         d="m 3202.02,2422.27 h 40.9102 v 86.2813 H 3202.02 Z"
         style="fill:#dadbd8;fill-opacity:1;fill-rule:nonzero;stroke:none"
         id="path110" /><path
         d="m 3202.02,2247.89 h 40.9102 v 86.2813 H 3202.02 Z"
         style="fill:#dadbd8;fill-opacity:1;fill-rule:nonzero;stroke:none"
         id="path112" /><path
         d="m 3348.3,2388.4 c 0,-0.91 -54.11,-1.65 -120.85,-1.65 -66.76,0 -120.86,0.74 -120.86,1.65 0,0.91 54.1,1.64 120.86,1.64 66.74,0 120.85,-0.73 120.85,-1.64"
         style="fill:#dadbd8;fill-opacity:1;fill-rule:nonzero;stroke:none"
         id="path114" /><path
         d="m 2958.2,3116.16 h 40.9219 v 86.2891 H 2958.2 Z"
         style="fill:#fafaf9;fill-opacity:1;fill-rule:nonzero;stroke:none"
         id="path116" /><path
         d="m 3104.49,3082.3 c 0,-0.91 -54.13,-1.65 -120.86,-1.65 -66.76,0 -120.86,0.74 -120.86,1.65 0,0.91 54.1,1.65 120.86,1.65 66.73,0 120.86,-0.74 120.86,-1.65"
         style="fill:#dadbd8;fill-opacity:1;fill-rule:nonzero;stroke:none"
         id="path118" /><path
         d="m 2999.12,2942.24 h -40.92 v 86.29 h 40.92 v -86.29"
         style="fill:#fafaf9;fill-opacity:1;fill-rule:nonzero;stroke:none"
         id="path120" /><path
         d="m 3104.49,2908.37 c 0,-0.91 -54.13,-1.65 -120.86,-1.65 -66.76,0 -120.86,0.74 -120.86,1.65 0,0.91 54.1,1.65 120.86,1.65 66.73,0 120.86,-0.74 120.86,-1.65"
         style="fill:#dadbd8;fill-opacity:1;fill-rule:nonzero;stroke:none"
         id="path122" /><path
         d="m 2999.12,2768.31 h -40.92 v 86.29 h 40.92 v -86.29"
         style="fill:#fafaf9;fill-opacity:1;fill-rule:nonzero;stroke:none"
         id="path124" /><path
         d="m 3104.49,2734.45 c 0,-0.91 -54.12,-1.65 -120.86,-1.65 -66.76,0 -120.86,0.74 -120.86,1.65 0,0.91 54.1,1.64 120.86,1.64 66.74,0 120.86,-0.73 120.86,-1.64"
         style="fill:#dadbd8;fill-opacity:1;fill-rule:nonzero;stroke:none"
         id="path126" /><path
         d="m 2999.12,2594.38 h -40.92 v 86.29 h 40.92 v -86.29"
         style="fill:#fafaf9;fill-opacity:1;fill-rule:nonzero;stroke:none"
         id="path128" /><path
         d="m 3104.49,2560.52 c 0,-0.91 -54.12,-1.64 -120.86,-1.64 -66.76,0 -120.86,0.73 -120.86,1.64 0,0.91 54.1,1.65 120.86,1.65 66.74,0 120.86,-0.74 120.86,-1.65"
         style="fill:#dadbd8;fill-opacity:1;fill-rule:nonzero;stroke:none"
         id="path130" /><path
         d="m 2999.12,2420.46 h -40.92 v 86.29 h 40.92 v -86.29"
         style="fill:#fafaf9;fill-opacity:1;fill-rule:nonzero;stroke:none"
         id="path132" /><path
         d="m 3104.49,2386.6 c 0,-0.92 -54.12,-1.65 -120.86,-1.65 -66.76,0 -120.86,0.73 -120.86,1.65 0,0.9 54.1,1.64 120.86,1.64 66.74,0 120.86,-0.74 120.86,-1.64"
         style="fill:#dadbd8;fill-opacity:1;fill-rule:nonzero;stroke:none"
         id="path134" /><path
         d="m 2999.12,2246.53 h -40.92 v 86.29 h 40.92 v -86.29"
         style="fill:#fafaf9;fill-opacity:1;fill-rule:nonzero;stroke:none"
         id="path136" /><path
         d="m 3167.01,1815.08 h 782.77 v 1032.45 h -782.77 z"
         style="fill:#e7e8e5;fill-opacity:1;fill-rule:nonzero;stroke:none"
         id="path138" /><path
         d="m 3582.75,1815.08 h 367.031 V 2847.53 H 3582.75 Z"
         style="fill:#dadbd8;fill-opacity:1;fill-rule:nonzero;stroke:none"
         id="path140" /><path
         d="m 3331.14,2536.75 h 70.3789 v 170.988 H 3331.14 Z"
         style="fill:#f3f2f1;fill-opacity:1;fill-rule:nonzero;stroke:none"
         id="path142" /><path
         d="m 3331.14,1867.51 h 70.3789 v 171 H 3331.14 Z"
         style="fill:#f3f2f1;fill-opacity:1;fill-rule:nonzero;stroke:none"
         id="path144" /><path
         d="m 3582.75,2469.64 c 0,-1.92 -93.07,-3.48 -207.86,-3.48 -114.83,0 -207.88,1.56 -207.88,3.48 0,1.92 93.05,3.48 207.88,3.48 114.79,0 207.86,-1.56 207.86,-3.48"
         style="fill:#f3f2f1;fill-opacity:1;fill-rule:nonzero;stroke:none"
         id="path146" /><path
         d="m 3331.14,2199.59 h 70.3789 v 171 H 3331.14 Z"
         style="fill:#f3f2f1;fill-opacity:1;fill-rule:nonzero;stroke:none"
         id="path148" /><path
         d="m 3582.75,2132.48 c 0,-1.92 -93.07,-3.48 -207.86,-3.48 -114.83,0 -207.88,1.56 -207.88,3.48 0,1.92 93.05,3.48 207.88,3.48 114.79,0 207.86,-1.56 207.86,-3.48"
         style="fill:#f3f2f1;fill-opacity:1;fill-rule:nonzero;stroke:none"
         id="path150" /><path
         d="m 3731.07,2536.75 h -70.37 v 170.99 h 70.37 v -170.99"
         style="fill:#f3f2f1;fill-opacity:1;fill-rule:nonzero;stroke:none"
         id="path152" /><path
         d="m 3813.38,2536.75 h 70.3828 v 170.988 H 3813.38 Z"
         style="fill:#f3f2f1;fill-opacity:1;fill-rule:nonzero;stroke:none"
         id="path154" /><path
         d="m 3731.07,2212.28 h -70.37 v 171 h 70.37 v -171"
         style="fill:#f3f2f1;fill-opacity:1;fill-rule:nonzero;stroke:none"
         id="path156" /><path
         d="m 3883.76,2212.28 h -70.38 v 171 h 70.38 v -171"
         style="fill:#f3f2f1;fill-opacity:1;fill-rule:nonzero;stroke:none"
         id="path158" /><path
         d="m 3660.7,1887.81 h 70.3711 v 171 H 3660.7 Z"
         style="fill:#f3f2f1;fill-opacity:1;fill-rule:nonzero;stroke:none"
         id="path160" /><path
         d="m 3883.76,1887.81 h -70.38 v 171 h 70.38 v -171"
         style="fill:#f3f2f1;fill-opacity:1;fill-rule:nonzero;stroke:none"
         id="path162" /><path
         d="m 3108.17,2846.24 h 900.449 v 37.2266 H 3108.17 Z"
         style="fill:#dadbd8;fill-opacity:1;fill-rule:nonzero;stroke:none"
         id="path164" /><path
         d="m 3955.25,2842.73 c 0,-1.92 -174.96,-3.48 -390.73,-3.48 -215.84,0 -390.77,1.56 -390.77,3.48 0,1.92 174.93,3.48 390.77,3.48 215.77,0 390.73,-1.56 390.73,-3.48"
         style="fill:#e7e8e5;fill-opacity:1;fill-rule:nonzero;stroke:none"
         id="path166" /><path
         d="M 1396.39,1794.44 H 684.988 l -3.093,1124.32 h 711.385 l 3.11,-1124.32"
         style="fill:#e7e8e5;fill-opacity:1;fill-rule:nonzero;stroke:none"
         id="path168" /><path
         d="m 1037.59,1794.44 h 355.691 V 2918.76 H 1037.59 Z"
         style="fill:#dadbd8;fill-opacity:1;fill-rule:nonzero;stroke:none"
         id="path170" /><path
         d="M 1014.34,2918.76 H 763.129 v 221.34 h 251.211 v -221.34"
         style="fill:#e7e8e5;fill-opacity:1;fill-rule:nonzero;stroke:none"
         id="path172" /><path
         d="m 1014.34,2918.76 h -59.879 v 221.34 h 59.879 v -221.34"
         style="fill:#dadbd8;fill-opacity:1;fill-rule:nonzero;stroke:none"
         id="path174" /><path
         d="m 622.609,2918.76 h 791.5 v 12.9102 h -791.5 z"
         style="fill:#dadbd8;fill-opacity:1;fill-rule:nonzero;stroke:none"
         id="path176" /><path
         d="m 882.531,2695.25 h -60.215 v 126.98 h 60.215 v -126.98"
         style="fill:#ffffff;fill-opacity:1;fill-rule:nonzero;stroke:none"
         id="path178" /><path
         d="m 1037.59,2645.42 c 0,-1.34 -79.633,-2.42 -177.84,-2.42 -98.242,0 -177.855,1.08 -177.855,2.42 0,1.34 79.613,2.43 177.855,2.43 98.207,0 177.84,-1.09 177.84,-2.43"
         style="fill:#dadbd8;fill-opacity:1;fill-rule:nonzero;stroke:none"
         id="path180" /><path
         d="m 1241.33,2695.25 h -60.22 v 126.98 h 60.22 v -126.98"
         style="fill:#f3f2f1;fill-opacity:1;fill-rule:nonzero;stroke:none"
         id="path182" /><path
         d="m 1396.38,2645.42 c 0,-1.34 -79.63,-2.42 -177.84,-2.42 -98.24,0 -177.85,1.08 -177.85,2.42 0,1.34 79.61,2.43 177.85,2.43 98.21,0 177.84,-1.09 177.84,-2.43"
         style="fill:#e7e8e5;fill-opacity:1;fill-rule:nonzero;stroke:none"
         id="path184" /><path
         d="m 1241.33,2443.16 h -60.22 v 126.98 h 60.22 v -126.98"
         style="fill:#f3f2f1;fill-opacity:1;fill-rule:nonzero;stroke:none"
         id="path186" /><path
         d="m 1396.38,2393.33 c 0,-1.34 -79.63,-2.42 -177.84,-2.42 -98.24,0 -177.85,1.08 -177.85,2.42 0,1.34 79.61,2.43 177.85,2.43 98.21,0 177.84,-1.09 177.84,-2.43"
         style="fill:#e7e8e5;fill-opacity:1;fill-rule:nonzero;stroke:none"
         id="path188" /><path
         d="m 1241.33,2183.47 h -60.22 v 126.97 h 60.22 v -126.97"
         style="fill:#f3f2f1;fill-opacity:1;fill-rule:nonzero;stroke:none"
         id="path190" /><path
         d="m 1396.38,2133.64 c 0,-1.34 -79.63,-2.43 -177.84,-2.43 -98.24,0 -177.85,1.09 -177.85,2.43 0,1.34 79.61,2.42 177.85,2.42 98.21,0 177.84,-1.08 177.84,-2.42"
         style="fill:#e7e8e5;fill-opacity:1;fill-rule:nonzero;stroke:none"
         id="path192" /><path
         d="m 1241.33,1923.78 h -60.22 v 126.96 h 60.22 v -126.96"
         style="fill:#f3f2f1;fill-opacity:1;fill-rule:nonzero;stroke:none"
         id="path194" /><path
         d="m 1396.38,1873.95 c 0,-1.34 -79.63,-2.44 -177.84,-2.44 -98.24,0 -177.85,1.1 -177.85,2.44 0,1.33 79.61,2.42 177.85,2.42 98.21,0 177.84,-1.09 177.84,-2.42"
         style="fill:#e7e8e5;fill-opacity:1;fill-rule:nonzero;stroke:none"
         id="path196" /><path
         d="m 882.531,2439.32 h -60.215 v 126.97 h 60.215 v -126.97"
         style="fill:#ffffff;fill-opacity:1;fill-rule:nonzero;stroke:none"
         id="path198" /><path
         d="m 1037.59,2389.49 c 0,-1.34 -79.629,-2.43 -177.84,-2.43 -98.242,0 -177.855,1.09 -177.855,2.43 0,1.34 79.613,2.42 177.855,2.42 98.211,0 177.84,-1.08 177.84,-2.42"
         style="fill:#dadbd8;fill-opacity:1;fill-rule:nonzero;stroke:none"
         id="path200" /><path
         d="m 882.531,2183.38 h -60.215 v 126.97 h 60.215 v -126.97"
         style="fill:#ffffff;fill-opacity:1;fill-rule:nonzero;stroke:none"
         id="path202" /><path
         d="m 1037.59,2133.55 c 0,-1.34 -79.629,-2.43 -177.84,-2.43 -98.242,0 -177.855,1.09 -177.855,2.43 0,1.34 79.613,2.42 177.855,2.42 98.211,0 177.84,-1.08 177.84,-2.42"
         style="fill:#dadbd8;fill-opacity:1;fill-rule:nonzero;stroke:none"
         id="path204" /><path
         d="m 882.531,1927.45 h -60.215 v 126.96 h 60.215 v -126.96"
         style="fill:#ffffff;fill-opacity:1;fill-rule:nonzero;stroke:none"
         id="path206" /><path
         d="m 1037.59,1877.62 c 0,-1.35 -79.633,-2.43 -177.84,-2.43 -98.242,0 -177.855,1.08 -177.855,2.43 0,1.34 79.613,2.42 177.855,2.42 98.207,0 177.84,-1.08 177.84,-2.42"
         style="fill:#dadbd8;fill-opacity:1;fill-rule:nonzero;stroke:none"
         id="path208" /><path
         d="m 4213.71,3146.02 c 3.77,27.33 -34.8,49.82 -63.77,52.15 -13.82,1.11 -28.18,-1 -41.27,3.56 -28.37,9.89 -39.7,46.54 -67.38,58.21 -20.69,8.73 -44.52,0.96 -64.58,-9.14 -20.06,-10.09 -39.88,-22.8 -62.3,-24.23 -19.49,-1.25 -40.67,5.98 -57.72,-3.55 -12.71,-7.09 -19.37,-21.74 -31.08,-30.38 -11.47,-8.45 -26.42,-10.24 -40.64,-11.01 -14.21,-0.78 -28.94,-0.92 -41.88,-6.85 -12.95,-5.93 -23.66,-19.62 -20.98,-33.61 l 491.6,4.85"
         style="fill:#f3f2f1;fill-opacity:1;fill-rule:nonzero;stroke:none"
         id="path210" /><path
         d="m 3010.21,3924.85 c 5.89,42.77 -54.48,77.96 -99.84,81.61 -21.64,1.75 -44.11,-1.56 -64.6,5.59 -44.4,15.47 -62.14,72.83 -105.46,91.11 -32.4,13.66 -69.68,1.5 -101.09,-14.31 -31.39,-15.8 -62.43,-35.69 -97.51,-37.94 -30.51,-1.95 -63.65,9.37 -90.35,-5.54 -19.89,-11.11 -30.31,-34.03 -48.65,-47.56 -17.94,-13.22 -41.35,-16.03 -63.6,-17.24 -22.26,-1.21 -45.31,-1.43 -65.57,-10.71 -20.27,-9.28 -37.04,-30.72 -32.83,-52.61 l 769.5,7.6"
         style="fill:#e7e8e5;fill-opacity:1;fill-rule:nonzero;stroke:none"
         id="path212" /><path
         d="m 954.145,3333.32 c 4.691,34.11 -43.434,62.16 -79.594,65.07 -17.246,1.39 -35.156,-1.25 -51.5,4.45 -35.395,12.34 -49.535,58.07 -84.078,72.63 -25.821,10.9 -55.547,1.2 -80.578,-11.4 -25.036,-12.59 -49.774,-28.45 -77.743,-30.24 -24.332,-1.56 -50.746,7.46 -72.031,-4.42 -15.859,-8.86 -24.168,-27.14 -38.789,-37.91 -14.301,-10.55 -32.953,-12.79 -50.703,-13.75 -17.742,-0.97 -36.113,-1.15 -52.27,-8.55 -16.156,-7.39 -29.527,-24.48 -26.171,-41.93 l 613.457,6.05"
         style="fill:#f3f2f1;fill-opacity:1;fill-rule:nonzero;stroke:none"
         id="path214" /><path
         d="m 605.512,2212.33 c -88.688,0 -160.582,71.9 -160.582,160.59 0,88.69 71.894,160.58 160.582,160.58 88.687,0 160.586,-71.89 160.586,-160.58 0,-88.69 -71.899,-160.59 -160.586,-160.59 m -5.074,368.87 c -113.344,-2.63 -205.762,-95 -208.458,-208.34 -1.156,-48.54 13.938,-93.48 40.153,-129.88 l -0.055,-0.01 2.082,-2.83 0.293,-0.4 151.238,-205.72 c 13.317,-18.1 40.559,-17.54 53.102,1.12 l 136.703,203.23 c 25.863,39.45 43.609,80.68 43.609,129.29 0,119.65 -98.382,216.33 -218.667,213.54"
         style="fill:#f2575d;fill-opacity:1;fill-rule:nonzero;stroke:none"
         id="path216" /><path
         d="m 611.844,2020.79 c -9.813,0 -19.645,4.39 -26.153,13.23 l -151.238,205.72 -0.293,0.4 -2.082,2.83 0.055,0.01 v 0 c -25.293,35.12 -40.235,78.19 -40.211,124.77 0,1.7 0.019,3.4 0.058,5.11 2.696,113.34 95.114,205.71 208.458,208.34 1.703,0.04 3.386,0.06 5.082,0.06 117.953,0 213.585,-95.64 213.585,-213.6 0,-48.61 -17.746,-89.84 -43.609,-129.29 l -69.687,-103.61 -1.61,-2.39 -20.058,-29.82 -45.348,-67.41 c -6.414,-9.54 -16.672,-14.35 -26.949,-14.35 M 444.93,2372.92 v 0 c 0,-88.69 71.894,-160.59 160.582,-160.59 88.687,0 160.586,71.9 160.586,160.59 v 0 0 c 0,88.69 -71.899,160.58 -160.586,160.58 -88.688,0 -160.582,-71.89 -160.582,-160.58 v 0"
         style="fill:#cc4341;fill-opacity:1;fill-rule:nonzero;stroke:none"
         id="path218" /><path
         d="m 592.855,2241.28 c -67.167,0 -121.617,54.46 -121.617,121.62 0,67.17 54.45,121.62 121.617,121.62 67.165,0 121.618,-54.45 121.618,-121.62 0,-67.16 -54.453,-121.62 -121.618,-121.62 z m -5.078,339.92 c -113.339,-2.63 -205.757,-95 -208.457,-208.34 -1.152,-48.54 13.942,-93.48 40.157,-129.88 l -0.059,-0.01 2.086,-2.83 0.293,-0.4 151.238,-205.72 c 13.313,-18.1 40.555,-17.54 53.102,1.12 l 136.699,203.23 c 25.867,39.45 43.613,80.68 43.613,129.29 0,119.65 -98.386,216.33 -218.672,213.54"
         style="fill:#f2575d;fill-opacity:1;fill-rule:nonzero;stroke:none"
         id="path220" /><path
         d="m 3954.6,2502.54 c -67.58,0 -122.38,54.8 -122.38,122.39 0,67.58 54.8,122.38 122.38,122.38 67.59,0 122.39,-54.8 122.39,-122.38 0,-67.59 -54.8,-122.39 -122.39,-122.39 m -3.86,281.12 c -86.38,-2 -156.82,-72.41 -158.87,-158.78 -0.88,-36.99 10.62,-71.24 30.59,-98.98 l -0.03,-0.01 1.58,-2.15 0.22,-0.31 115.27,-156.77 c 10.14,-13.8 30.9,-13.37 40.46,0.84 l 104.18,154.88 c 19.72,30.07 33.25,61.5 33.25,98.54 0,91.19 -74.98,164.87 -166.65,162.74"
         style="fill:#f2575d;fill-opacity:1;fill-rule:nonzero;stroke:none"
         id="path222" /><path
         d="m 3959.42,2356.57 c -3.28,0 -6.57,0.64 -9.64,1.94 -3.93,1.65 -7.5,4.37 -10.28,8.15 l -115.27,156.77 -0.22,0.31 -1.58,2.15 0.03,0.01 v 0 c -19.26,26.76 -30.65,59.59 -30.64,95.09 0,1.29 0.02,2.59 0.05,3.89 2.05,86.37 72.49,156.78 158.87,158.78 1.29,0.03 2.58,0.04 3.87,0.04 89.89,0 162.78,-72.88 162.78,-162.78 0,-37.04 -13.53,-68.47 -33.25,-98.54 L 3979.96,2367.5 c -4.89,-7.27 -12.7,-10.93 -20.54,-10.93 m -127.2,268.36 v 0 c 0,-67.59 54.8,-122.39 122.38,-122.39 67.59,0 122.39,54.8 122.39,122.39 v 0 0 c 0,67.58 -54.8,122.38 -122.39,122.38 -67.58,0 -122.38,-54.8 -122.38,-122.38 v 0"
         style="fill:#cc4341;fill-opacity:1;fill-rule:nonzero;stroke:none"
         id="path224" /><path
         d="m 3944.96,2524.61 c -51.2,0 -92.69,41.49 -92.69,92.69 0,51.18 41.49,92.68 92.69,92.68 51.18,0 92.68,-41.5 92.68,-92.68 0,-51.2 -41.5,-92.69 -92.68,-92.69 z m -3.87,259.05 c -86.38,-2 -156.82,-72.41 -158.87,-158.78 -0.88,-36.99 10.63,-71.24 30.6,-98.98 l -0.04,-0.01 1.59,-2.15 0.21,-0.31 115.27,-156.77 c 10.14,-13.8 30.91,-13.37 40.47,0.84 l 104.18,154.88 c 19.71,30.07 33.24,61.5 33.24,98.54 0,91.19 -74.98,164.87 -166.65,162.74"
         style="fill:#f2575d;fill-opacity:1;fill-rule:nonzero;stroke:none"
         id="path226" /><path
         d="M 717.238,1813.41 3.03516,39.8008 1342.17,260.012 2324.21,39.8008 3330.04,260.012 4675.14,3.42188 3954.97,1813.41 3151.5,2015.76 2339.09,1861.02 1508.82,2015.76 717.238,1813.41"
         style="fill:#ffffff;fill-opacity:1;fill-rule:nonzero;stroke:none"
         id="path228" /><path
         d="m 717.238,1813.41 c 0,0 4.375,1.22 13.117,3.51 8.801,2.29 21.856,5.68 39.098,10.16 34.629,8.94 86.004,22.18 153.184,39.5 134.613,34.57 332.513,85.39 585.863,150.45 l 0.27,0.07 0.29,-0.05 c 228.83,-42.51 509.7,-94.7 830.36,-154.27 h -0.67 c 243.19,46.42 517.41,98.76 812.35,155.06 l 0.46,0.09 0.46,-0.12 c 249.53,-62.77 519.87,-130.78 803.53,-202.15 l 1.15,-0.28 0.44,-1.11 C 4177.22,1261.35 4420.56,649.992 4677.54,4.37891 L 4679.28,0 4674.65,0.878906 C 4453.47,43.0703 4219.73,87.6484 3982.72,132.852 3761.89,174.98 3543.92,216.57 3329.56,257.461 l 1.04,0.019 C 2984.98,181.852 2648.72,108.25 2324.74,37.3516 l -0.54,-0.1094 -0.54,0.1094 c -342.22,76.8084 -670.5,150.4804 -982,220.3864 l 0.89,-0.019 C 850.508,176.949 400.066,103.031 3.34375,37.9102 L 0,37.3594 1.26953,40.5117 C 222.172,588.07 401.055,1031.45 524.727,1337.99 c 61.882,153.09 109.949,272.01 142.562,352.69 16.324,40.26 28.781,70.96 37.168,91.64 8.395,20.63 12.781,31.09 12.781,31.09 0,0 -4.144,-10.74 -12.41,-31.51 -8.305,-20.77 -20.637,-51.6 -36.793,-92.02 -32.422,-80.82 -80.211,-199.94 -141.734,-353.3 C 403.094,1030.04 224.883,586.648 4.80469,39.082 L 2.72656,41.6719 C 399.406,107.031 849.805,181.242 1341.8,262.301 l 0.44,0.07 0.44,-0.09 C 1654.2,192.469 1982.5,118.922 2324.75,42.2305 l -1.08,0.0117 C 2647.64,113.191 2983.89,186.84 3329.5,262.539 l 0.51,0.109 0.52,-0.097 C 3544.89,221.66 3762.86,180.09 3983.7,137.969 4220.71,92.75 4454.44,48.1602 4675.62,5.96094 l -2.88,-3.49219 C 4415.93,648.141 4172.75,1259.57 3952.82,1812.54 l 1.59,-1.4 c -283.62,71.52 -553.93,139.67 -803.43,202.58 l 0.91,-0.03 c -294.99,-56.07 -569.25,-108.2 -812.47,-154.43 l -0.33,-0.07 -0.34,0.07 c -320.58,59.94 -601.39,112.44 -830.17,155.22 l 0.56,0.02 C 1255.86,1950.04 1058,1899.69 923.41,1865.44 c -67.32,-17.06 -118.812,-30.11 -153.512,-38.9 -17.335,-4.36 -30.464,-7.66 -39.308,-9.89 -8.817,-2.2 -13.352,-3.24 -13.352,-3.24"
         style="fill:#17282f;fill-opacity:1;fill-rule:nonzero;stroke:none"
         id="path230" /><path
         d="M 758.906,1765.79 128.023,129.07 1336.22,325.48 2339.09,93.3594 3330.04,331.43 4562.05,93.3594 3913.31,1765.79 l -749.91,184.5 -824.31,-154.74 -842.17,154.74 -738.014,-184.5"
         style="fill:#ffffff;fill-opacity:1;fill-rule:nonzero;stroke:none"
         id="path232" /><path
         d="m 198.117,310.93 960.333,222.41 -35.47,206.879 79.8,50.25 L 1078.65,1273.63 694.633,1599.05 198.117,310.93"
         style="fill:#33535f;fill-opacity:1;fill-rule:nonzero;stroke:none"
         id="path234" /><path
         d="M 128.023,129.07 174.844,250.539 1785,624.641 1872.47,383.93 1844.12,335.332 1541.68,277.922 1336.22,325.48 128.023,129.07"
         style="fill:#e7e8e5;fill-opacity:1;fill-rule:nonzero;stroke:none"
         id="path236" /><path
         d="m 1872.47,647.93 63.89,-238.149 185.4,-80.609 263.87,117.25 553.45,161.207 -172.71,260.133 -893.9,-219.832"
         style="fill:#e7e8e5;fill-opacity:1;fill-rule:nonzero;stroke:none"
         id="path238" /><path
         d="m 1229.28,559.73 299.2,64.911 -59.7,194.39 -217.96,-52.672 -58.02,-40.937 36.48,-165.692"
         style="fill:#dadbd8;fill-opacity:1;fill-rule:nonzero;stroke:none"
         id="path240" /><path
         d="m 1168.21,1203.97 108.64,-356.458 169.75,37.34 -30.56,136.978 373.45,83.7 -621.28,98.44"
         style="fill:#33535f;fill-opacity:1;fill-rule:nonzero;stroke:none"
         id="path242" /><path
         d="m 722.887,1672.34 469.913,-377.26 623.84,-118.26 665.41,165.42 -303.74,482.86 -681.39,125.19 -738.014,-184.5 -36.019,-93.45"
         style="fill:#e7e8e5;fill-opacity:1;fill-rule:nonzero;stroke:none"
         id="path244" /><path
         d="m 2269.17,1808.4 975.56,-1497.47 85.31,20.5 -944.19,1472.9 -46.76,-8.78 -69.92,12.85"
         style="fill:#e7e8e5;fill-opacity:1;fill-rule:nonzero;stroke:none"
         id="path246" /><path
         d="M 1478.85,984.129 1602.46,624.641 2699.8,904.992 2496.72,1250.71 1478.85,984.129"
         style="fill:#dadbd8;fill-opacity:1;fill-rule:nonzero;stroke:none"
         id="path248" /><path
         d="m 2089.32,151.172 10.68,15.879 72.08,107.14 172.95,54.981 118.94,89.617 L 2979.73,559.73 3139.9,285.738 2339.09,93.3594 2089.32,151.172"
         style="fill:#dadbd8;fill-opacity:1;fill-rule:nonzero;stroke:none"
         id="path250" /><path
         d="m 3002.87,1920.17 258.49,-287.52 651.95,133.14 -749.91,184.5 -160.53,-30.12"
         style="fill:#dadbd8;fill-opacity:1;fill-rule:nonzero;stroke:none"
         id="path252" /><path
         d="m 4050.53,1412.06 -478.84,-133.04 -241.65,320.03 599.63,124.59 120.86,-311.58"
         style="fill:#dadbd8;fill-opacity:1;fill-rule:nonzero;stroke:none"
         id="path254" /><path
         d="m 2437.05,1813.95 502.03,-721.13 579.41,166.26 -579.41,649.1 -502.03,-94.23"
         style="fill:#e7e8e5;fill-opacity:1;fill-rule:nonzero;stroke:none"
         id="path256" /><path
         d="M 3840.63,232.762 4419.95,459.699 4562.05,93.3594 3840.63,232.762"
         style="fill:#dadbd8;fill-opacity:1;fill-rule:nonzero;stroke:none"
         id="path258" /><path
         d="M 3234.76,1135.95 3549.53,1218 3882.03,819.031 3558.39,711.559 3234.76,1135.95"
         style="fill:#33535f;fill-opacity:1;fill-rule:nonzero;stroke:none"
         id="path260" /><path
         d="m 3620.46,1250.71 350.23,-401.562 263.85,88.532 -173.47,447.22 -440.61,-134.19"
         style="fill:#dadbd8;fill-opacity:1;fill-rule:nonzero;stroke:none"
         id="path262" /><path
         d="m 3882.03,326.539 -261.57,362.852 632.22,201.539 128.47,-331.2 -82.4,-82.98 -416.72,-150.211"
         style="fill:#33535f;fill-opacity:1;fill-rule:nonzero;stroke:none"
         id="path264" /><path
         d="m 2969.86,1039.79 480.6,-728.86 295.94,-59.95 55.82,25.551 -608.96,830.579 -223.4,-67.32"
         style="fill:#dadbd8;fill-opacity:1;fill-rule:nonzero;stroke:none"
         id="path266" /><path
         d="M 1000.25,496.699 880.512,1059.67 458.289,985.898 198.117,310.93 1000.25,496.699"
         style="fill:#dadbd8;fill-opacity:1;fill-rule:nonzero;stroke:none"
         id="path268" /><path
         d="m 1388.46,1923.18 v -257.74 l 90.39,-11.42 252.39,-294.04 216.96,24.92 103.28,-149.7 -234.84,-58.38 -623.84,118.26 -469.913,377.26 36.019,93.45 629.554,157.39"
         style="fill:#33535f;fill-opacity:1;fill-rule:nonzero;stroke:none"
         id="path270" /><path
         d="m 2708.04,1862.62 354.5,-517.33 305.35,82.5 -428.81,480.39 -231.04,-45.56"
         style="fill:#dadbd8;fill-opacity:1;fill-rule:nonzero;stroke:none"
         id="path272" /><path
         d="m 3748.7,1328.2 -128.24,200.52 346.8,98.02 83.27,-214.68 -301.83,-83.86"
         style="fill:#e7e8e5;fill-opacity:1;fill-rule:nonzero;stroke:none"
         id="path274" /><path
         d="m 3234.76,638.051 167.86,58.008 325.58,-441.399 -277.74,56.27 -215.7,327.121"
         style="fill:#e7e8e5;fill-opacity:1;fill-rule:nonzero;stroke:none"
         id="path276" /><path
         d="m 1686.2,244.469 156.14,19 52,76.16 194.98,-61.297 -50.99,-115.363 -352.13,81.5"
         style="fill:#33535f;fill-opacity:1;fill-rule:nonzero;stroke:none"
         id="path278" /><path
         d="m 758.906,1765.79 c 0,0 16.442,4.33 48.653,12.49 32.285,8.15 80.175,20.24 142.796,36.04 125.505,31.53 310.025,77.89 546.245,137.23 l 0.27,0.07 0.28,-0.05 c 229.91,-42.1 514.88,-94.29 842.26,-154.23 l -0.66,-0.01 c 246.49,46.38 524.64,98.71 824.25,155.07 l 0.46,0.09 0.45,-0.11 c 234.4,-57.6 486.33,-119.52 749.97,-184.3 l 1.18,-0.3 0.45,-1.14 C 4114.1,1254.86 4333.42,689.691 4564.47,94.3008 l 1.69,-4.3711 -4.59,0.8906 c -197.43,38.1487 -406.4,78.5197 -618.13,119.4177 -207.53,40.114 -412.4,79.711 -613.89,118.653 l 1.1,0.019 C 2989.56,247 2658.16,167.422 2339.67,90.9414 l -0.57,-0.1406 -0.58,0.1289 C 1987.17,172.32 1651.82,250.012 1335.7,323.238 l 0.89,-0.027 c -443.848,-72 -849.66,-137.832 -1208.266,-196 l -3.242,-0.52 1.184,3.059 c 195.277,505.551 353.328,914.72 462.57,1197.56 54.668,141.23 97.125,250.91 125.93,325.33 14.422,37.12 25.418,65.43 32.832,84.5 7.418,19.01 11.308,28.65 11.308,28.65 0,0 -3.648,-9.91 -10.941,-29.05 -7.332,-19.17 -18.199,-47.61 -32.457,-84.88 C 686.891,1577.31 644.715,1467.42 590.402,1325.93 481.613,1043.11 324.23,633.949 129.777,128.391 l -2.058,2.539 c 358.566,58.41 764.336,124.511 1208.131,196.808 l 0.45,0.071 0.44,-0.098 c 316.13,-73.109 651.52,-150.672 1002.9,-231.9219 l -1.14,-0.0078 c 318.48,76.5387 649.87,156.1877 990.94,238.1677 l 0.54,0.121 0.56,-0.101 c 201.49,-38.93 406.36,-78.508 613.89,-118.61 211.73,-40.918 420.69,-81.308 618.11,-119.4606 l -2.9,-3.4765 C 4328.75,687.879 4109.58,1253.11 3911.13,1764.94 l 1.63,-1.43 c -263.61,64.93 -515.5,126.98 -749.88,184.7 l 0.91,-0.02 c -299.65,-56.13 -577.85,-108.25 -824.37,-154.42 l -0.33,-0.07 -0.34,0.06 c -327.3,60.35 -612.21,112.88 -842.07,155.26 l 0.55,0.01 c -236.16,-58.74 -420.62,-104.63 -546.097,-135.84 -62.77,-15.54 -110.774,-27.43 -143.129,-35.45 -32.348,-7.97 -49.098,-11.95 -49.098,-11.95"
         style="fill:#17282f;fill-opacity:1;fill-rule:nonzero;stroke:none"
         id="path280" /><path
         d="M 2324.2,42.3516 C 1982.15,118.988 1654.03,192.512 1342.68,262.281 l -0.29,0.059 5.51,58.082 C 1656.26,248.98 1982.87,173.32 2324.65,94.1406 l -0.42,-51.7812 -0.03,-0.0078"
         style="fill:#c3c5c2;fill-opacity:1;fill-rule:nonzero;stroke:none"
         id="path282" /><path
         d="m 2324.21,39.8008 -982.04,220.2112 0.22,2.328 0.29,-0.059 C 1654.03,192.512 1982.15,118.988 2324.2,42.3516 l 0.03,0.0078 -0.02,-2.5586"
         style="fill:#111d23;fill-opacity:1;fill-rule:nonzero;stroke:none"
         id="path284" /><path
         d="m 2090.78,153.34 c -17.2,3.969 -34.34,7.941 -51.45,11.89 l 49.99,113.102 -194.98,61.297 -52,-76.16 -149.27,-18.16 c -48.98,11.32 -97.52,22.55 -145.69,33.691 l 296.74,56.332 28.35,48.598 -87.47,240.711 -417.42,-96.993 6.01,63.391 154.89,33.602 -59.7,194.39 -75.27,-18.191 7.01,73.879 46.08,10.133 -30.56,136.978 373.45,83.7 -361.63,57.3 8.18,86.14 380.6,-72.15 84.32,20.96 63.56,-86.45 L 1478.85,984.129 1602.46,624.641 2208.6,779.5 c 12.36,-15.738 26.87,-28.551 42.7,-38.41 l -378.83,-93.16 63.89,-238.149 185.4,-80.609 205.56,91.34 -0.8,-97.223 -154.44,-49.098 -72.08,-107.14 -9.22,-13.711"
         style="fill:#c3c5c2;fill-opacity:1;fill-rule:nonzero;stroke:none"
         id="path286" /><path
         d="m 1547.38,279 c -67.15,15.531 -133.51,30.879 -199.04,46.031 L 1367.58,527.648 1785,624.641 1872.47,383.93 1844.12,335.332 1547.38,279"
         style="fill:#b1b3b1;fill-opacity:1;fill-rule:nonzero;stroke:none"
         id="path288" /><path
         d="m 2121.76,329.172 -185.4,80.609 -63.89,238.149 378.83,93.16 c 24,-14.949 51.07,-23.149 78.44,-24.68 l -2.42,-295.898 -205.56,-91.34"
         style="fill:#b1b3b1;fill-opacity:1;fill-rule:nonzero;stroke:none"
         id="path290" /><path
         d="m 1373.59,591.039 19.92,209.801 75.27,18.191 59.7,-194.39 -154.89,-33.602"
         style="fill:#a7aaa9;fill-opacity:1;fill-rule:nonzero;stroke:none"
         id="path292" /><path
         d="m 1400.52,874.719 27.34,288.111 361.63,-57.3 -373.45,-83.7 30.56,-136.978 -46.08,-10.133"
         style="fill:#263f48;fill-opacity:1;fill-rule:nonzero;stroke:none"
         id="path294" /><path
         d="m 1602.46,624.641 -123.61,359.488 485.67,127.201 240.73,-327.432 c 1.1,-1.5 2.21,-2.957 3.35,-4.398 L 1602.46,624.641"
         style="fill:#a7aaa9;fill-opacity:1;fill-rule:nonzero;stroke:none"
         id="path296" /><path
         d="m 2324.69,99.25 c -78.8,18.219 -156.77,36.25 -233.91,54.09 l 9.22,13.711 72.08,107.14 154.44,49.098 -1.83,-224.039"
         style="fill:#a7aaa9;fill-opacity:1;fill-rule:nonzero;stroke:none"
         id="path298" /><path
         d="m 1731.24,1359.98 -252.39,294.04 -4.31,0.55 10.36,109.13 292.88,-398.37 -46.54,-5.35"
         style="fill:#b1b3b1;fill-opacity:1;fill-rule:nonzero;stroke:none"
         id="path300" /><path
         d="m 1816.64,1176.82 -380.6,72.15 38.5,405.6 4.31,-0.55 252.39,-294.04 46.54,5.35 123.18,-167.55 -84.32,-20.96"
         style="fill:#263f48;fill-opacity:1;fill-rule:nonzero;stroke:none"
         id="path302" /><path
         d="m 2039.33,165.23 c -117.46,27.168 -232.93,53.872 -346.26,80.079 l 149.27,18.16 52,76.16 194.98,-61.297 -49.99,-113.102"
         style="fill:#263f48;fill-opacity:1;fill-rule:nonzero;stroke:none"
         id="path304" /><path
         d="M 2324.65,94.1406 C 1982.87,173.32 1656.26,248.98 1347.9,320.422 l 0.44,4.609 c 65.53,-15.152 131.89,-30.5 199.04,-46.031 48.17,-11.141 96.71,-22.371 145.69,-33.691 113.33,-26.207 228.8,-52.911 346.26,-80.079 17.11,-3.949 34.25,-7.921 51.45,-11.89 77.14,-17.84 155.11,-35.871 233.91,-54.09 l -0.04,-5.1094"
         style="fill:#111d23;fill-opacity:1;fill-rule:nonzero;stroke:none"
         id="path306" /><path
         d="m 2231.21,1741 -51.65,82.11 c 29.92,-5.51 60.22,-11.1 90.95,-16.77 l 30.05,-46.12 c -23.32,-6.46 -46.51,-12.88 -69.35,-19.22"
         style="fill:#c3c5c2;fill-opacity:1;fill-rule:nonzero;stroke:none"
         id="path308" /><path
         d="m 2165.14,1722.62 c -117.76,30.45 -225.29,86.36 -316.35,161.48 103.62,-19.1 214.12,-39.48 330.77,-60.99 l 51.65,-82.11 c -22.44,-6.23 -44.57,-12.39 -66.07,-18.38"
         style="fill:#b1b3b1;fill-opacity:1;fill-rule:nonzero;stroke:none"
         id="path310" /><path
         d="m 2300.56,1760.22 -30.05,46.12 c 22.45,-4.14 45.15,-8.32 68.03,-12.54 l -0.19,-23.11 c -12.6,-3.49 -25.22,-6.99 -37.79,-10.47"
         style="fill:#b1b3b1;fill-opacity:1;fill-rule:nonzero;stroke:none"
         id="path312" /><path
         d="m 2338.57,1797.5 c -178.08,32.6 -343.61,62.91 -494.53,90.55 -29.17,24.44 -56.63,50.86 -82.15,79.07 172.81,-32.31 366.25,-68.48 576.86,-107.86 l 0.32,-0.07 -0.5,-61.69"
         style="fill:#c3c5c2;fill-opacity:1;fill-rule:nonzero;stroke:none"
         id="path314" /><path
         d="m 2339.07,1859.19 -0.32,0.07 c -210.61,39.38 -404.05,75.55 -576.86,107.86 -0.53,0.59 -1.07,1.18 -1.6,1.77 l 578.8,-107.87 -0.02,-1.83"
         style="fill:#111d23;fill-opacity:1;fill-rule:nonzero;stroke:none"
         id="path316" /><path
         d="m 2338.54,1793.8 c -22.88,4.22 -45.58,8.4 -68.03,12.54 -30.73,5.67 -61.03,11.26 -90.95,16.77 -116.65,21.51 -227.15,41.89 -330.77,60.99 -1.61,1.33 -3.16,2.61 -4.75,3.95 150.92,-27.64 316.45,-57.95 494.53,-90.55 l -0.03,-3.7"
         style="fill:#111d23;fill-opacity:1;fill-rule:nonzero;stroke:none"
         id="path318" /><path
         d="M 4671,6.83984 C 4451.19,48.7813 4219.06,93.0703 3983.7,137.969 3762.86,180.09 3544.89,221.66 3330.53,262.551 l -0.52,0.097 -0.23,-0.046 -6.56,64.519 c 2.29,0.551 4.61,1.109 6.9,1.66 201.3,-38.902 405.98,-78.461 613.32,-118.543 211.73,-40.898 420.7,-81.269 618.13,-119.4177 l 4.59,-0.8906 -1.69,4.3711 C 4333.42,689.691 4114.1,1254.86 3915.51,1766.64 l -0.45,1.14 -1.18,0.3 c -214.37,52.67 -421.01,103.46 -616.76,151.57 9.65,16.63 18.97,33.35 27.96,50.17 199.2,-50.22 409.74,-103.31 628.18,-158.39 C 4172.57,1260.01 4415.01,650.469 4671,6.83984"
         style="fill:#c3c5c2;fill-opacity:1;fill-rule:nonzero;stroke:none"
         id="path320" /><path
         d="m 4675.14,3.42188 -1345.1,256.59012 -0.26,2.59 0.23,0.046 0.52,-0.097 C 3544.89,221.66 3762.86,180.09 3983.7,137.969 4219.06,93.0703 4451.19,48.7813 4671,6.83984 4415.01,650.469 4172.57,1260.01 3953.26,1811.43 c -218.44,55.08 -428.98,108.17 -628.18,158.39 0.35,0.66 0.69,1.3 1.04,1.96 L 3954.97,1813.41 4675.14,3.42188"
         style="fill:#111d23;fill-opacity:1;fill-rule:nonzero;stroke:none"
         id="path322" /><path
         d="m 3845.16,234.539 c -31.62,6.109 -63.21,12.211 -94.7,18.301 l 51.76,23.691 -550.16,750.379 -10.14,99.64 316.47,-414.991 323.64,107.472 -332.5,398.969 -308.72,-80.48 -4.14,40.7 281.82,80.86 -150.6,168.71 v 0 l -176.73,198 -9.75,95.78 79.95,-88.92 646.58,132.04 c 1.21,-0.29 2.42,-0.59 3.63,-0.89 5.25,-13.53 10.48,-27.04 15.76,-40.64 l -597.29,-124.11 241.65,-320.03 476.51,132.39 c 3.52,-9.07 7.03,-18.11 10.56,-27.21 l -438.3,-133.49 350.23,-401.562 261.51,87.743 c 6.02,-15.532 12.07,-31.121 18.11,-46.719 l -629.85,-200.781 261.57,-362.852 416.72,150.211 80.45,81.02 c 12.75,-32.872 25.55,-65.891 38.39,-99 L 3845.16,234.539"
         style="fill:#c3c5c2;fill-opacity:1;fill-rule:nonzero;stroke:none"
         id="path324" /><path
         d="m 3261.36,1632.65 -79.95,88.92 -1.66,16.4 61.72,91.76 c 18.66,28.45 36.49,57.09 53.36,85.99 194.64,-47.95 400.03,-98.54 613.11,-151.03 l -646.58,-132.04"
         style="fill:#a7aaa9;fill-opacity:1;fill-rule:nonzero;stroke:none"
         id="path326" /><path
         d="m 3464.32,308.121 c -44.75,8.649 -89.35,17.258 -133.78,25.848 l -0.56,0.101 -0.54,-0.121 c -0.29,-0.07 -0.59,-0.14 -0.88,-0.207 l -7.15,11.149 -19.45,191.238 148.5,-225.199 13.86,-2.809"
         style="fill:#c3c5c2;fill-opacity:1;fill-rule:nonzero;stroke:none"
         id="path328" /><path
         d="m 3322.69,332.32 -1.28,12.571 7.15,-11.149 c -1.95,-0.472 -3.91,-0.953 -5.87,-1.422"
         style="fill:#b1b3b1;fill-opacity:1;fill-rule:nonzero;stroke:none"
         id="path330" /><path
         d="m 3571.69,1279.02 -241.65,320.03 597.29,124.11 c 12.46,-32.14 25.02,-64.53 37.63,-97.07 l -344.5,-97.37 128.24,-200.52 299.5,83.21 v 0 l -476.51,-132.39"
         style="fill:#a7aaa9;fill-opacity:1;fill-rule:nonzero;stroke:none"
         id="path332" /><path
         d="m 3236.67,1178.22 -21.19,208.39 152.41,41.18 150.6,-168.71 -281.82,-80.86"
         style="fill:#b1b3b1;fill-opacity:1;fill-rule:nonzero;stroke:none"
         id="path334" /><path
         d="m 4557.95,96.7891 c -196.07,37.8909 -403.43,77.9729 -613.52,118.5699 -33.16,6.411 -66.24,12.801 -99.27,19.18 l 572.43,224.231 c 46.25,-119.258 93.05,-239.969 140.36,-361.9809"
         style="fill:#a7aaa9;fill-opacity:1;fill-rule:nonzero;stroke:none"
         id="path336" /><path
         d="m 3558.39,711.559 -316.47,414.991 -1.11,10.97 308.72,80.48 332.5,-398.969 -323.64,-107.472"
         style="fill:#263f48;fill-opacity:1;fill-rule:nonzero;stroke:none"
         id="path338" /><path
         d="m 3970.69,849.148 -350.23,401.562 438.3,133.49 c 56.5,-145.74 114.38,-294.98 173.44,-447.309 l -261.51,-87.743"
         style="fill:#a7aaa9;fill-opacity:1;fill-rule:nonzero;stroke:none"
         id="path340" /><path
         d="m 3882.03,326.539 -261.57,362.852 629.85,200.781 C 4292.7,780.859 4335.69,670 4379.2,557.77 l -80.45,-81.02 -416.72,-150.211"
         style="fill:#263f48;fill-opacity:1;fill-rule:nonzero;stroke:none"
         id="path342" /><path
         d="m 3750.46,252.84 c -8.14,1.57 -16.27,3.14 -24.4,4.711 l -323.44,438.508 -112.95,-39.039 -37.61,369.89 550.16,-750.379 -51.76,-23.691"
         style="fill:#a7aaa9;fill-opacity:1;fill-rule:nonzero;stroke:none"
         id="path344" /><path
         d="m 3215.48,1386.61 -24.32,239.18 176.73,-198 -152.41,-41.18"
         style="fill:#a7aaa9;fill-opacity:1;fill-rule:nonzero;stroke:none"
         id="path346" /><path
         d="m 3748.7,1328.2 -128.24,200.52 344.5,97.37 c 27.39,-70.62 55.15,-142.23 83.24,-214.68 l -299.5,-83.21"
         style="fill:#b1b3b1;fill-opacity:1;fill-rule:nonzero;stroke:none"
         id="path348" /><path
         d="m 3726.06,257.551 c -87.8,16.969 -175.06,33.82 -261.74,50.57 l -13.86,2.809 -148.5,225.199 -12.29,120.891 112.95,39.039 323.44,-438.508"
         style="fill:#b1b3b1;fill-opacity:1;fill-rule:nonzero;stroke:none"
         id="path350" /><path
         d="m 4566.16,89.9297 -4.59,0.8906 c -197.43,38.1487 -406.4,78.5197 -618.13,119.4177 -207.34,40.082 -412.02,79.641 -613.32,118.543 -2.29,-0.551 -4.61,-1.109 -6.9,-1.66 l -0.53,5.199 c 1.96,0.469 3.92,0.95 5.87,1.422 0.29,0.067 0.59,0.137 0.88,0.207 l 0.54,0.121 0.56,-0.101 c 44.43,-8.59 89.03,-17.199 133.78,-25.848 86.68,-16.75 173.94,-33.601 261.74,-50.57 8.13,-1.571 16.26,-3.141 24.4,-4.711 31.49,-6.09 63.08,-12.192 94.7,-18.301 33.03,-6.379 66.11,-12.769 99.27,-19.18 210.09,-40.597 417.45,-80.679 613.52,-118.5699 -47.31,122.0119 -94.11,242.7229 -140.36,361.9809 -12.84,33.109 -25.64,66.128 -38.39,99 -43.51,112.23 -86.5,223.089 -128.89,332.402 -6.04,15.598 -12.09,31.187 -18.11,46.719 -59.06,152.329 -116.94,301.569 -173.44,447.309 -3.53,9.1 -7.04,18.14 -10.56,27.21 v 0 c -28.09,72.45 -55.85,144.06 -83.24,214.68 -12.61,32.54 -25.17,64.93 -37.63,97.07 -5.28,13.6 -10.51,27.11 -15.76,40.64 -1.21,0.3 -2.42,0.6 -3.63,0.89 -213.08,52.49 -418.47,103.08 -613.11,151.03 0.76,1.3 1.53,2.62 2.29,3.93 195.75,-48.11 402.39,-98.9 616.76,-151.57 l 1.18,-0.3 0.45,-1.14 C 4114.1,1254.86 4333.42,689.691 4564.47,94.3008 l 1.69,-4.3711"
         style="fill:#111d23;fill-opacity:1;fill-rule:nonzero;stroke:none"
         id="path352" /><path
         d="m 2371.48,1696.5 c -453.91,0 -821.88,367.97 -821.88,821.88 0,453.91 367.97,821.88 821.88,821.88 453.91,0 821.88,-367.97 821.88,-821.88 0,-453.91 -367.97,-821.88 -821.88,-821.88 m -25.98,1887.88 c -580.09,-13.46 -1053.09,-486.24 -1066.9,-1066.33 -5.91,-248.43 71.34,-478.43 205.52,-664.68 l -0.29,-0.09 10.65,-14.49 1.51,-2.04 774.05,-1052.852 c 68.15,-92.687 207.57,-89.769 271.78,5.684 l 699.65,1040.148 c 132.4,201.92 223.21,412.97 223.21,661.75 0,612.39 -503.54,1107.18 -1119.18,1092.9"
         style="fill:#f2575d;fill-opacity:1;fill-rule:nonzero;stroke:none"
         id="path354" /><path
         d="m 2403.88,716.148 c -10.84,0 -21.7,1.051 -32.38,3.153 41.04,8.051 79.47,31.551 105.53,70.281 l 699.64,1040.148 c 132.41,201.92 223.22,412.97 223.22,661.75 0,592.88 -472.11,1075.54 -1060.83,1092.73 2.15,0.06 4.28,0.11 6.44,0.17 8.72,0.2 17.31,0.3 25.98,0.3 603.71,0 1093.2,-489.48 1093.2,-1093.2 0,-164.76 -39.84,-313 -105.21,-452.97 -8.98,-19.24 -18.42,-38.28 -28.33,-57.23 -1.66,-3.16 -3.34,-6.34 -5.02,-9.5 -0.35,-0.66 -0.69,-1.3 -1.04,-1.96 -8.99,-16.82 -18.31,-33.54 -27.96,-50.17 -0.76,-1.31 -1.53,-2.63 -2.29,-3.93 -16.87,-28.9 -34.7,-57.54 -53.36,-85.99 l -61.72,-91.76 -5.6,-8.32 -32.53,-48.37 -153.22,-227.79 -147.63,-219.46 -45.74,-68.01 -54.54,-81.09 -198.67,-295.348 c -32.84,-48.82 -85.35,-73.434 -137.94,-73.434"
         style="fill:#cc4341;fill-opacity:1;fill-rule:nonzero;stroke:none"
         id="path356" /><path
         d="m 2135.53,1714.35 c -371.75,78.77 -650.72,408.83 -650.72,804.03 0,453.91 367.97,821.88 821.88,821.88 10.86,0 21.64,-0.21 32.39,-0.63 -438.87,-17.03 -789.48,-378.2 -789.48,-821.25 v 0 0 c 0,-382.65 261.5,-704.23 615.54,-795.76 -10.02,-2.79 -19.87,-5.54 -29.61,-8.27"
         style="fill:#cc4341;fill-opacity:1;fill-rule:nonzero;stroke:none"
         id="path358" /><path
         d="m 2306.69,1696.5 c -453.91,0 -821.88,367.97 -821.88,821.88 0,453.91 367.97,821.88 821.88,821.88 453.91,0 821.88,-367.97 821.88,-821.88 0,-453.91 -367.97,-821.88 -821.88,-821.88 m -25.98,1887.88 c -580.1,-13.46 -1053.09,-486.24 -1066.9,-1066.33 -5.91,-248.43 71.34,-478.43 205.51,-664.68 l -0.29,-0.09 10.66,-14.49 1.5,-2.04 774.06,-1052.852 c 68.14,-92.687 207.58,-89.769 271.78,5.684 l 699.64,1040.148 c 132.41,201.92 223.22,412.97 223.22,661.75 0,612.39 -503.55,1107.18 -1119.18,1092.9"
         style="fill:#f2575d;fill-opacity:1;fill-rule:nonzero;stroke:none"
         id="path360" /><path
         d="m 2630.03,1852.13 c 86.73,24.71 146.11,42.57 149.48,46.38 3,-5.49 5.64,-11.08 7.92,-16.76 -53.43,-10.06 -105.93,-19.93 -157.4,-29.62"
         style="fill:#a7a9a8;fill-opacity:1;fill-rule:nonzero;stroke:none"
         id="path362" /><path
         d="m 2339.08,1697.13 c -0.44,0.02 -0.89,0.04 -1.33,0.05 l 0.05,5.88 3.79,-5.83 c -0.82,-0.03 -1.68,-0.07 -2.51,-0.1 m 108.21,11.35 -50.29,78.46 c 16.59,4.6 33.08,9.17 49.33,13.69 l 56.15,-80.66 c -18.17,-4.44 -36.57,-8.28 -55.19,-11.49"
         style="fill:#a7a9a8;fill-opacity:1;fill-rule:nonzero;stroke:none"
         id="path364" /><path
         d="m 2341.59,1697.23 -3.79,5.83 0.55,67.63 c 19.62,5.44 39.21,10.86 58.65,16.25 l 50.29,-78.46 c -34.54,-5.95 -69.83,-9.75 -105.7,-11.25"
         style="fill:#979999;fill-opacity:1;fill-rule:nonzero;stroke:none"
         id="path366" /><path
         d="m 2502.48,1719.97 -56.15,80.66 c 50.63,14.06 99.19,27.61 142.8,39.91 45.58,8.54 91.96,17.23 139.15,26.07 l -20.24,-3.99 30.09,-43.9 c -71.95,-44.47 -151.22,-78.12 -235.65,-98.75"
         style="fill:#979999;fill-opacity:1;fill-rule:nonzero;stroke:none"
         id="path368" /><path
         d="m 2738.13,1818.72 -30.09,43.9 20.24,3.99 c 20.06,3.76 40.29,7.55 60.62,11.35 2.53,-6.78 4.57,-13.69 6.15,-20.69 -18.39,-13.61 -37.41,-26.49 -56.92,-38.55"
         style="fill:#8f9192;fill-opacity:1;fill-rule:nonzero;stroke:none"
         id="path370" /><path
         d="m 2589.13,1840.54 c 14.2,4.01 27.84,7.87 40.9,11.59 51.47,9.69 103.97,19.56 157.4,29.62 0.51,-1.26 1,-2.52 1.47,-3.79 -20.33,-3.8 -40.56,-7.59 -60.62,-11.35 -47.19,-8.84 -93.57,-17.53 -139.15,-26.07"
         style="fill:#0f191d;fill-opacity:1;fill-rule:nonzero;stroke:none"
         id="path372" /><path
         d="m 2337.75,1697.18 c -28.31,1.15 -56.29,3.73 -83.79,7.66 l -22.75,36.16 c 22.84,6.34 46.03,12.76 69.35,19.22 l 37.24,-57.16 -0.05,-5.88"
         style="fill:#7f8284;fill-opacity:1;fill-rule:nonzero;stroke:none"
         id="path374" /><path
         d="m 2253.96,1704.84 c -30.17,4.32 -59.8,10.28 -88.82,17.78 21.5,5.99 43.63,12.15 66.07,18.38 l 22.75,-36.16"
         style="fill:#747779;fill-opacity:1;fill-rule:nonzero;stroke:none"
         id="path376" /><path
         d="m 2337.8,1703.06 -37.24,57.16 c 12.57,3.48 25.19,6.98 37.79,10.47 l -0.55,-67.63"
         style="fill:#747779;fill-opacity:1;fill-rule:nonzero;stroke:none"
         id="path378" /><path
         d="m 2306.69,1696.5 c -58.71,0 -115.94,6.15 -171.16,17.85 9.74,2.73 19.59,5.48 29.61,8.27 55.88,-14.45 114.12,-23.17 173.94,-25.49 -10.75,-0.42 -21.53,-0.63 -32.39,-0.63"
         style="fill:#862b2c;fill-opacity:1;fill-rule:nonzero;stroke:none"
         id="path380" /><path
         d="m 2376.97,1552.8 c -161.72,0.01 -342.38,40.55 -492.89,86.45 4.56,5.16 112.25,36.18 251.45,75.1 55.22,-11.7 112.45,-17.85 171.16,-17.85 10.86,0 21.64,0.21 32.39,0.63 v 0 c 0.83,0.03 1.69,0.07 2.51,0.1 35.87,1.5 71.16,5.3 105.7,11.25 18.62,3.21 37.02,7.05 55.19,11.49 84.43,20.63 163.7,54.28 235.65,98.75 19.51,12.06 38.53,24.94 56.92,38.55 17.74,-78.64 -23.09,-168.4 -88.78,-219.51 -77.55,-60.34 -179.83,-77.82 -277.93,-83.51 -16.87,-0.98 -34,-1.45 -51.37,-1.45"
         style="fill:#cc4341;fill-opacity:1;fill-rule:nonzero;stroke:none"
         id="path382" /><path
         d="m 1949.54,3557.1 c -50.49,-52.67 -72.52,-131.12 -56.85,-202.37 7.62,-34.61 22.87,-73.19 3.85,-103.1 -18.83,-29.6 -63.18,-35.05 -80.97,-65.29 -20.94,-35.59 7.04,-80.29 3.53,-121.44 -3.3,-38.63 -38.92,-71.75 -77.68,-72.23 49.76,-30.2 107.97,-46.33 166.19,-46.02 11.98,20.81 23.96,41.61 35.94,62.42 -13.85,-22.03 -5.04,-52.82 13.88,-70.69 18.92,-17.87 45.29,-25.36 70.94,-29.71 122.58,-20.77 254.03,19.94 343.4,106.37"
         style="fill:#17282f;fill-opacity:1;fill-rule:nonzero;stroke:none"
         id="path384" /><path
         d="m 2650.77,3340.12 c -12.53,25.6 -30.73,48.4 -40.49,75.17 -20.99,57.55 -1.46,128.37 -37.72,177.73 -25.81,35.14 -72.06,47.63 -115.1,54.56 -43.04,6.92 -88.84,11.49 -123.85,37.46 -25.68,19.05 -42.81,47.85 -68.43,66.98 -36.5,27.27 -85.33,31.4 -130.76,27.86 -46.64,-3.65 -93.84,-14.8 -132.58,-41.05 -38.74,-26.24 -67.92,-69.41 -68.92,-116.19 -0.48,-22.8 5.53,-45.8 1.51,-68.25 -4.42,-24.7 -20.4,-45.67 -28.74,-69.33 -17.62,-50 4.27,-110.94 49.69,-138.29 l 375.02,-365.65 c 70.24,-15.85 227.59,37.28 272.25,93.76 44.65,56.5 79.76,200.56 48.12,265.24"
         style="fill:#17282f;fill-opacity:1;fill-rule:nonzero;stroke:none"
         id="path386" /><path
         d="m 1956.46,3400.06 c 0.04,94.96 55.43,214.92 150.3,210.86 l 298.95,-55.95 c 28.82,-1.24 51.89,-24.32 53.13,-53.14 l 12.95,-711.6 2.06,-0.31 c 0,0 -54.04,-204.46 -252.46,-155.94 -39.35,9.62 -59.69,50.66 -70.15,93.54 l -1.97,-0.38 c -0.41,5.15 -0.79,9.94 -1.17,14.86 -9.66,49.65 -7.48,97.34 -7.48,97.34 -4.26,57.25 -5.72,80.74 -5.72,80.21 0,0 -122.1,12.49 -157.01,168.58 -17.36,77.63 -21.47,206.43 -21.43,311.93"
         style="fill:#f8a58d;fill-opacity:1;fill-rule:nonzero;stroke:none"
         id="path388" /><path
         d="m 2230.33,3302.75 c 0.29,-10.7 9.6,-19.27 20.78,-19.18 11.15,0.11 19.99,8.84 19.7,19.54 -0.3,10.7 -9.6,19.29 -20.75,19.19 -11.19,-0.09 -20.02,-8.84 -19.73,-19.55"
         style="fill:#17282f;fill-opacity:1;fill-rule:nonzero;stroke:none"
         id="path390" /><path
         d="m 2023.82,3286.99 c 0.3,-10.7 9.6,-19.28 20.78,-19.18 11.16,0.1 19.99,8.83 19.7,19.54 -0.29,10.7 -9.59,19.29 -20.75,19.19 -11.19,-0.1 -20.02,-8.85 -19.73,-19.55"
         style="fill:#17282f;fill-opacity:1;fill-rule:nonzero;stroke:none"
         id="path392" /><path
         d="m 1980.46,3331.72 c 2.69,-3.36 19.66,11.02 43.43,10.89 23.75,0.27 40.97,-14.01 43.6,-10.63 1.29,1.5 -1.4,7.56 -8.89,14.02 -7.38,6.42 -20.04,12.69 -34.84,12.65 -14.81,-0.06 -27.37,-6.38 -34.63,-12.85 -7.42,-6.51 -9.99,-12.58 -8.67,-14.08"
         style="fill:#17282f;fill-opacity:1;fill-rule:nonzero;stroke:none"
         id="path394" /><path
         d="m 2200.18,3337.07 c 3.23,-2.98 19.68,12.88 44.89,15.32 25.15,2.84 44.96,-9.23 47.39,-5.65 1.2,1.6 -2.28,7.22 -10.96,12.71 -8.51,5.48 -22.61,10.21 -38.31,8.58 -15.7,-1.66 -28.33,-9.18 -35.33,-16.29 -7.14,-7.15 -9.23,-13.34 -7.68,-14.67"
         style="fill:#17282f;fill-opacity:1;fill-rule:nonzero;stroke:none"
         id="path396" /><path
         d="m 2133.8,3177.96 c 0.03,1.24 -13.64,2.73 -35.73,4.17 -5.6,0.22 -10.92,1 -12.1,4.73 -1.56,3.93 0.39,10.06 2.68,16.69 4.38,13.78 8.97,28.21 13.78,43.34 19.04,61.66 32.46,112.23 29.97,112.97 -2.49,0.75 -19.95,-48.63 -38.99,-110.29 -4.56,-15.2 -8.93,-29.69 -13.07,-43.55 -1.71,-6.44 -4.88,-13.83 -1.52,-21.98 1.76,-4.06 6.02,-6.82 9.64,-7.56 3.63,-0.86 6.76,-0.72 9.52,-0.71 22.13,0.19 35.82,0.95 35.82,2.19"
         style="fill:#17282f;fill-opacity:1;fill-rule:nonzero;stroke:none"
         id="path398" /><path
         d="m 2134.9,2919.55 c 0,0 106.49,-0.2 207.61,69.54 0,0 -44.43,-111.51 -203.16,-106.64 l -4.45,37.1"
         style="fill:#f68260;fill-opacity:1;fill-rule:nonzero;stroke:none"
         id="path400" /><path
         d="m 2146.29,3126.1 c 7.18,10.83 20.53,17.38 34.24,16.76 9.5,-0.42 19.32,-4.38 25.54,-11.71 6.22,-7.33 8.1,-18.17 3.35,-25.82 -5.35,-8.63 -17.5,-11.31 -28.07,-9 -10.57,2.3 -19.93,8.57 -28.85,14.85 -2.47,1.74 -4.99,3.55 -6.62,6.05 -1.63,2.48 -2.15,5.84 -0.47,8.1"
         style="fill:#f2575d;fill-opacity:1;fill-rule:nonzero;stroke:none"
         id="path402" /><path
         d="m 2198.78,3166.92 c -3.55,-0.02 -2.12,-23.63 -21.29,-41.67 -19.12,-18.08 -44.46,-17 -44.44,-20.31 -0.23,-1.51 5.9,-4.24 16.54,-3.87 10.44,0.3 25.45,4.6 37.18,15.63 11.69,11.05 16.13,25.1 16.33,34.84 0.28,9.93 -2.72,15.62 -4.32,15.38"
         style="fill:#17282f;fill-opacity:1;fill-rule:nonzero;stroke:none"
         id="path404" /><path
         d="m 2191.97,3410.72 c 2.51,-5.78 24.06,-1.62 49.78,-3.1 25.75,-0.96 46.8,-7.14 49.86,-1.62 1.35,2.63 -2.59,7.97 -11.27,13.18 -8.61,5.2 -22.11,9.81 -37.54,10.55 -15.43,0.72 -29.31,-2.59 -38.37,-6.95 -9.14,-4.37 -13.56,-9.31 -12.46,-12.06"
         style="fill:#17282f;fill-opacity:1;fill-rule:nonzero;stroke:none"
         id="path406" /><path
         d="m 1992.67,3398.4 c 4.69,-4.66 21.49,1.54 42.08,3.07 20.53,2.16 38.25,-0.94 41.94,4.48 1.6,2.62 -1.46,7.4 -9.37,11.6 -7.8,4.19 -20.6,7.22 -34.74,5.96 -14.12,-1.28 -26.11,-6.53 -32.96,-12.04 -6.95,-5.54 -9.03,-10.77 -6.95,-13.07"
         style="fill:#17282f;fill-opacity:1;fill-rule:nonzero;stroke:none"
         id="path408" /><path
         d="m 2471.99,3541.39 c -17.51,20.15 -45,27.93 -70.99,33.99 -112.11,26.16 -227.35,38.9 -342.47,37.87 -10.83,-25.18 6.62,-54.94 30.23,-68.86 23.61,-13.91 51.84,-16.76 78.6,-22.7 26.76,-5.95 54.87,-16.94 68.85,-40.51 14.87,-25.07 9.89,-57.93 23.48,-83.72 23.39,-44.36 90.7,-50.29 113.84,-94.78 17.49,-33.66 2.26,-74.23 2.34,-112.16 0.11,-42.98 21.97,-85.37 56.93,-110.36 27.58,-19.72 62.71,-28.02 96.31,-23.96 -11.06,135.16 -22.11,270.32 -33.17,405.48 -2.29,28.15 -5.44,58.38 -23.95,79.71"
         style="fill:#17282f;fill-opacity:1;fill-rule:nonzero;stroke:none"
         id="path410" /><path
         d="m 2789.56,3240.53 c -23.82,16.01 -52.67,28.7 -64.92,54.68 -17.84,37.82 7.41,88.75 -18.09,121.9 -23.26,30.23 -77.99,20.87 -100.03,52 -17.22,24.31 -4.92,49.68 -13.29,71.98 -8.38,22.3 -43.88,37.91 -66.92,31.87 L 2380.4,3281.93 c -4.53,-91.41 -14.99,-141.2 11.42,-190.6 14.49,-27.09 32.06,-53.02 40.4,-82.59 8.33,-29.58 5.42,-64.82 -16.74,-86.11 110.69,6.76 205.25,78.44 292.3,147.13 30.71,24.23 61.41,48.47 92.13,72.7 9.59,7.56 19.55,15.61 24.34,26.84 11.3,26.39 -10.85,55.22 -34.69,71.23"
         style="fill:#17282f;fill-opacity:1;fill-rule:nonzero;stroke:none"
         id="path412" /><path
         d="m 2706.76,3096.98 c 0,0 -3.7,-2 -11.38,-3.89 -7.64,-1.87 -19.38,-3.87 -34.44,-2.36 -14.92,1.49 -33.46,6.41 -51.16,18.93 -17.67,12.3 -33.45,33.16 -40.28,59.61 -3.36,13.19 -4.49,27.7 -2.3,42.49 2.22,14.87 8.29,29.23 14.63,43.54 6.23,14.33 13.15,29.09 15.06,45.16 1.88,15.78 -0.62,33.88 -12.37,45.59 -11.83,11.96 -30.8,12.63 -48.92,17.14 -9.12,2.24 -18.8,6.35 -25.77,14.01 -6.96,7.65 -10.37,17.78 -11.55,27.66 -2.57,20.08 3.39,39.6 4.46,58.77 0.55,9.6 -0.12,19.36 -3.75,27.99 -3.58,8.62 -10.31,15.68 -18.92,19.98 -17.38,9.08 -37.8,8.05 -57.45,7.04 -19.73,-1.34 -40.75,0.21 -58.75,8.7 -18.11,7.96 -33.56,20.84 -44.49,36.44 -10.87,15.81 -16.5,33.63 -21.6,50.47 -5.07,16.91 -9.78,33.37 -17.63,47.71 -7.83,14.28 -18.9,26.07 -31.19,35.21 -25.03,17.91 -54.48,25.19 -80.55,23.68 -26.25,-1.45 -48.84,-11.63 -65.82,-23.63 -17.16,-12.04 -29.3,-25.89 -37.67,-38.03 -16.67,-24.64 -19.94,-41.42 -20.83,-41.01 -0.11,0.03 0.11,1.04 0.65,2.99 0.59,1.93 1.23,4.89 2.66,8.56 2.57,7.45 7.27,18.22 15.44,30.86 8.18,12.55 20.27,26.93 37.66,39.56 17.21,12.58 40.33,23.44 67.64,25.24 27.04,1.84 57.65,-5.37 83.95,-23.89 12.92,-9.45 24.66,-21.78 33.03,-36.81 8.32,-15.04 13.2,-31.91 18.34,-48.71 5.14,-16.77 10.74,-33.93 20.97,-48.68 10.31,-14.61 24.91,-26.74 41.99,-34.19 17.09,-7.94 36.23,-9.36 55.92,-8.07 19.44,0.97 41.26,2.36 60.72,-7.72 9.63,-4.79 17.77,-13.2 21.86,-23.21 4.19,-10 4.8,-20.75 4.21,-30.83 -1.25,-20.33 -7.01,-39.22 -4.59,-57.67 1.08,-9.08 4.11,-17.8 9.91,-24.22 5.82,-6.41 14.03,-10.08 22.7,-12.25 8.66,-2.3 17.8,-3.44 26.77,-5.85 8.92,-2.28 18.08,-6.18 24.78,-13.02 13.63,-13.89 15.86,-33.75 13.81,-50.5 -2.18,-17.31 -9.5,-32.37 -15.81,-46.64 -6.44,-14.25 -12.37,-28.09 -14.59,-42.13 -2.2,-14.05 -1.29,-27.93 1.81,-40.61 6.28,-25.46 21.15,-45.7 37.97,-57.81 16.87,-12.36 34.79,-17.53 49.32,-19.36 29.63,-3.26 45.46,4.91 45.55,3.76"
         style="fill:#33535f;fill-opacity:1;fill-rule:nonzero;stroke:none"
         id="path414" /><path
         d="m 2826.35,3306.11 c 0,0 2.57,-2.38 4.86,-8.45 2.31,-5.95 3.55,-16.13 -0.89,-27.8 -2.33,-5.7 -6.03,-11.81 -11.95,-16.69 -5.87,-4.85 -13.69,-8.42 -22.51,-9.51 -17.4,-2.63 -39.41,4.99 -52.21,23.73 -6.44,9.12 -10.79,20.26 -12.48,32.28 -1.68,12.08 -0.29,24.78 2.62,37.26 5.37,24.91 17.9,50.2 14.37,77.93 -1.58,13.46 -6.77,27.6 -17.99,35.86 -11.13,8.52 -26.54,8.82 -41.53,6.85 -15.07,-1.59 -31.16,-5.8 -48.1,-1.73 -8.31,2.1 -16.24,6.92 -21.79,13.69 -5.61,6.71 -9.19,14.77 -11.38,23.03 -4.42,16.79 -2.69,33.51 -2.87,49.23 0.24,15.79 -2.85,30.88 -8.86,44.76 -12.07,27.67 -34.76,49.15 -60.32,59.72 -25.74,10.99 -53.41,8.68 -78.35,6.69 -25.08,-2.16 -49.36,-3.98 -70.83,1.22 -21.42,4.75 -39.36,13.92 -53.39,23.99 -14.16,9.99 -24.36,21.1 -31.7,30.73 -14.58,19.58 -17.9,32.92 -17.9,32.92 0.73,0.4 4.94,-12.62 19.87,-31.37 7.52,-9.24 17.77,-19.85 31.8,-29.33 13.89,-9.56 31.49,-18.18 52.27,-22.49 20.75,-4.73 44.26,-2.75 69.42,-0.34 24.91,2.17 53.56,4.95 81.06,-6.53 27.08,-11.04 50.99,-33.47 63.86,-62.69 6.4,-14.53 9.73,-30.98 9.48,-47.23 0.15,-16.13 -1.38,-32.4 2.68,-47.63 3.73,-15.21 13.77,-28.8 28.56,-32.16 14.61,-3.66 30.31,0.09 45.75,1.79 15.21,1.96 32.81,1.9 45.97,-8.2 13.13,-9.86 18.56,-25.71 20.19,-40.09 1.75,-14.65 -0.64,-29.15 -4.31,-42.19 -3.56,-13.15 -7.87,-25.5 -10.75,-37.65 -2.95,-12.1 -4.35,-24.11 -2.91,-35.39 1.45,-11.27 5.42,-21.77 11.29,-30.32 11.65,-17.54 31.75,-24.83 48.04,-22.77 8.21,0.85 15.51,4 21.02,8.32 5.55,4.34 9.19,9.96 11.56,15.26 4.54,10.87 3.81,20.6 1.98,26.45 -1.8,5.97 -3.94,8.66 -3.63,8.85"
         style="fill:#17282f;fill-opacity:1;fill-rule:nonzero;stroke:none"
         id="path416" /><path
         d="m 1681.68,3078.99 c 1.01,0.21 -4.45,-11.33 4.37,-28.58 4.36,-8.09 12.94,-17.48 25.99,-19.89 12.71,-2.44 29.15,3.13 38.65,16.61 4.77,6.63 6.87,15.26 6.2,24.25 -0.66,9 -3.75,18.18 -8.08,27.13 -8.41,17.72 -23.09,36.22 -24.67,60.64 -1.96,23.62 6.57,49.27 24.44,67.94 8.82,9.37 19.62,17.12 31.6,22.75 12,5.81 25.28,8.59 38.21,11.07 12.97,2.51 25.78,4.66 37.3,9.27 11.46,4.5 21.38,12.09 26.89,22.44 5.54,10.31 6.92,22.38 6.12,33.88 -0.8,11.62 -3.77,22.71 -7.57,33.38 -7.55,21.25 -17.09,41.59 -18.8,62.67 -1.82,20.95 3.49,40.52 12.1,55.93 8.61,15.7 21.08,26.31 31.46,35.15 10.53,8.85 19.5,16.47 25.76,23.7 12.9,14.41 13.86,25.96 14.71,25.56 0.11,-0.02 0.04,-0.69 -0.2,-1.98 -0.3,-1.27 -0.48,-3.27 -1.43,-5.67 -1.51,-4.93 -4.91,-11.95 -11.16,-19.52 -6.13,-7.68 -15.04,-15.73 -25.32,-24.81 -10.18,-9.12 -21.92,-19.58 -29.82,-34.62 -7.96,-14.82 -12.73,-33.52 -10.78,-53.24 1.8,-19.84 11.17,-39.56 19.07,-61.19 3.95,-10.83 7.21,-22.59 8.11,-34.92 0.91,-12.24 -0.42,-25.5 -6.69,-37.31 -6.23,-11.88 -17.69,-20.55 -30.06,-25.4 -12.43,-4.97 -25.57,-7.13 -38.48,-9.64 -12.92,-2.49 -25.46,-5.13 -36.7,-10.55 -11.29,-5.29 -21.45,-12.54 -29.73,-21.27 -16.75,-17.38 -24.76,-41.19 -23.11,-63.16 1.16,-22.38 14.86,-40.18 23.58,-58.81 4.4,-9.38 7.61,-19.19 8.21,-29.11 0.65,-9.84 -1.92,-19.8 -7.45,-27.19 -10.92,-14.9 -28.97,-20.53 -43.05,-17.51 -14.45,3.09 -23.26,13.57 -27.53,22.27 -4.43,8.99 -4.69,17.05 -4.17,22.14 0.68,5.16 2.03,7.59 2.03,7.59"
         style="fill:#17282f;fill-opacity:1;fill-rule:nonzero;stroke:none"
         id="path418" /><path
         d="m 1718.63,2469.23 c 0,0 16.81,134.45 81.63,201.67 64.82,67.22 335.99,151.39 335.99,151.39 0,0 11.21,-95.9 76.14,-119.03 68.9,-24.53 146.71,-15.32 197.15,43.2 48.78,56.59 63.02,129.35 63.02,129.35 0,0 323.87,-29.8 376.68,-118.63 52.81,-88.83 121.13,-432.87 121.13,-432.87 l -302.81,-64.27 41.16,-592.68 h -804.64 l 15.74,556.19 -219.04,-31.27 17.85,276.95"
         style="fill:#33535f;fill-opacity:1;fill-rule:nonzero;stroke:none"
         id="path420" /><path
         d="m 2607.44,2240.46 c -0.48,0.01 -0.84,4.77 -1.08,13.37 -0.24,8.6 -0.36,21.04 -0.36,36.4 0.01,30.73 0.5,73.17 1.46,120.03 0.98,46.88 2.25,89.32 3.52,120.03 0.64,15.36 1.27,27.79 1.86,36.38 0.59,8.58 1.15,13.33 1.64,13.33 0.48,0 0.84,-4.75 1.07,-13.33 0.24,-8.6 0.36,-21.03 0.36,-36.4 -0.01,-30.72 -0.5,-73.18 -1.47,-120.08 -0.97,-46.89 -2.24,-89.33 -3.51,-120.05 -0.63,-15.35 -1.27,-27.78 -1.86,-36.37 -0.59,-8.58 -1.15,-13.32 -1.63,-13.31"
         style="fill:#17282f;fill-opacity:1;fill-rule:nonzero;stroke:none"
         id="path422" /><path
         d="m 1845.22,2484.47 c 1.85,0.53 20.75,-59.57 42.21,-134.23 21.46,-74.68 37.34,-135.63 35.49,-136.16 -1.85,-0.53 -20.74,59.56 -42.2,134.24 -21.45,74.65 -37.34,135.62 -35.5,136.15"
         style="fill:#17282f;fill-opacity:1;fill-rule:nonzero;stroke:none"
         id="path424" /><path
         d="m 2815.41,2778.51 c 0.24,-1.24 -14.36,-3.92 -36.46,-12.33 -22.09,-8.31 -51.35,-23.6 -78.59,-47.19 -27.15,-23.72 -46.35,-50.57 -57.64,-71.29 -11.4,-20.73 -16.08,-34.81 -17.27,-34.41 -0.46,0.15 0.37,3.77 2.29,10.22 1.79,6.49 5.36,15.61 10.6,26.46 10.39,21.74 29.52,49.9 57.44,74.28 28,24.27 58.55,39.3 81.51,46.58 11.48,3.69 21,5.96 27.68,6.83 6.66,1 10.36,1.32 10.44,0.85"
         style="fill:#17282f;fill-opacity:1;fill-rule:nonzero;stroke:none"
         id="path426" /><path
         d="m 1795.37,2643.75 c 1.87,0.47 8.23,-18.22 14.2,-41.74 5.99,-23.54 9.32,-42.99 7.46,-43.47 -1.87,-0.47 -8.23,18.22 -14.21,41.75 -5.98,23.52 -9.32,42.99 -7.45,43.46"
         style="fill:#17282f;fill-opacity:1;fill-rule:nonzero;stroke:none"
         id="path428" /><path
         d="m 2916.49,2312.86 c 0,0 -90.7,-460.58 -101.08,-500 -10.38,-39.4 -27.13,-145.5 -136.97,-167.44 -148.28,-29.61 -730.61,-8.95 -730.61,-8.95 l 109.85,139.07 509.5,142.87 69.63,335.11 279.68,59.34"
         style="fill:#f8a58d;fill-opacity:1;fill-rule:nonzero;stroke:none"
         id="path430" /><path
         d="m 2048.07,1853.28 c 0.41,0.13 2.13,-3.57 4.35,-10.61 2.22,-7.04 4.61,-17.52 5.84,-30.73 2.64,-26.15 -1.02,-64.37 -20.81,-100.32 -9.78,-17.6 -20.78,-33.67 -33.33,-46.19 -12.45,-12.62 -26.41,-21.14 -38.9,-25.89 -12.5,-4.84 -23.28,-6.28 -30.62,-6.9 -7.4,-0.33 -11.46,-0.08 -11.48,0.37 -0.23,1.49 16.59,0.97 40.21,11.08 11.69,5.12 24.56,13.56 36.2,25.84 11.72,12.16 22.25,27.82 31.82,45.07 18.95,34.42 23.32,71.05 21.99,96.62 -1.17,25.83 -6.52,41.32 -5.27,41.66"
         style="fill:#f68260;fill-opacity:1;fill-rule:nonzero;stroke:none"
         id="path432" /><path
         d="m 1560.48,2398.4 c 0,0 82.1,-276.28 116.17,-395.67 36.21,-126.84 115.29,-414.88 283.92,-363.71 128.25,38.93 90.5,205.15 90.5,205.15 l -131.25,379.38 -102.06,-17.02 -99.13,255.83 -158.15,-63.96"
         style="fill:#f8a58d;fill-opacity:1;fill-rule:nonzero;stroke:none"
         id="path434" /><path
         d="m 2006.23,1832.24 c -1.6,0.07 8.91,24.12 0.05,62.5 -4.29,18.89 -13.24,40.59 -27.34,62.1 -14.07,21.61 -33.03,42.96 -53.19,65.25 -20.24,22.22 -39.05,44.36 -53.4,66.39 -14.58,21.87 -25.45,42.95 -33.54,61.04 -8.05,18.12 -13.23,33.32 -16.44,43.9 -3.21,10.59 -4.37,16.62 -3.98,16.74 0.53,0.15 2.57,-5.6 6.55,-15.86 3.97,-10.25 9.81,-25.05 18.34,-42.71 8.57,-17.62 19.74,-38.18 34.39,-59.52 14.45,-21.51 33,-43.07 53.27,-65.32 20.14,-22.29 39.27,-44.08 53.4,-66.43 14.2,-22.31 22.95,-44.9 26.76,-64.57 4.02,-19.69 2.7,-36.23 0.57,-47.13 -1.26,-5.45 -2.37,-9.62 -3.53,-12.33 -1.03,-2.74 -1.69,-4.13 -1.91,-4.05"
         style="fill:#f68260;fill-opacity:1;fill-rule:nonzero;stroke:none"
         id="path436" /><path
         d="m 1718.63,2462.36 c 0,0 0.58,110.33 -9.12,141.44 l -77.96,174.21 c 0,0 -20.08,12.31 -29.67,-22.43 -9.44,-34.19 20.83,-70.44 20.83,-70.44 l 2.37,-45.62 -31.56,25.66 -60.73,113.81 c 0,0 -41.82,82.86 -52.7,69.71 -10.87,-13.15 -7.27,-39.79 10.77,-75.55 18.06,-35.76 40.95,-81.11 40.95,-81.11 0,0 6.17,-14.4 -15.32,6.49 -21.49,20.89 -68.19,122.09 -77.85,134.72 -9.66,12.63 -22.91,49.72 -43.85,41.34 -20.94,-8.38 5.88,-52.85 5.88,-52.85 l 66.99,-150.05 c 0,0 -38.83,56.83 -45.86,66.41 -7.03,9.59 -23.15,42.12 -35.89,58.68 -12.73,16.56 -26.6,23.02 -35.84,19.03 -16.63,-7.19 -11.59,-22.87 -11.59,-22.87 l 71.51,-124.09 c 0,0 35.76,-55.66 35.7,-59.88 -0.06,-4.21 -31.17,18.39 -31.17,18.39 l -29.98,38.21 c 0,0 -32.43,57.24 -49.45,54.12 -17.03,-3.13 -13.93,-15.78 -13.93,-15.78 l 60.26,-104.2 87.38,-112.4 93.45,-92.84 53.98,17.41 102.4,50.48"
         style="fill:#f8a58d;fill-opacity:1;fill-rule:nonzero;stroke:none"
         id="path438" /><path
         d="m 1546.74,2481.01 c 1.4,-0.08 2.28,13.5 5.58,34.76 3.49,20.68 10.64,51.51 35.93,71.46 11.06,8.88 24.17,13.87 36.31,13.84 l 4.47,-0.01 -0.32,4.86 c -1.37,21.39 -0.6,41.75 -1.38,55.29 -0.43,13.78 -1.91,22.03 -3,21.85 -0.8,-0.15 -1.11,-8.02 -2.13,-21.79 -0.62,-13.97 -2.67,-32.57 -1.72,-56.68 l 4.15,4.83 c -14.23,0.45 -29.58,-5.25 -41.94,-15.2 -13.81,-10.9 -23.05,-25.5 -28.24,-39.45 -5.32,-13.98 -7.34,-27.22 -8.39,-38.2 -1.76,-22.03 -0.37,-35.52 0.68,-35.56"
         style="fill:#f68260;fill-opacity:1;fill-rule:nonzero;stroke:none"
         id="path440" /><path
         d="M 2981.64,1049.43 H 1689.49 c -26.82,0 -48.56,21.74 -48.56,48.56 v 352.41 c 0,26.82 21.74,48.56 48.56,48.56 h 1292.15 c 26.82,0 48.57,-21.74 48.57,-48.56 v -352.41 c 0,-26.82 -21.75,-48.56 -48.57,-48.56"
         style="fill:#ffffff;fill-opacity:1;fill-rule:nonzero;stroke:none"
         id="path442" /><path
         d="m 2981.64,1049.42 c -0.01,0.26 3.19,-0.03 9.18,1.18 5.88,1.21 14.94,4.17 23.61,12.35 8.69,7.94 16.2,22.01 15,39.58 -0.07,17.53 -0.15,37.71 -0.24,60.44 -0.12,45.51 -0.27,101.13 -0.45,165.69 -0.05,32.3 -0.12,66.83 -0.19,103.45 -0.26,9.1 0.59,18.63 -0.96,27.47 -1.81,8.91 -6.31,17.34 -12.9,23.96 -6.66,6.52 -15.3,11.21 -24.73,12.84 -9.29,1.4 -19.7,0.48 -29.76,0.73 -325.31,-0.2 -774.5,-0.47 -1270.63,-0.76 -14.74,0.05 -29.15,-7.38 -37.53,-19.4 -4.33,-5.89 -6.94,-12.92 -8,-20.08 -0.89,-7.05 -0.35,-15.06 -0.51,-22.63 0,-30.64 -0.01,-61.07 -0.01,-91.28 -0.01,-60.42 -0.02,-119.96 -0.03,-178.46 -0.01,-14.63 -0.01,-29.19 -0.02,-43.68 0,-7.25 0,-14.47 -0.01,-21.69 -0.07,-6.95 1.17,-13.73 4.04,-19.95 5.56,-12.42 16.77,-22.17 29.85,-25.58 6.5,-1.88 13.26,-1.69 20.45,-1.68 7.08,0 14.13,0 21.16,-0.01 56.28,-0.02 111.37,-0.05 165.13,-0.08 214.99,-0.21 408.6,-0.4 571.24,-0.56 162.52,-0.35 294.05,-0.63 385.11,-0.83 45.37,-0.21 80.63,-0.37 104.7,-0.49 11.88,-0.11 20.97,-0.19 27.23,-0.25 6.14,-0.09 9.27,-0.28 9.27,-0.28 0,0 -3.13,-0.17 -9.27,-0.26 -6.26,-0.06 -15.35,-0.15 -27.23,-0.25 -24.07,-0.12 -59.33,-0.29 -104.7,-0.49 -91.06,-0.2 -222.59,-0.48 -385.11,-0.83 -162.64,-0.16 -356.25,-0.35 -571.24,-0.56 -53.76,-0.03 -108.85,-0.06 -165.13,-0.09 -7.03,0 -14.08,-0.01 -21.16,-0.01 -6.9,-0.01 -14.51,-0.26 -21.77,1.84 -14.52,3.78 -26.95,14.56 -33.14,28.35 -3.17,6.85 -4.58,14.55 -4.49,22.01 0,7.22 0,14.44 0,21.69 -0.01,14.49 -0.01,29.05 -0.02,43.68 -0.01,58.5 -0.03,118.04 -0.04,178.46 0,30.21 -0.01,60.64 -0.01,91.28 0.17,7.73 -0.44,15.12 0.56,23.35 1.17,7.99 4.1,15.82 8.9,22.38 9.32,13.37 25.4,21.65 41.78,21.58 496.13,-0.29 945.32,-0.56 1270.63,-0.76 10.22,-0.3 20.03,0.67 30.39,-0.88 10.16,-1.78 19.45,-6.86 26.57,-13.89 7.07,-7.12 11.87,-16.21 13.77,-25.78 1.65,-9.77 0.69,-18.96 0.93,-28.13 -0.07,-36.62 -0.14,-71.15 -0.2,-103.45 -0.17,-64.56 -0.32,-120.18 -0.45,-165.69 -0.08,-22.73 -0.16,-42.91 -0.23,-60.44 0.23,-8.74 -1.01,-17.12 -4.11,-23.95 -3.04,-6.85 -7.29,-12.31 -11.72,-16.4 -8.98,-8.22 -18.25,-11.05 -24.23,-12.11 -3.04,-0.49 -5.37,-0.7 -6.93,-0.66 -1.55,-0.03 -2.35,0.01 -2.35,0.01"
         style="fill:#17282f;fill-opacity:1;fill-rule:nonzero;stroke:none"
         id="path444" /><path
         d="m 1779.56,1309.97 c 0,21.78 16.67,37.22 39.36,37.22 13.19,0 23.82,-4.81 30.78,-13.5 l -12.88,-11.66 c -4.5,5.42 -10.02,8.39 -16.87,8.39 -11.76,0 -19.94,-8.18 -19.94,-20.45 0,-12.26 8.18,-20.45 19.94,-20.45 6.85,0 12.37,2.97 16.87,8.39 l 12.88,-11.66 c -6.96,-8.69 -17.59,-13.5 -30.78,-13.5 -22.69,0 -39.36,15.44 -39.36,37.22"
         style="fill:#17282f;fill-opacity:1;fill-rule:nonzero;stroke:none"
         id="path446" /><path
         d="m 1857.24,1306.08 v 39.67 h 20.24 v -39.05 c 0,-12.27 5.11,-17.18 13.6,-17.18 8.38,0 13.49,4.91 13.49,17.18 v 39.05 h 19.94 v -39.67 c 0,-21.36 -12.47,-33.33 -33.64,-33.33 -21.16,0 -33.63,11.97 -33.63,33.33"
         style="fill:#17282f;fill-opacity:1;fill-rule:nonzero;stroke:none"
         id="path448" /><path
         d="m 1969.68,1329.8 h -11.25 v -20.95 h 11.25 c 8.38,0 12.57,3.88 12.57,10.43 0,6.64 -4.19,10.52 -12.57,10.52 z m -0.2,-36.6 h -11.05 v -19.01 h -20.24 v 71.56 h 32.72 c 19.52,0 31.79,-10.12 31.79,-26.47 0,-10.54 -5.11,-18.3 -14,-22.6 l 15.43,-22.49 h -21.67 l -12.98,19.01"
         style="fill:#17282f;fill-opacity:1;fill-rule:nonzero;stroke:none"
         id="path450" /><path
         d="m 2045.31,1329.8 h -11.24 v -20.95 h 11.24 c 8.39,0 12.58,3.88 12.58,10.43 0,6.64 -4.19,10.52 -12.58,10.52 z m -0.2,-36.6 h -11.04 v -19.01 h -20.24 v 71.56 h 32.71 c 19.53,0 31.79,-10.12 31.79,-26.47 0,-10.54 -5.11,-18.3 -14,-22.6 l 15.43,-22.49 h -21.67 l -12.98,19.01"
         style="fill:#17282f;fill-opacity:1;fill-rule:nonzero;stroke:none"
         id="path452" /><path
         d="m 2146.91,1289.83 v -15.64 h -57.45 v 71.56 h 56.12 v -15.64 h -36.09 v -12.06 h 31.8 v -15.13 h -31.8 v -13.09 h 37.42"
         style="fill:#17282f;fill-opacity:1;fill-rule:nonzero;stroke:none"
         id="path454" /><path
         d="m 2226.22,1345.75 v -71.56 h -16.66 l -31.59,38.13 v -38.13 h -19.83 v 71.56 h 16.66 l 31.59,-38.13 v 38.13 h 19.83"
         style="fill:#17282f;fill-opacity:1;fill-rule:nonzero;stroke:none"
         id="path456" /><path
         d="m 2255.75,1329.71 h -21.98 v 16.04 h 64.11 v -16.04 h -21.89 v -55.52 h -20.24 v 55.52"
         style="fill:#17282f;fill-opacity:1;fill-rule:nonzero;stroke:none"
         id="path458" /><path
         d="m 2335.16,1345.75 h 20.24 v -55.51 h 34.14 v -16.05 h -54.38 v 71.56"
         style="fill:#17282f;fill-opacity:1;fill-rule:nonzero;stroke:none"
         id="path460" /><path
         d="m 2451.79,1309.97 c 0,12.37 -8.49,20.45 -19.33,20.45 -10.83,0 -19.31,-8.08 -19.31,-20.45 0,-12.37 8.48,-20.45 19.31,-20.45 10.84,0 19.33,8.08 19.33,20.45 z m -59.09,0 c 0,21.47 16.86,37.22 39.76,37.22 22.91,0 39.78,-15.75 39.78,-37.22 0,-21.46 -16.87,-37.22 -39.78,-37.22 -22.9,0 -39.76,15.76 -39.76,37.22"
         style="fill:#17282f;fill-opacity:1;fill-rule:nonzero;stroke:none"
         id="path462" /><path
         d="m 2479.17,1309.97 c 0,21.78 16.66,37.22 39.36,37.22 13.19,0 23.83,-4.81 30.77,-13.5 l -12.88,-11.66 c -4.49,5.42 -10.01,8.39 -16.87,8.39 -11.75,0 -19.93,-8.18 -19.93,-20.45 0,-12.26 8.18,-20.45 19.93,-20.45 6.86,0 12.38,2.97 16.87,8.39 l 12.88,-11.66 c -6.94,-8.69 -17.58,-13.5 -30.77,-13.5 -22.7,0 -39.36,15.44 -39.36,37.22"
         style="fill:#17282f;fill-opacity:1;fill-rule:nonzero;stroke:none"
         id="path464" /><path
         d="m 2599.07,1303.02 -9.2,22.9 -9.2,-22.9 z m 5.93,-14.92 h -30.26 l -5.62,-13.91 h -20.66 l 31.59,71.56 h 19.94 l 31.69,-71.56 h -21.06 l -5.62,13.91"
         style="fill:#17282f;fill-opacity:1;fill-rule:nonzero;stroke:none"
         id="path466" /><path
         d="m 2649.05,1329.71 h -21.99 v 16.04 h 64.11 v -16.04 h -21.89 v -55.52 h -20.23 v 55.52"
         style="fill:#17282f;fill-opacity:1;fill-rule:nonzero;stroke:none"
         id="path468" /><path
         d="m 2698.71,1345.75 h 20.25 v -71.56 h -20.25 v 71.56"
         style="fill:#17282f;fill-opacity:1;fill-rule:nonzero;stroke:none"
         id="path470" /><path
         d="m 2788.77,1309.97 c 0,12.37 -8.48,20.45 -19.32,20.45 -10.83,0 -19.32,-8.08 -19.32,-20.45 0,-12.37 8.49,-20.45 19.32,-20.45 10.84,0 19.32,8.08 19.32,20.45 z m -59.09,0 c 0,21.47 16.87,37.22 39.77,37.22 22.9,0 39.77,-15.75 39.77,-37.22 0,-21.46 -16.87,-37.22 -39.77,-37.22 -22.9,0 -39.77,15.76 -39.77,37.22"
         style="fill:#17282f;fill-opacity:1;fill-rule:nonzero;stroke:none"
         id="path472" /><path
         d="m 2887.91,1345.75 v -71.56 h -16.66 l -31.59,38.13 v -38.13 h -19.83 v 71.56 h 16.66 l 31.59,-38.13 v 38.13 h 19.83"
         style="fill:#17282f;fill-opacity:1;fill-rule:nonzero;stroke:none"
         id="path474" /><path
         d="m 1935.78,1190.6 c 0,20.5 15.74,35.18 36.93,35.18 11.76,0 21.58,-4.28 28,-12.06 l -10.12,-9.33 c -4.56,5.25 -10.3,7.97 -17.1,7.97 -12.73,0 -21.77,-8.94 -21.77,-21.76 0,-12.84 9.04,-21.78 21.77,-21.78 6.8,0 12.54,2.72 17.1,8.07 l 10.12,-9.33 c -6.42,-7.88 -16.24,-12.15 -28.09,-12.15 -21.1,0 -36.84,14.67 -36.84,35.19"
         style="fill:#dadbd8;fill-opacity:1;fill-rule:nonzero;stroke:none"
         id="path476" /><path
         d="m 2011.26,1224.61 h 15.75 v -68.04 h -15.75 v 68.04"
         style="fill:#dadbd8;fill-opacity:1;fill-rule:nonzero;stroke:none"
         id="path478" /><path
         d="m 2057.22,1211.78 h -21.77 v 12.83 h 59.29 v -12.83 h -21.78 v -55.21 h -15.74 v 55.21"
         style="fill:#dadbd8;fill-opacity:1;fill-rule:nonzero;stroke:none"
         id="path480" /><path
         d="m 2134.56,1180.67 v -24.1 h -15.75 v 24.3 l -26.34,43.74 h 16.72 l 18.18,-30.22 18.17,30.22 H 2161 l -26.44,-43.94"
         style="fill:#dadbd8;fill-opacity:1;fill-rule:nonzero;stroke:none"
         id="path482" /><path
         d="m 2177.97,1165.32 c 0,-2.53 -0.39,-4.37 -2.62,-9.72 l -5.54,-14 h -9.63 l 4.28,15.46 c -3.21,1.26 -5.25,4.28 -5.25,8.26 0,5.64 4.08,9.33 9.43,9.33 5.44,0 9.33,-3.79 9.33,-9.33"
         style="fill:#dadbd8;fill-opacity:1;fill-rule:nonzero;stroke:none"
         id="path484" /><path
         d="m 2212.54,1190.6 c 0,20.5 15.75,35.18 36.94,35.18 11.76,0 21.58,-4.28 27.99,-12.06 l -10.1,-9.33 c -4.57,5.25 -10.31,7.97 -17.11,7.97 -12.74,0 -21.77,-8.94 -21.77,-21.76 0,-12.84 9.03,-21.78 21.77,-21.78 6.8,0 12.54,2.72 17.11,8.07 l 10.1,-9.33 c -6.41,-7.88 -16.23,-12.15 -28.09,-12.15 -21.09,0 -36.84,14.67 -36.84,35.19"
         style="fill:#dadbd8;fill-opacity:1;fill-rule:nonzero;stroke:none"
         id="path486" /><path
         d="m 2340.8,1190.6 c 0,12.92 -9.14,21.76 -21.28,21.76 -12.15,0 -21.29,-8.84 -21.29,-21.76 0,-12.93 9.14,-21.78 21.29,-21.78 12.14,0 21.28,8.85 21.28,21.78 z m -58.51,0 c 0,20.21 15.75,35.18 37.23,35.18 21.38,0 37.22,-14.87 37.22,-35.18 0,-20.33 -15.84,-35.19 -37.22,-35.19 -21.48,0 -37.23,14.96 -37.23,35.19"
         style="fill:#dadbd8;fill-opacity:1;fill-rule:nonzero;stroke:none"
         id="path488" /><path
         d="m 2367.97,1186.51 v 38.1 h 15.75 v -37.52 c 0,-12.92 5.64,-18.27 15.16,-18.27 9.63,0 15.17,5.35 15.17,18.27 v 37.52 h 15.55 v -38.1 c 0,-20.03 -11.47,-31.1 -30.81,-31.1 -19.34,0 -30.82,11.07 -30.82,31.1"
         style="fill:#dadbd8;fill-opacity:1;fill-rule:nonzero;stroke:none"
         id="path490" /><path
         d="m 2507.51,1224.61 v -68.04 h -12.93 l -33.91,41.31 v -41.31 h -15.56 v 68.04 h 13.03 l 33.83,-41.31 v 41.31 h 15.54"
         style="fill:#dadbd8;fill-opacity:1;fill-rule:nonzero;stroke:none"
         id="path492" /><path
         d="m 2537.7,1211.78 h -21.77 v 12.83 h 59.29 v -12.83 h -21.77 v -55.21 h -15.75 v 55.21"
         style="fill:#dadbd8;fill-opacity:1;fill-rule:nonzero;stroke:none"
         id="path494" /><path
         d="m 2612.21,1211.78 h -12.82 v -23.71 h 12.82 c 9.63,0 14.48,4.47 14.48,11.85 0,7.48 -4.85,11.86 -14.48,11.86 z m 14.78,-55.21 -13.12,18.96 h -14.48 v -18.96 h -15.75 v 68.04 h 29.45 c 18.17,0 29.55,-9.42 29.55,-24.69 0,-10.2 -5.16,-17.68 -14,-21.48 l 15.26,-21.87 h -16.91"
         style="fill:#dadbd8;fill-opacity:1;fill-rule:nonzero;stroke:none"
         id="path496" /><path
         d="m 2686.72,1180.67 v -24.1 h -15.74 v 24.3 l -26.34,43.74 h 16.72 l 18.18,-30.22 18.17,30.22 h 15.46 l -26.45,-43.94"
         style="fill:#dadbd8;fill-opacity:1;fill-rule:nonzero;stroke:none"
         id="path498" /></g></g></svg>
